<?xml version="1.0" encoding="utf-8"?>
<!-- Generator: Adobe Illustrator 21.0.0, SVG Export Plug-In . SVG Version: 6.00 Build 0)  -->
<svg version="1.1" id="Texto" xmlns="http://www.w3.org/2000/svg" xmlns:xlink="http://www.w3.org/1999/xlink" x="0px" y="0px"
	 width="1300px" height="833.3px" viewBox="0 0 1300 833.3" style="enable-background:new 0 0 1300 833.3;" xml:space="preserve">
<style type="text/css">
	.st0{fill:#26F0A4;}
	.st1{fill:#FFFFFF;}
</style>
<g>
	<g>
		<polygon class="st0" points="148.8,355.7 100.1,477.6 127.9,477.6 161,392.3 184.6,453.2 161,453.2 161,477.6 221.9,477.6 
			173.2,355.7 		"/>
		<polygon class="st1" points="267.6,477.6 389.5,477.6 389.5,453.2 292,453.2 292,380.1 389.5,380.1 389.5,355.7 267.6,355.7 		"/>
		<polygon class="st1" points="435.2,380.1 483.9,380.1 483.9,477.6 508.3,477.6 508.3,380.1 557.1,380.1 557.1,355.7 435.2,355.7 
					"/>
		<rect x="602.8" y="355.7" class="st1" width="24.4" height="121.9"/>
		<polygon class="st1" points="770.3,442.2 697.2,355.7 672.8,355.7 672.8,477.6 697.2,477.6 697.2,393.8 770.3,477.6 794.7,477.6 
			794.7,355.7 770.3,355.7 		"/>
		<rect x="840.4" y="355.7" class="st1" width="24.4" height="121.9"/>
		<polygon class="st1" points="1007.9,453.2 934.8,453.2 934.8,355.7 910.5,355.7 910.5,477.6 1032.3,477.6 1032.3,355.7 
			1007.9,355.7 		"/>
		<polygon class="st1" points="1078,355.7 1078,477.6 1102.4,477.6 1102.4,380.1 1126.8,380.1 1126.8,477.6 1151.1,477.6 
			1151.1,380.1 1175.5,380.1 1175.5,477.6 1199.9,477.6 1199.9,355.7 		"/>
	</g>
</g>
</svg>
