<?xml version="1.0" encoding="utf-8"?>
<!-- Generator: Adobe Illustrator 21.0.0, SVG Export Plug-In . SVG Version: 6.00 Build 0)  -->
<svg version="1.1" id="Capa_1" xmlns="http://www.w3.org/2000/svg" xmlns:xlink="http://www.w3.org/1999/xlink" x="0px" y="0px"
	 width="1000px" height="1000px" viewBox="0 0 1000 1000" style="enable-background:new 0 0 1000 1000;" xml:space="preserve">
<style type="text/css">
	.st0{fill:#FFFFFF;}
</style>
<g>
	
		<image style="overflow:visible;opacity:0.5;" width="742" height="916" xlink:href="758636F9.png"  transform="matrix(1 0 0 1 129 43)">
	</image>
	<g>
		<g>
			<g>
				<path class="st0" d="M779,297v300.6L519,747.8V641.5l163-94.1l5-2.9v-5.8V350.1l92.1-53.2 M789,279.6l-112,64.7v194.5l-168,97
					v129.3l280-161.7V279.6L789,279.6z"/>
				<path class="st0" d="M221,296.9l92,53.1v188.7v5.8l5,2.9l163,94.1v106.2L221,597.6V297 M211,279.6v323.8l280,161.7V635.7
					l-168-97V344.3L211,279.6L211,279.6z"/>
				<path class="st0" d="M500,114.9l260.3,150.3l-92,53.1L505,224l-5-2.9l-5,2.9l-163.3,94.3l-92-53.1L500,114.9 M500,103.3
					L219.7,265.2l112,64.7L500,232.6l168.3,97.2l112-64.7L500,103.3L500,103.3z"/>
			</g>
			<g>
				<polygon class="st0" points="356.7,353.9 356.7,353.9 356.7,353.9 356.7,353.9 				"/>
				<polygon class="st0" points="643.3,353.9 643.3,353.9 643.3,353.9 643.3,353.9 				"/>
				<polygon class="st0" points="643.3,353.9 643.3,353.9 643.3,353.9 				"/>
				<path class="st0" d="M643,359.7v159.7V359.7z"/>
				<path class="st0" d="M357,359.7v159.7V359.7z"/>
				<polygon class="st0" points="356.7,353.9 356.7,353.9 356.7,353.9 				"/>
				<path class="st0" d="M643.3,353.9L643.3,353.9L643.3,353.9z"/>
				<path class="st0" d="M361.7,351L500,271.1L361.7,351z"/>
				<path class="st0" d="M356.7,353.9L356.7,353.9L356.7,353.9z"/>
				<path class="st0" d="M638.3,351L500,271.1L638.3,351z"/>
				<path class="st0" d="M500,602.1L500,602.1L500,602.1z"/>
				<path class="st0" d="M356.7,353.9L356.7,353.9L356.7,353.9z"/>
				<path class="st0" d="M643.3,353.9L643.3,353.9L643.3,353.9z"/>
				<path class="st0" d="M658,353.8v-8.7l-7.5-4.3L507,257.9l-7.5-4.3l-7.5,4.3l-143.5,82.9l-7.5,4.3v8.7v165.7v8.7l7.5,4.3
					L492,615.4l7.5,4.3l7.5-4.3l143.5-82.9l7.5-4.3v-8.7V353.8z M495,599l-138-79.7V360l138,79.6V599z M361.7,351L500,271.1
					L638.3,351L500,430.9L361.7,351z M505,599V439.6L643,360v159.4L505,599z"/>
			</g>
			<g>
				<polygon class="st0" points="224,899 224,885 237.5,885 224,850.1 205,899 189.4,899 217.1,830 230.9,830 258.4,899 				"/>
				<polygon class="st0" points="284,830 353,830 353,844 298,844 298,885 353,885 353,899 284,899 				"/>
				<polygon class="st0" points="379,830 448,830 448,844 420,844 420,899 406,899 406,844 379,844 				"/>
				<rect x="473" y="830" class="st0" width="14" height="69"/>
				<polygon class="st0" points="513,899 513,830 526.1,830 568,879 568,830 582,830 582,899 568.9,899 527,851.6 527,899 				"/>
				<rect x="607" y="830" class="st0" width="14" height="69"/>
				<polygon class="st0" points="661,830 661,885 702,885 702,830 716,830 716,899 647,899 647,830 				"/>
				<polygon class="st0" points="742,899 742,830 811,830 811,899 797,899 797,844 783,844 783,899 769,899 769,844 755,844 
					755,899 				"/>
			</g>
		</g>
	</g>
</g>
</svg>
