<?xml version="1.0" encoding="utf-8"?>
<!-- Generator: Adobe Illustrator 21.0.0, SVG Export Plug-In . SVG Version: 6.00 Build 0)  -->
<svg version="1.1" id="Capa_1" xmlns="http://www.w3.org/2000/svg" xmlns:xlink="http://www.w3.org/1999/xlink" x="0px" y="0px"
	 width="1000px" height="1000px" viewBox="0 0 1000 1000" style="enable-background:new 0 0 1000 1000;" xml:space="preserve">
<style type="text/css">
	.st0{fill:#FFFFFF;}
</style>
<g>
	<g>
		<path class="st0" d="M778.7,296.9v300.6L518.3,747.9V641.6l163.3-94.3l5-2.9v-5.8V350.1L778.7,296.9 M788.7,279.6l-112,64.7v194.4
			l-168.3,97.2v129.3l280.3-161.9V279.6L788.7,279.6z"/>
		<path class="st0" d="M221.3,296.9l92,53.1v188.6v5.8l5,2.9l163.3,94.3v106.2L221.3,597.5V296.9 M211.3,279.6v323.7l280.3,161.9
			V635.8l-168.3-97.2V344.3L211.3,279.6L211.3,279.6z"/>
		<path class="st0" d="M500,114.9l260.3,150.3l-92,53.1L505,224l-5-2.9l-5,2.9l-163.3,94.3l-92-53.1L500,114.9 M500,103.3
			L219.7,265.2l112,64.7L500,232.6l168.3,97.2l112-64.7L500,103.3L500,103.3z"/>
	</g>
	<g>
		<polygon class="st0" points="356.7,353.9 356.7,353.9 356.7,353.9 356.7,353.9 356.7,353.9 		"/>
		<polygon class="st0" points="643.3,353.9 643.3,353.9 643.3,353.9 643.3,353.9 643.3,353.9 		"/>
		<rect x="643.3" y="353.9" class="st0" width="0" height="0"/>
		<polygon class="st0" points="643.3,359.7 643.3,519.4 643.3,359.7 		"/>
		<polygon class="st0" points="356.7,359.7 356.7,519.4 356.7,359.7 		"/>
		<rect x="356.7" y="353.9" class="st0" width="0" height="0"/>
		<polygon class="st0" points="643.3,353.9 643.3,353.9 643.3,353.9 		"/>
		<polygon class="st0" points="361.7,351 500,271.1 361.7,351 		"/>
		<polygon class="st0" points="356.7,353.9 356.7,353.9 356.7,353.9 		"/>
		<polygon class="st0" points="638.3,351 500,271.1 638.3,351 		"/>
		<polygon class="st0" points="500,602.1 500,602.1 500,602.1 		"/>
		<polygon class="st0" points="356.7,353.9 356.7,353.9 356.7,353.9 		"/>
		<polygon class="st0" points="643.3,353.9 643.3,353.9 643.3,353.9 		"/>
		<path class="st0" d="M658.3,353.9v-8.7l-7.5-4.3l-143.3-82.8l-7.5-4.3l-7.5,4.3l-143.3,82.8l-7.5,4.3v8.7l0,165.5v8.7l7.5,4.3
			l143.3,82.8l7.5,4.3l7.5-4.3l143.3-82.8l7.5-4.3v-8.7L658.3,353.9z M495,599.3l-138.3-79.9l0-159.7L495,439.5V599.3z M361.7,351
			L500,271.1L638.3,351L500,430.9L361.7,351z M505,599.3V439.5l138.3-79.8l0,159.7L505,599.3z"/>
	</g>
	<g>
		<polygon class="st0" points="223.8,898.7 223.8,884.9 237.1,884.9 223.8,850.5 205.1,898.7 189.3,898.7 216.9,829.8 230.7,829.8 
			258.2,898.7 		"/>
		<polygon class="st0" points="284,829.8 352.8,829.8 352.8,843.6 297.8,843.6 297.8,884.9 352.8,884.9 352.8,898.7 284,898.7 		"/>
		<polygon class="st0" points="378.7,829.8 447.5,829.8 447.5,843.6 420,843.6 420,898.7 406.2,898.7 406.2,843.6 378.7,843.6 		"/>
		<rect x="473.3" y="829.8" class="st0" width="13.8" height="68.8"/>
		<polygon class="st0" points="512.9,898.7 512.9,829.8 526.7,829.8 568,878.7 568,829.8 581.8,829.8 581.8,898.7 568,898.7 
			526.7,851.4 526.7,898.7 		"/>
		<rect x="607.6" y="829.8" class="st0" width="13.8" height="68.8"/>
		<polygon class="st0" points="660.9,829.8 660.9,884.9 702.2,884.9 702.2,829.8 716,829.8 716,898.7 647.2,898.7 647.2,829.8 		"/>
		<polygon class="st0" points="741.8,898.7 741.8,829.8 810.7,829.8 810.7,898.7 796.9,898.7 796.9,843.6 783.1,843.6 783.1,898.7 
			769.3,898.7 769.3,843.6 755.6,843.6 755.6,898.7 		"/>
	</g>
</g>
</svg>
