<?xml version="1.0" encoding="utf-8"?>
<!-- Generator: Adobe Illustrator 21.0.0, SVG Export Plug-In . SVG Version: 6.00 Build 0)  -->
<svg version="1.1" id="Texto" xmlns="http://www.w3.org/2000/svg" xmlns:xlink="http://www.w3.org/1999/xlink" x="0px" y="0px"
	 width="2500px" height="833.3px" viewBox="0 0 2500 833.3" style="enable-background:new 0 0 2500 833.3;" xml:space="preserve">
<style type="text/css">
	.st0{fill:#FBFBFB;}
	.st1{fill:#282727;}
	.st2{fill:#B2B2B2;}
	.st3{fill:#CCCCCC;}
	.st4{fill:#C0C0C0;}
	.st5{fill:#EBEBEB;}
	.st6{fill:#DADADA;}
</style>
<g>
	<g>
		<g>
			<polygon class="st0" points="908.2,481.5 903,467.9 867.5,376.5 858.2,352.5 848.9,376.5 801.7,498.1 781.6,498.1 846.7,335.3 
				869.7,335.3 934.8,498.1 868.2,498.1 868.2,481.5 			"/>
			<polygon class="st0" points="1044.7,481.5 1191,481.5 1191,498.1 1028.2,498.1 1028.2,335.3 1191,335.3 1191,351.8 1044.7,351.8 
							"/>
			<polygon class="st0" points="1442.3,335.3 1442.3,351.8 1369.2,351.8 1369.2,498.1 1352.6,498.1 1352.6,351.8 1279.5,351.8 
				1279.5,335.3 			"/>
			<rect x="1530.8" y="335.3" class="st0" width="16.6" height="162.8"/>
			<polygon class="st0" points="1798.7,335.3 1798.7,498.1 1776.7,498.1 1670,375.8 1652.5,355.7 1652.5,498.1 1635.9,498.1 
				1635.9,335.3 1657.9,335.3 1764.5,461.4 1782.2,482.2 1782.2,335.3 			"/>
			<rect x="1887.3" y="335.3" class="st0" width="16.6" height="162.8"/>
			<polygon class="st0" points="2155.2,335.3 2155.2,498.1 1992.4,498.1 1992.4,335.3 2008.9,335.3 2008.9,481.5 2138.6,481.5 
				2138.6,335.3 			"/>
			<polygon class="st0" points="2406.5,335.3 2406.5,498.1 2390,498.1 2390,351.8 2333.4,351.8 2333.4,498.1 2316.8,498.1 
				2316.8,351.8 2260.3,351.8 2260.3,498.1 2243.7,498.1 2243.7,335.3 			"/>
		</g>
		<g>
			<path class="st1" d="M858.2,508.1h91.4l-73.1-182.8h-36.6l-73.1,182.8h41.7l49.7-128l35.4,91.4h-35.4V508.1z M868.2,481.5h40
				l-5.3-13.6l-35.4-91.4l-9.3-24l-9.3,24l-47.2,121.6h-20.1l65.1-162.8h23l65.1,162.8h-66.6V481.5z"/>
			<path class="st1" d="M1201,361.8v-36.5h-182.8v182.8H1201v-36.6h-146.2V361.8H1201z M1191,481.5v16.6h-162.8V335.3H1191v16.5
				h-146.2v129.7H1191z"/>
			<path class="st1" d="M1269.5,325.3v36.5h73.1v146.2h36.6V361.8h73.1v-36.5H1269.5z M1442.3,351.8h-73.1v146.2h-16.6V351.8h-73.1
				v-16.5h162.8V351.8z"/>
			<path class="st1" d="M1520.8,325.3v182.8h36.6V325.3H1520.8z M1547.4,498.1h-16.6V335.3h16.6V498.1z"/>
			<path class="st1" d="M1772.2,325.3v129.7l-109.7-129.7h-36.6v182.8h36.6V382.4l109.7,125.7h36.6V325.3H1772.2z M1798.7,498.1h-22
				L1670,375.8l-17.5-20.1v142.3h-16.6V335.3h21.9l106.7,126.1l17.6,20.8v-147h16.6V498.1z"/>
			<path class="st1" d="M1877.3,325.3v182.8h36.6V325.3H1877.3z M1903.8,498.1h-16.6V335.3h16.6V498.1z"/>
			<path class="st1" d="M2128.6,325.3v146.2h-109.7V325.3h-36.6v182.8h182.8V325.3H2128.6z M2155.2,498.1h-162.8V335.3h16.6v146.2
				h129.7V335.3h16.6V498.1z"/>
			<path class="st1" d="M2233.7,325.3v182.8h36.6V361.8h36.6v146.2h36.6V361.8h36.6v146.2h36.5V325.3H2233.7z M2406.5,498.1H2390
				V351.8h-56.6v146.2h-16.6V351.8h-56.6v146.2h-16.6V335.3h162.8V498.1z"/>
		</g>
	</g>
	<g>
		<polygon class="st2" points="650.8,279.4 650.8,580 390.5,730.3 390.5,624 553.8,529.7 558.8,526.8 558.8,332.5 		"/>
		<polygon class="st3" points="353.8,624 353.8,730.3 93.5,580 93.5,279.4 185.5,332.5 185.5,526.8 190.5,529.7 		"/>
		<polygon class="st4" points="632.5,247.6 540.5,300.7 377.2,206.4 372.2,203.5 367.2,206.4 203.8,300.7 111.8,247.6 372.2,97.3 		
			"/>
		<polygon class="st0" points="367.2,421.9 367.2,581.7 228.8,501.8 228.9,342.1 228.9,342.1 		"/>
		<polygon class="st5" points="510.5,333.4 372.2,413.3 233.9,333.4 372.2,253.6 		"/>
		<polygon class="st6" points="515.5,501.8 377.2,581.7 377.2,421.9 515.5,342.1 		"/>
		<path class="st1" d="M548.8,326.7v194.4l-168.3,97.2v129.3l280.3-161.9V262L548.8,326.7z M650.8,580L390.5,730.3V624l163.3-94.3
			l5-2.9V332.5l92-53.1V580z"/>
		<path class="st1" d="M195.5,521.1V326.7L83.5,262v323.7l280.3,161.9V618.3L195.5,521.1z M353.8,730.3L93.5,580V279.4l92,53.1
			v194.4l5,2.9L353.8,624V730.3z"/>
		<path class="st1" d="M372.2,85.7L91.8,247.6l112,64.7l168.3-97.2l168.3,97.2l112-64.7L372.2,85.7z M377.2,206.4l-5-2.9l-5,2.9
			l-163.3,94.3l-92-53.1L372.2,97.3l260.3,150.3l-92,53.1L377.2,206.4z"/>
		<path class="st1" d="M530.5,336.3v-8.7l-7.5-4.3l-143.3-82.8l-7.5-4.3l-7.5,4.3l-143.3,82.8l-7.5,4.3v8.7l0,165.5v8.7l7.5,4.3
			l143.3,82.8l7.5,4.3l7.5-4.3L523,514.8l7.5-4.3v-8.7L530.5,336.3z M367.2,581.7l-138.3-79.9l0-159.7v0l138.3,79.8V581.7z
			 M233.9,333.4l138.3-79.9l138.3,79.9l-138.3,79.9L233.9,333.4z M377.2,581.7V421.9l138.3-79.8l0,159.7L377.2,581.7z"/>
	</g>
</g>
</svg>
