<?xml version="1.0" encoding="utf-8"?>
<!-- Generator: Adobe Illustrator 21.0.0, SVG Export Plug-In . SVG Version: 6.00 Build 0)  -->
<svg version="1.1" id="Texto" xmlns="http://www.w3.org/2000/svg" xmlns:xlink="http://www.w3.org/1999/xlink" x="0px" y="0px"
	 width="2500px" height="833.3px" viewBox="0 0 2500 833.3" style="enable-background:new 0 0 2500 833.3;" xml:space="preserve">
<style type="text/css">
	.st0{fill:#004169;}
	.st1{fill:url(#SVGID_1_);}
	.st2{fill:url(#SVGID_2_);}
	.st3{fill:url(#SVGID_3_);}
	.st4{fill:url(#SVGID_4_);}
	.st5{fill:url(#SVGID_5_);}
	.st6{fill:url(#SVGID_6_);}
</style>
<g>
	<polygon class="st0" points="839.9,325.3 766.8,508.1 808.5,508.1 858.2,380.1 893.6,471.5 858.2,471.5 858.2,508.1 949.6,508.1 
		876.5,325.3 	"/>
	<polygon class="st0" points="1018.2,508.1 1200.9,508.1 1200.9,471.5 1054.7,471.5 1054.7,361.8 1200.9,361.8 1200.9,325.3 
		1018.2,325.3 	"/>
	<polygon class="st0" points="1269.5,361.8 1342.6,361.8 1342.6,508.1 1379.2,508.1 1379.2,361.8 1452.3,361.8 1452.3,325.3 
		1269.5,325.3 	"/>
	<rect x="1520.8" y="325.3" class="st0" width="36.6" height="182.8"/>
	<polygon class="st0" points="1772.2,454.9 1662.5,325.3 1625.9,325.3 1625.9,508.1 1662.5,508.1 1662.5,382.4 1772.2,508.1 
		1808.7,508.1 1808.7,325.3 1772.2,325.3 	"/>
	<rect x="1877.3" y="325.3" class="st0" width="36.6" height="182.8"/>
	<polygon class="st0" points="2128.6,471.5 2018.9,471.5 2018.9,325.3 1982.4,325.3 1982.4,508.1 2165.2,508.1 2165.2,325.3 
		2128.6,325.3 	"/>
	<polygon class="st0" points="2233.7,325.3 2233.7,508.1 2270.3,508.1 2270.3,361.8 2306.8,361.8 2306.8,508.1 2343.4,508.1 
		2343.4,361.8 2379.9,361.8 2379.9,508.1 2416.5,508.1 2416.5,325.3 	"/>
</g>
<g>
	<g>
		<linearGradient id="SVGID_1_" gradientUnits="userSpaceOnUse" x1="464.6582" y1="472.484" x2="660.8229" y2="585.7398">
			<stop  offset="0" style="stop-color:#389BCA"/>
			<stop  offset="0.1837" style="stop-color:#3297C6"/>
			<stop  offset="0.3742" style="stop-color:#1F8CBA"/>
			<stop  offset="0.5677" style="stop-color:#007AA8"/>
			<stop  offset="0.7633" style="stop-color:#00628E"/>
			<stop  offset="0.9588" style="stop-color:#004770"/>
			<stop  offset="1" style="stop-color:#004169"/>
		</linearGradient>
		<polygon class="st1" points="660.8,262 660.8,585.7 380.5,747.6 380.5,618.3 548.8,521.1 548.8,326.7 		"/>
		<linearGradient id="SVGID_2_" gradientUnits="userSpaceOnUse" x1="279.6618" y1="472.484" x2="83.4971" y2="585.7398">
			<stop  offset="0" style="stop-color:#389BCA"/>
			<stop  offset="0.1837" style="stop-color:#3297C6"/>
			<stop  offset="0.3742" style="stop-color:#1F8CBA"/>
			<stop  offset="0.5677" style="stop-color:#007AA8"/>
			<stop  offset="0.7633" style="stop-color:#00628E"/>
			<stop  offset="0.9588" style="stop-color:#004770"/>
			<stop  offset="1" style="stop-color:#004169"/>
		</linearGradient>
		<polygon class="st2" points="195.5,521.1 363.8,618.3 363.8,747.6 83.5,585.7 83.5,262 195.5,326.7 		"/>
		<linearGradient id="SVGID_3_" gradientUnits="userSpaceOnUse" x1="372.16" y1="312.2665" x2="372.16" y2="85.7333">
			<stop  offset="0" style="stop-color:#389BCA"/>
			<stop  offset="0.1837" style="stop-color:#3198C6"/>
			<stop  offset="0.3742" style="stop-color:#198EBC"/>
			<stop  offset="0.5677" style="stop-color:#007EAB"/>
			<stop  offset="0.7633" style="stop-color:#006A94"/>
			<stop  offset="0.9588" style="stop-color:#005177"/>
			<stop  offset="1" style="stop-color:#004B70"/>
		</linearGradient>
		<polygon class="st3" points="652.5,247.6 540.5,312.3 372.2,215.1 203.8,312.3 91.8,247.6 372.2,85.7 		"/>
	</g>
	<g>
		<linearGradient id="SVGID_4_" gradientUnits="userSpaceOnUse" x1="372.1572" y1="419.0715" x2="515.4818" y2="501.82">
			<stop  offset="0" style="stop-color:#F0E400"/>
			<stop  offset="1" style="stop-color:#65A428"/>
		</linearGradient>
		<polygon class="st4" points="515.5,336.3 515.5,501.8 380.5,579.8 372.2,584.6 372.2,419.1 482.2,355.6 515.5,336.3 		"/>
		<linearGradient id="SVGID_5_" gradientUnits="userSpaceOnUse" x1="372.1628" y1="419.0715" x2="228.8382" y2="501.82">
			<stop  offset="0" style="stop-color:#F0E400"/>
			<stop  offset="1" style="stop-color:#65A428"/>
		</linearGradient>
		<polygon class="st5" points="372.2,419.1 372.2,584.6 363.8,579.8 228.8,501.8 228.8,336.3 228.9,336.3 262.2,355.6 		"/>
		<linearGradient id="SVGID_6_" gradientUnits="userSpaceOnUse" x1="372.16" y1="419.0667" x2="372.16" y2="253.5666">
			<stop  offset="0" style="stop-color:#F0E400"/>
			<stop  offset="1" style="stop-color:#65A428"/>
		</linearGradient>
		<polygon class="st6" points="515.5,336.3 482.2,355.6 372.2,419.1 262.2,355.6 228.9,336.3 237.2,331.5 372.2,253.6 507.2,331.5 
					"/>
	</g>
</g>
</svg>
