<?xml version="1.0" encoding="utf-8"?>
<!-- Generator: Adobe Illustrator 21.0.0, SVG Export Plug-In . SVG Version: 6.00 Build 0)  -->
<svg version="1.1" id="Texto" xmlns="http://www.w3.org/2000/svg" xmlns:xlink="http://www.w3.org/1999/xlink" x="0px" y="0px"
	 width="2500px" height="833.3px" viewBox="0 0 2500 833.3" style="enable-background:new 0 0 2500 833.3;" xml:space="preserve">
<style type="text/css">
	.st0{fill:#004169;}
	.st1{fill:url(#SVGID_1_);}
	.st2{fill:url(#SVGID_2_);}
	.st3{fill:url(#SVGID_3_);}
	.st4{fill:#FFFFFF;}
	.st5{fill:url(#SVGID_4_);}
	.st6{fill:url(#SVGID_5_);}
	.st7{fill:url(#SVGID_6_);}
</style>
<g>
	<g>
		<polygon class="st0" points="976.6,355.7 927.9,477.6 955.7,477.6 988.8,392.3 1012.4,453.2 988.8,453.2 988.8,477.6 
			1049.7,477.6 1001,355.7 		"/>
		<polygon class="st0" points="1095.4,477.6 1217.3,477.6 1217.3,453.2 1119.8,453.2 1119.8,380.1 1217.3,380.1 1217.3,355.7 
			1095.4,355.7 		"/>
		<polygon class="st0" points="1263,380.1 1311.7,380.1 1311.7,477.6 1336.1,477.6 1336.1,380.1 1384.9,380.1 1384.9,355.7 
			1263,355.7 		"/>
		<rect x="1430.6" y="355.7" class="st0" width="24.4" height="121.9"/>
		<polygon class="st0" points="1598.1,442.2 1525,355.7 1500.6,355.7 1500.6,477.6 1525,477.6 1525,393.8 1598.1,477.6 
			1622.5,477.6 1622.5,355.7 1598.1,355.7 		"/>
		<rect x="1668.2" y="355.7" class="st0" width="24.4" height="121.9"/>
		<polygon class="st0" points="1835.7,453.2 1762.6,453.2 1762.6,355.7 1738.3,355.7 1738.3,477.6 1860.1,477.6 1860.1,355.7 
			1835.7,355.7 		"/>
		<polygon class="st0" points="1905.8,355.7 1905.8,477.6 1930.2,477.6 1930.2,380.1 1954.6,380.1 1954.6,477.6 1978.9,477.6 
			1978.9,380.1 2003.3,380.1 2003.3,477.6 2027.7,477.6 2027.7,355.7 		"/>
	</g>
	<g>
		<g>
			<linearGradient id="SVGID_1_" gradientUnits="userSpaceOnUse" x1="726.4399" y1="453.8782" x2="857.2162" y2="529.382">
				<stop  offset="0" style="stop-color:#389BCA"/>
				<stop  offset="0.1837" style="stop-color:#3297C6"/>
				<stop  offset="0.3742" style="stop-color:#1F8CBA"/>
				<stop  offset="0.5677" style="stop-color:#007AA8"/>
				<stop  offset="0.7633" style="stop-color:#00628E"/>
				<stop  offset="0.9588" style="stop-color:#004770"/>
				<stop  offset="1" style="stop-color:#004169"/>
			</linearGradient>
			<polygon class="st1" points="857.2,313.6 857.2,529.4 670.3,637.3 670.3,551.1 782.6,486.3 782.6,356.7 			"/>
			<linearGradient id="SVGID_2_" gradientUnits="userSpaceOnUse" x1="603.1091" y1="453.8782" x2="472.3328" y2="529.382">
				<stop  offset="0" style="stop-color:#389BCA"/>
				<stop  offset="0.1837" style="stop-color:#3297C6"/>
				<stop  offset="0.3742" style="stop-color:#1F8CBA"/>
				<stop  offset="0.5677" style="stop-color:#007AA8"/>
				<stop  offset="0.7633" style="stop-color:#00628E"/>
				<stop  offset="0.9588" style="stop-color:#004770"/>
				<stop  offset="1" style="stop-color:#004169"/>
			</linearGradient>
			<polygon class="st2" points="547,486.3 659.2,551.1 659.2,637.3 472.3,529.4 472.3,313.6 547,356.7 			"/>
			<linearGradient id="SVGID_3_" gradientUnits="userSpaceOnUse" x1="664.7745" y1="347.0667" x2="664.7745" y2="196.0447">
				<stop  offset="0" style="stop-color:#389BCA"/>
				<stop  offset="0.1837" style="stop-color:#3198C6"/>
				<stop  offset="0.3742" style="stop-color:#198EBC"/>
				<stop  offset="0.5677" style="stop-color:#007EAB"/>
				<stop  offset="0.7633" style="stop-color:#006A94"/>
				<stop  offset="0.9588" style="stop-color:#005177"/>
				<stop  offset="1" style="stop-color:#004B70"/>
			</linearGradient>
			<polygon class="st3" points="851.7,304 777,347.1 664.8,282.3 552.6,347.1 477.9,304 664.8,196 			"/>
		</g>
		<g>
			<polygon class="st4" points="569.2,363.1 664.8,307.9 760.3,363.1 760.3,473.4 664.8,528.6 569.2,473.4 			"/>
			<linearGradient id="SVGID_4_" gradientUnits="userSpaceOnUse" x1="664.7726" y1="418.2699" x2="760.3223" y2="473.4355">
				<stop  offset="0" style="stop-color:#F0E400"/>
				<stop  offset="1" style="stop-color:#65A428"/>
			</linearGradient>
			<polygon class="st5" points="760.3,363.1 760.3,473.4 670.3,525.4 664.8,528.6 664.8,418.3 738.1,375.9 760.3,363.1 			"/>
			<linearGradient id="SVGID_5_" gradientUnits="userSpaceOnUse" x1="664.7764" y1="418.2699" x2="569.2267" y2="473.4355">
				<stop  offset="0" style="stop-color:#F0E400"/>
				<stop  offset="1" style="stop-color:#65A428"/>
			</linearGradient>
			<polygon class="st6" points="664.8,418.3 664.8,528.6 659.2,525.4 569.2,473.4 569.2,363.1 569.2,363.1 591.4,375.9 			"/>
			<linearGradient id="SVGID_6_" gradientUnits="userSpaceOnUse" x1="664.7745" y1="418.2667" x2="664.7745" y2="307.9334">
				<stop  offset="0" style="stop-color:#F0E400"/>
				<stop  offset="1" style="stop-color:#65A428"/>
			</linearGradient>
			<polygon class="st7" points="760.3,363.1 738.1,375.9 664.8,418.3 591.4,375.9 569.2,363.1 574.8,359.9 664.8,307.9 754.8,359.9 
							"/>
		</g>
	</g>
</g>
</svg>
