<?xml version="1.0" encoding="utf-8"?>
<!-- Generator: Adobe Illustrator 21.0.0, SVG Export Plug-In . SVG Version: 6.00 Build 0)  -->
<svg version="1.1" id="Capa_1" xmlns="http://www.w3.org/2000/svg" xmlns:xlink="http://www.w3.org/1999/xlink" x="0px" y="0px"
	 width="300px" height="300px" viewBox="0 0 300 300" style="enable-background:new 0 0 300 300;" xml:space="preserve">
<style type="text/css">
	.st0{fill:#FFFFFF;}
	.st1{fill:#595959;}
</style>
<g>
	<path class="st0" d="M250,224c0,0.5-0.3,0.9-0.7,0.9H50.7c-0.4,0-0.7-0.4-0.7-0.9V76c0-0.5,0.3-0.9,0.7-0.9h198.6
		c0.4,0,0.7,0.4,0.7,0.9V224z"/>
	<rect x="61.8" y="152.4" class="st1" width="176.5" height="63.1"/>
	<g>
		<g>
			<rect x="69.4" y="161.2" class="st0" width="161.3" height="6.8"/>
			<rect x="69.4" y="180.5" class="st0" width="161.3" height="6.8"/>
			<rect x="69.4" y="199.8" class="st0" width="161.3" height="6.8"/>
		</g>
	</g>
	<g>
		<g>
			<rect x="63.8" y="91.4" class="st1" width="57.7" height="8.6"/>
			<rect x="63.8" y="125.5" class="st1" width="57.7" height="8.6"/>
			<rect x="63.8" y="108.5" class="st1" width="57.7" height="8.6"/>
		</g>
	</g>
	<path class="st1" d="M236.2,140.7c0,0.2-0.2,0.3-0.4,0.3H130.1c-0.2,0-0.4-0.2-0.4-0.3V84.9c0-0.2,0.2-0.3,0.4-0.3h105.7
		c0.2,0,0.4,0.2,0.4,0.3V140.7z"/>
	<g>
		<g>
			<path class="st0" d="M157.4,127.4h-6l-6.6-26.2v26.2h-3.4V98.1h6l6.6,26.2V98.1h3.4V127.4z"/>
			<path class="st0" d="M179.1,127.4h-14V98.1h14v3.1h-10.3v9.6h9.3v3.1h-9.3v10.6h10.3V127.4z"/>
			<path class="st0" d="M203.7,98.1l-1.4,29.3H197l-2.4-11.9l-2.6,11.9h-5l-1.4-29.3h3.1l1.3,26.2l3.5-13.8h2.6l3.6,13.8l1.3-26.2
				H203.7z"/>
			<path class="st0" d="M224.4,120.3c0,2.4-0.6,4.2-1.9,5.3c-1.3,1.2-3.2,1.8-5.6,1.8h-5.9v-3.2h6.4c1,0,1.9-0.3,2.5-0.9
				c0.6-0.6,1-1.4,1-2.2v-4.4c0-0.8-0.2-1.5-0.6-2c-0.4-0.5-1.1-0.8-1.9-0.8h-1.3c-2.1,0-3.7-0.6-4.9-1.8c-1.2-1.2-1.8-3-1.8-5.3
				v-1.6c0-2.4,0.6-4.2,1.9-5.3c1.3-1.2,3.2-1.8,5.6-1.8h6v3.2h-6.4c-1,0-1.9,0.3-2.5,0.9c-0.6,0.6-1,1.4-1,2.2v3.2
				c0,0.9,0.3,1.6,0.8,2.2c0.6,0.6,1.3,0.9,2.2,0.9h1.3c2,0,3.5,0.6,4.6,1.7c1.1,1.1,1.7,2.9,1.7,5.2V120.3z"/>
		</g>
	</g>
</g>
</svg>
