<?xml version="1.0" encoding="utf-8"?>
<!-- Generator: Adobe Illustrator 21.0.0, SVG Export Plug-In . SVG Version: 6.00 Build 0)  -->
<svg version="1.1" id="Capa_1" xmlns="http://www.w3.org/2000/svg" xmlns:xlink="http://www.w3.org/1999/xlink" x="0px" y="0px"
	 width="300px" height="300px" viewBox="0 0 300 300" style="enable-background:new 0 0 300 300;" xml:space="preserve">
<style type="text/css">
	.st0{fill:#FFFFFF;}
</style>
<g>
	<path class="st0" d="M141,157.8c0,7-5.2,12.7-11.7,12.7c-6.4,0-11.7-5.7-11.7-12.7s5.2-12.7,11.7-12.7S141.1,150.8,141,157.8z"/>
	<path class="st0" d="M182.7,157.8c0,7-5.2,12.7-11.7,12.7c-6.4,0-11.7-5.7-11.7-12.7s5.2-12.7,11.7-12.7S182.7,150.8,182.7,157.8z"
		/>
	<path class="st0" d="M226.6,49.2H73.4C60.5,49.2,50,59.7,50,72.7v154.5c0,13,10.5,23.5,23.4,23.5H203l-6.1-21.1l14.6,13.6
		l13.8,12.8l24.6,21.7v-205C250,59.7,239.5,49.2,226.6,49.2z M182.6,198.3c0,0-4.1-5-7.5-9.3c15-4.2,20.7-13.6,20.7-13.6
		c-4.6,3-9.1,5.2-13.1,6.7c-5.7,2.4-11.2,4-16.6,4.9c-11,2.1-21,1.5-29.6-0.1c-6.5-1.2-12.1-3.1-16.8-4.9c-2.6-1-5.4-2.3-8.3-3.9
		c-0.3-0.3-0.7-0.4-1-0.6c-0.3-0.1-0.4-0.2-0.5-0.3c-2-1.1-3.1-1.9-3.2-1.9c0.1,0.2,5.6,9.2,20,13.5c-3.5,4.4-7.7,9.5-7.7,9.5
		c-25.3-0.8-34.9-17.4-34.9-17.4c0-36.8,16.5-66.6,16.5-66.6c16.4-12.3,32.1-12,32.1-12l1.1,1.4c-20.2,5.9-29.7,14.7-30,15
		c0.1-0.1,2.6-1.4,6.7-3.3c12.2-5.4,21.9-6.9,25.9-7.2c0.6-0.1,1.2-0.2,1.9-0.2c7-0.9,14.9-1.1,23.1-0.2c10.9,1.3,22.5,4.5,34.4,11
		c-0.6-0.5-9.7-8.8-28.5-14.5l1.6-1.8c0,0,15.6-0.3,32.1,12c0,0,16.4,29.8,16.6,66.4C217.6,180.9,207.9,197.5,182.6,198.3z"/>
	<path class="st0" d="M141,157.8c0,7-5.2,12.7-11.7,12.7c-6.4,0-11.7-5.7-11.7-12.7s5.2-12.7,11.7-12.7S141.1,150.8,141,157.8z"/>
	<path class="st0" d="M182.7,157.8c0,7-5.2,12.7-11.7,12.7c-6.4,0-11.7-5.7-11.7-12.7s5.2-12.7,11.7-12.7S182.7,150.8,182.7,157.8z"
		/>
	<path class="st0" d="M171,145.1c-6.5,0-11.7,5.7-11.7,12.7s5.3,12.7,11.7,12.7c6.5,0,11.7-5.7,11.7-12.7S177.5,145.1,171,145.1z
		 M129.3,145.1c-6.5,0-11.7,5.7-11.7,12.7s5.3,12.7,11.7,12.7c6.5,0,11.7-5.7,11.7-12.7C141.1,150.8,135.8,145.1,129.3,145.1z"/>
</g>
</svg>
