<?xml version="1.0" encoding="utf-8"?>
<!-- Generator: Adobe Illustrator 21.0.0, SVG Export Plug-In . SVG Version: 6.00 Build 0)  -->
<svg version="1.1" id="Capa_1" xmlns="http://www.w3.org/2000/svg" xmlns:xlink="http://www.w3.org/1999/xlink" x="0px" y="0px"
	 width="300px" height="300px" viewBox="0 0 300 300" style="enable-background:new 0 0 300 300;" xml:space="preserve">
<style type="text/css">
	.st0{fill:#FFFFFF;}
</style>
<path class="st0" d="M181.7,198.3v46.5l0,0c-10,3.3-20.7,5.2-31.8,5.2c-11,0-21.7-1.8-31.6-5.1L101.6,230l-28.1-29.6l-5.3-20.6
	l4.2-24.7l5.8-53.7l23.5-22.3l34.7-3.7l71,6.7c0,0,4.3,31.5,4.3,32s12.3,10.5,12.3,10.5V174L181.7,198.3z"/>
<g>
	<path d="M150,50C94.8,50,50,94.8,50,150c0,44.2,28.7,81.7,68.4,94.9c5,0.9,6.8-2.2,6.8-4.8c0-2.4-0.1-10.3-0.1-18.6
		c-27.8,6-33.7-11.8-33.7-11.8c-4.5-11.6-11.1-14.6-11.1-14.6c-9.1-6.2,0.7-6.1,0.7-6.1c10,0.7,15.3,10.3,15.3,10.3
		c8.9,15.3,23.4,10.9,29.1,8.3c0.9-6.5,3.5-10.9,6.3-13.4c-22.2-2.5-45.6-11.1-45.6-49.4c0-10.9,3.9-19.8,10.3-26.8
		c-1-2.5-4.5-12.7,1-26.5c0,0,8.4-2.7,27.5,10.3c8-2.2,16.5-3.3,25-3.4c8.5,0,17.1,1.1,25.1,3.4c19.1-12.9,27.5-10.3,27.5-10.3
		c5.4,13.8,2,23.9,1,26.5c6.4,7,10.3,15.9,10.3,26.8c0,38.4-23.4,46.9-45.7,49.3c3.6,3.1,6.8,9.2,6.8,18.5c0,13.4-0.1,24.1-0.1,27.4
		c0,2.7,1.8,5.8,6.9,4.8c39.7-13.2,68.3-50.7,68.3-94.9C250,94.8,205.2,50,150,50z"/>
	<path d="M87.9,193.6c-0.2,0.5-1,0.6-1.7,0.3s-1.1-1-0.9-1.5s1-0.7,1.7-0.3C87.7,192.4,88.1,193.1,87.9,193.6L87.9,193.6z"/>
	<path d="M91.9,198.1c-0.5,0.4-1.4,0.2-2-0.5c-0.7-0.7-0.8-1.6-0.3-2.1c0.5-0.4,1.4-0.2,2.1,0.5C92.3,196.7,92.4,197.6,91.9,198.1
		L91.9,198.1z"/>
	<path d="M95.9,203.9c-0.6,0.4-1.6,0-2.2-0.9s-0.6-2,0-2.4s1.6,0,2.2,0.8C96.5,202.4,96.5,203.4,95.9,203.9L95.9,203.9z"/>
	<path d="M101.3,209.4c-0.5,0.6-1.7,0.4-2.6-0.4c-0.9-0.8-1.1-2-0.6-2.6c0.6-0.6,1.7-0.4,2.6,0.4
		C101.6,207.7,101.9,208.8,101.3,209.4L101.3,209.4z"/>
	<path d="M108.7,212.7c-0.2,0.8-1.4,1.1-2.5,0.8s-1.9-1.3-1.6-2.1c0.2-0.8,1.4-1.2,2.5-0.8C108.2,210.9,109,211.9,108.7,212.7
		L108.7,212.7z"/>
	<path d="M116.9,213.2c0,0.8-0.9,1.5-2.1,1.5s-2.2-0.6-2.2-1.5c0-0.8,0.9-1.5,2.1-1.5C115.9,211.8,116.9,212.4,116.9,213.2
		L116.9,213.2z"/>
	<path d="M124.5,212c0.1,0.8-0.7,1.6-1.9,1.9c-1.2,0.2-2.2-0.3-2.4-1.1c-0.1-0.8,0.7-1.7,1.9-1.9S124.4,211.1,124.5,212L124.5,212z"
		/>
</g>
</svg>
