<?xml version="1.0" encoding="utf-8"?>
<!-- Generator: Adobe Illustrator 21.0.0, SVG Export Plug-In . SVG Version: 6.00 Build 0)  -->
<svg version="1.1" id="Capa_1" xmlns="http://www.w3.org/2000/svg" xmlns:xlink="http://www.w3.org/1999/xlink" x="0px" y="0px"
	 width="300px" height="300px" viewBox="0 0 300 300" style="enable-background:new 0 0 300 300;" xml:space="preserve">
<g>
	<path d="M150,49.2c-55.2,0-100,44.8-100,100c0,44.2,28.7,81.7,68.4,94.9c5,0.9,6.8-2.2,6.8-4.8c0-2.4-0.1-10.3-0.1-18.6
		c-27.8,6-33.7-11.8-33.7-11.8c-4.5-11.6-11.1-14.6-11.1-14.6c-9.1-6.2,0.7-6.1,0.7-6.1c10,0.7,15.3,10.3,15.3,10.3
		c8.9,15.3,23.4,10.9,29.1,8.3c0.9-6.5,3.5-10.9,6.3-13.4c-22.2-2.5-45.6-11.1-45.6-49.4c0-10.9,3.9-19.8,10.3-26.8
		c-1-2.5-4.5-12.7,1-26.5c0,0,8.4-2.7,27.5,10.3c8-2.2,16.5-3.3,25-3.4c8.5,0,17.1,1.1,25.1,3.4c19.1-12.9,27.5-10.3,27.5-10.3
		c5.4,13.8,2,23.9,1,26.5c6.4,7,10.3,15.9,10.3,26.8c0,38.4-23.4,46.9-45.7,49.3c3.6,3.1,6.8,9.2,6.8,18.5c0,13.4-0.1,24.1-0.1,27.4
		c0,2.7,1.8,5.8,6.9,4.8c39.7-13.2,68.3-50.7,68.3-94.9C250,94,205.2,49.2,150,49.2z"/>
	<path d="M87.9,192.8c-0.2,0.5-1,0.6-1.7,0.3s-1.1-1-0.9-1.5s1-0.7,1.7-0.3C87.7,191.6,88.1,192.3,87.9,192.8L87.9,192.8z"/>
	<path d="M91.9,197.3c-0.5,0.4-1.4,0.2-2-0.5c-0.7-0.7-0.8-1.6-0.3-2.1c0.5-0.4,1.4-0.2,2.1,0.5C92.3,195.9,92.4,196.8,91.9,197.3
		L91.9,197.3z"/>
	<path d="M95.9,203.1c-0.6,0.4-1.6,0-2.2-0.9s-0.6-2,0-2.4s1.6,0,2.2,0.8C96.5,201.6,96.5,202.6,95.9,203.1L95.9,203.1z"/>
	<path d="M101.3,208.6c-0.5,0.6-1.7,0.4-2.6-0.4c-0.9-0.8-1.1-2-0.6-2.6c0.6-0.6,1.7-0.4,2.6,0.4C101.6,206.9,101.9,208,101.3,208.6
		L101.3,208.6z"/>
	<path d="M108.7,211.9c-0.2,0.8-1.4,1.1-2.5,0.8s-1.9-1.3-1.6-2.1c0.2-0.8,1.4-1.2,2.5-0.8C108.2,210.1,109,211.1,108.7,211.9
		L108.7,211.9z"/>
	<path d="M116.9,212.4c0,0.8-0.9,1.5-2.1,1.5s-2.2-0.6-2.2-1.5c0-0.8,0.9-1.5,2.1-1.5C115.9,211,116.9,211.6,116.9,212.4
		L116.9,212.4z"/>
	<path d="M124.5,211.2c0.1,0.8-0.7,1.6-1.9,1.9c-1.2,0.2-2.2-0.3-2.4-1.1c-0.1-0.8,0.7-1.7,1.9-1.9S124.4,210.3,124.5,211.2
		L124.5,211.2z"/>
</g>
</svg>
