<?xml version="1.0" encoding="utf-8"?>
<!-- Generator: Adobe Illustrator 21.0.0, SVG Export Plug-In . SVG Version: 6.00 Build 0)  -->
<svg version="1.1" id="Capa_1" xmlns="http://www.w3.org/2000/svg" xmlns:xlink="http://www.w3.org/1999/xlink" x="0px" y="0px"
	 width="300px" height="300px" viewBox="0 0 300 300" style="enable-background:new 0 0 300 300;" xml:space="preserve">
<style type="text/css">
	.st0{fill:#E84B1E;}
	.st1{fill:#FFFFFF;}
</style>
<g>
	<g>
		<path class="st0" d="M250,150c0,55.2-44.8,100-100,100S50,205.2,50,150S94.8,50,150,50S250,94.8,250,150z"/>
		<path class="st1" d="M213.2,162.5c0.2,1.6,0.4,3.2,0.4,4.8c0,23.4-28.6,42.4-63.9,42.4s-63.9-19-63.9-42.4c0-1.7,0.2-3.4,0.5-5.1
			c-4.8-2.8-7.8-8-7.8-13.6c0-8.7,7.1-15.8,15.8-15.8c4,0,7.8,1.6,10.7,4.3c11.3-7.3,26.6-11.9,43.5-12.1l9.9-31.2
			c0.3-1.1,1.5-1.8,2.6-1.5l25.8,6.2c1.9-4.9,6.5-8.3,12-8.3c7.1,0,12.9,5.9,12.9,13c0,7.1-5.8,12.9-12.9,12.9
			c-7.1,0-12.9-5.8-12.9-12.9v-0.4L162,97.2l-8.8,27.9c16.2,0.6,30.8,5.2,41.6,12.3c2.9-2.8,6.8-4.5,10.9-4.5
			c8.7,0,15.8,7.1,15.8,15.8C221.5,154.6,218.2,159.9,213.2,162.5z"/>
		<path class="st0" d="M128.3,150.1c-5.2,0-9.4,4.2-9.4,9.4s4.2,9.4,9.4,9.4c5.2,0,9.4-4.2,9.4-9.4S133.5,150.1,128.3,150.1z
			 M172.9,184.3c-0.9-0.9-2.3-0.9-3.1,0c-3.9,3.9-10.3,5.7-19.7,5.7c0,0,0,0-0.1,0h-0.1c-9.4,0-15.8-1.9-19.7-5.7
			c-0.9-0.9-2.2-0.9-3.1,0s-0.9,2.3,0,3.1c4.8,4.8,12.2,7.1,22.8,7.1c0,0,0,0,0.1,0c0,0,0,0,0.1,0c10.6,0,18-2.3,22.8-7.1
			C173.7,186.6,173.7,185.2,172.9,184.3z M171.7,150.1c-5.2,0-9.4,4.2-9.4,9.4s4.2,9.4,9.4,9.4s9.4-4.2,9.4-9.4
			C181.2,154.3,176.9,150.1,171.7,150.1z"/>
	</g>
</g>
</svg>
