<?xml version="1.0" encoding="utf-8"?>
<!-- Generator: Adobe Illustrator 21.0.0, SVG Export Plug-In . SVG Version: 6.00 Build 0)  -->
<svg version="1.1" id="Capa_1" xmlns="http://www.w3.org/2000/svg" xmlns:xlink="http://www.w3.org/1999/xlink" x="0px" y="0px"
	 width="300px" height="300px" viewBox="0 0 300 300" style="enable-background:new 0 0 300 300;" xml:space="preserve">
<style type="text/css">
	.st0{fill:#FFFFFF;}
</style>
<g>
	<path class="st0" d="M150,50C94.8,50,50,94.7,50,150s44.8,100,100,100s100-44.7,100-100C250,94.8,205.2,50,150,50z M199.1,118.5
		l-16.4,77.3c-1.2,5.6-4.5,6.8-9.1,4.3l-24.9-18.4c-5.8,5.7-11.1,10.8-12,11.6c-1.4,1.3-2.5,2.5-5,2.5c-3.3,0-2.7-1.3-3.8-4.3
		l-8.5-27.9l0,0l-24.8-7.8c-5.3-1.6-5.4-5.2,1.2-7.9l96.3-37.2C196.5,108.7,200.8,111.7,199.1,118.5z"/>
</g>
</svg>
