<?xml version="1.0" encoding="utf-8"?>
<!-- Generator: Adobe Illustrator 21.0.0, SVG Export Plug-In . SVG Version: 6.00 Build 0)  -->
<svg version="1.1" id="Capa_1" xmlns="http://www.w3.org/2000/svg" xmlns:xlink="http://www.w3.org/1999/xlink" x="0px" y="0px"
	 width="300px" height="300px" viewBox="0 0 300 300" style="enable-background:new 0 0 300 300;" xml:space="preserve">
<style type="text/css">
	.st0{fill:url(#path2995-1-0_1_);}
	.st1{fill:#C8DAEA;}
	.st2{fill:#A9C9DD;}
	.st3{fill:url(#path2991_1_);}
</style>
<g>
	
		<linearGradient id="path2995-1-0_1_" gradientUnits="userSpaceOnUse" x1="-3017.7136" y1="2148.7231" x2="-3018.5137" y2="2150.5898" gradientTransform="matrix(62.5 0 0 62.5 188786.4219 -134213.5938)">
		<stop  offset="0" style="stop-color:#37AEE2"/>
		<stop  offset="1" style="stop-color:#1E96C8"/>
	</linearGradient>
	<path id="path2995-1-0" class="st0" d="M250,150c0,55.3-44.8,100-100,100S50,205.3,50,150S94.8,50,150,50S250,94.8,250,150z"/>
	<path id="path2993" class="st1" d="M131.7,195.8c-3.3,0-2.7-1.3-3.8-4.3l-9.5-31.3l59-36.8l6.9,1.8l-5.7,15.7L131.7,195.8z"/>
	<path id="path2989" class="st2" d="M131.7,195.8c2.5,0,3.6-1.2,5-2.5c2.2-2.1,30-29.2,30-29.2l-17.1-4.2l-15.8,10l-2.1,25V195.8z"
		/>
	
		<linearGradient id="path2991_1_" gradientUnits="userSpaceOnUse" x1="-2108.3755" y1="2649.2036" x2="-2106.3755" y2="2652.4036" gradientTransform="matrix(10.4167 0 0 10.4167 22119.75 -27442.75)">
		<stop  offset="0" style="stop-color:#EFF7FC"/>
		<stop  offset="1" style="stop-color:#FFFFFF"/>
	</linearGradient>
	<path id="path2991" class="st3" d="M133.3,170.3l40.3,29.8c4.6,2.5,7.9,1.3,9.1-4.3l16.4-77.3c1.7-6.8-2.6-9.8-7-7.8l-96.3,37.2
		c-6.6,2.7-6.5,6.3-1.2,7.9l24.8,7.8l57.3-36.1c2.7-1.7,5.2-0.8,3.2,1.1L133.3,170.3z"/>
</g>
</svg>
