<?xml version="1.0" encoding="utf-8"?>
<!-- Generator: Adobe Illustrator 21.0.0, SVG Export Plug-In . SVG Version: 6.00 Build 0)  -->
<svg version="1.1" id="Capa_1" xmlns="http://www.w3.org/2000/svg" xmlns:xlink="http://www.w3.org/1999/xlink" x="0px" y="0px"
	 width="300px" height="300px" viewBox="0 0 300 300" style="enable-background:new 0 0 300 300;" xml:space="preserve">
<style type="text/css">
	.st0{fill:#FFFFFF;}
</style>
<g>
	<path class="st0" d="M200,50H100c-27.6,0-50,22.4-50,50v100c0,27.6,22.4,50,50,50h100c27.6,0,50-22.4,50-50V100
		C250,72.4,227.6,50,200,50z M199.7,124.5c0.1,1.1,0.1,2.2,0.1,3.3c0,33.9-25.8,73-73,73c-14.5,0-27.9-4.3-39.2-11.9
		c2,0.3,4,0.4,6.1,0.4c12.1,0,23.1-4.1,31.9-11c-11.3-0.2-20.7-7.6-24-17.8c1.5,0.3,3.1,0.5,4.8,0.5c2.4,0,4.6-0.3,6.8-0.9
		c-11.8-2.3-20.6-12.7-20.6-25.1v-0.3c3.4,1.9,7.4,3.1,11.6,3.2c-6.9-4.5-11.4-12.4-11.4-21.3c0-4.7,1.3-9.1,3.5-12.9
		c12.7,15.5,31.6,25.7,52.9,26.8c-0.5-1.8-0.7-3.8-0.7-5.8c0-14.1,11.4-25.6,25.6-25.6c7.4,0,14,3.1,18.7,8.1
		c5.9-1.1,11.3-3.3,16.3-6.2c-1.9,6-6,11-11.3,14.2c5.2-0.6,10.1-2,14.7-4C209.1,116.4,204.7,120.9,199.7,124.5z"/>
</g>
</svg>
