<?xml version="1.0" encoding="utf-8"?>
<!-- Generator: Adobe Illustrator 21.0.0, SVG Export Plug-In . SVG Version: 6.00 Build 0)  -->
<svg version="1.1" id="Capa_1" xmlns="http://www.w3.org/2000/svg" xmlns:xlink="http://www.w3.org/1999/xlink" x="0px" y="0px"
	 width="300px" height="300px" viewBox="0 0 300 300" style="enable-background:new 0 0 300 300;" xml:space="preserve">
<style type="text/css">
	.st0{fill:#F5F5F5;}
	.st1{fill:#FF4B55;}
	.st2{fill:#41479B;}
</style>
<g>
	<path class="st0" d="M246.6,215.5H53.4c-1.9,0-3.4-1.5-3.4-3.4V87.9c0-1.9,1.5-3.4,3.4-3.4h193.1c1.9,0,3.4,1.5,3.4,3.4v124.1
		C250,214,248.5,215.5,246.6,215.5z"/>
	<g>
		<path class="st1" d="M250,94.6H50v-6.6c0-1.9,1.5-3.4,3.4-3.4h193.1c1.9,0,3.4,1.5,3.4,3.4L250,94.6L250,94.6z"/>
		<rect x="50" y="124.8" class="st1" width="200" height="10.1"/>
		<rect x="50" y="104.6" class="st1" width="200" height="10.1"/>
		<path class="st1" d="M250,155H53.4c-1.9,0-3.4-1.5-3.4-3.4V145h200V155z"/>
		<rect x="50" y="185.3" class="st1" width="200" height="10.1"/>
		<path class="st1" d="M246.6,215.5H53.4c-1.9,0-3.4-1.5-3.4-3.4v-6.6h200v6.6C250,214,248.5,215.5,246.6,215.5z"/>
		<rect x="50" y="165.1" class="st1" width="200" height="10.1"/>
	</g>
	<path class="st2" d="M139.7,84.5H53.4c-1.9,0-3.4,1.5-3.4,3.4v63.7c0,1.9,1.5,3.4,3.4,3.4h86.2c1.9,0,3.4-1.5,3.4-3.4V87.9
		C143.1,86,141.6,84.5,139.7,84.5z"/>
	<g>
		<path class="st0" d="M59.7,92.4l0.8,2.3l2.4,0c0.3,0,0.4,0.4,0.2,0.6l-1.9,1.4l0.7,2.3c0.1,0.3-0.2,0.5-0.5,0.4l-2-1.4l-2,1.4
			c-0.3,0.2-0.6-0.1-0.5-0.4l0.7-2.3l-1.9-1.4c-0.3-0.2-0.1-0.6,0.2-0.6l2.4,0l0.8-2.3C59.2,92.1,59.6,92.1,59.7,92.4z"/>
		<path class="st0" d="M59.7,104.4l0.8,2.3l2.4,0c0.3,0,0.4,0.4,0.2,0.6l-1.9,1.4l0.7,2.3c0.1,0.3-0.2,0.5-0.5,0.4l-2-1.4l-2,1.4
			c-0.3,0.2-0.6-0.1-0.5-0.4l0.7-2.3l-1.9-1.4c-0.3-0.2-0.1-0.6,0.2-0.6l2.4,0l0.8-2.3C59.2,104.1,59.6,104.1,59.7,104.4z"/>
		<path class="st0" d="M59.7,116.3l0.8,2.3l2.4,0c0.3,0,0.4,0.4,0.2,0.6l-1.9,1.4l0.7,2.3c0.1,0.3-0.2,0.5-0.5,0.4l-2-1.4l-2,1.4
			c-0.3,0.2-0.6-0.1-0.5-0.4l0.7-2.3l-1.9-1.4c-0.3-0.2-0.1-0.6,0.2-0.6l2.4,0l0.8-2.3C59.2,116,59.6,116,59.7,116.3z"/>
		<path class="st0" d="M59.7,128.3l0.8,2.3l2.4,0c0.3,0,0.4,0.4,0.2,0.6l-1.9,1.4l0.7,2.3c0.1,0.3-0.2,0.5-0.5,0.4l-2-1.4l-2,1.4
			c-0.3,0.2-0.6-0.1-0.5-0.4l0.7-2.3l-1.9-1.4c-0.3-0.2-0.1-0.6,0.2-0.6l2.4,0l0.8-2.3C59.2,128,59.6,128,59.7,128.3z"/>
		<path class="st0" d="M59.7,140.3l0.8,2.3l2.4,0c0.3,0,0.4,0.4,0.2,0.6l-1.9,1.4l0.7,2.3c0.1,0.3-0.2,0.5-0.5,0.4l-2-1.4l-2,1.4
			c-0.3,0.2-0.6-0.1-0.5-0.4l0.7-2.3l-1.9-1.4c-0.3-0.2-0.1-0.6,0.2-0.6l2.4,0l0.8-2.3C59.2,140,59.6,140,59.7,140.3z"/>
		<path class="st0" d="M69,98.3l0.8,2.3l2.4,0c0.3,0,0.4,0.4,0.2,0.6l-1.9,1.4l0.7,2.3c0.1,0.3-0.2,0.5-0.5,0.4l-2-1.4l-2,1.4
			c-0.3,0.2-0.6-0.1-0.5-0.4l0.7-2.3l-1.9-1.4c-0.3-0.2-0.1-0.6,0.2-0.6l2.4,0l0.8-2.3C68.5,98,68.9,98,69,98.3z"/>
		<path class="st0" d="M69,110.2l0.8,2.3l2.4,0c0.3,0,0.4,0.4,0.2,0.6l-1.9,1.4l0.7,2.3c0.1,0.3-0.2,0.5-0.5,0.4l-2-1.4l-2,1.4
			c-0.3,0.2-0.6-0.1-0.5-0.4l0.7-2.3l-1.9-1.4c-0.3-0.2-0.1-0.6,0.2-0.6l2.4,0l0.8-2.3C68.5,109.9,68.9,109.9,69,110.2z"/>
		<path class="st0" d="M69,122.2l0.8,2.3l2.4,0c0.3,0,0.4,0.4,0.2,0.6l-1.9,1.4l0.7,2.3c0.1,0.3-0.2,0.5-0.5,0.4l-2-1.4l-2,1.4
			c-0.3,0.2-0.6-0.1-0.5-0.4l0.7-2.3l-1.9-1.4c-0.3-0.2-0.1-0.6,0.2-0.6l2.4,0l0.8-2.3C68.5,121.9,68.9,121.9,69,122.2z"/>
		<path class="st0" d="M69,134.2l0.8,2.3l2.4,0c0.3,0,0.4,0.4,0.2,0.6l-1.9,1.4l0.7,2.3c0.1,0.3-0.2,0.5-0.5,0.4l-2-1.4l-2,1.4
			c-0.3,0.2-0.6-0.1-0.5-0.4l0.7-2.3l-1.9-1.4c-0.3-0.2-0.1-0.6,0.2-0.6l2.4,0l0.8-2.3C68.5,133.9,68.9,133.9,69,134.2z"/>
		<path class="st0" d="M78.3,92.4l0.8,2.3l2.4,0c0.3,0,0.4,0.4,0.2,0.6l-1.9,1.4l0.7,2.3c0.1,0.3-0.2,0.5-0.5,0.4L78,98l-2,1.4
			c-0.3,0.2-0.6-0.1-0.5-0.4l0.7-2.3l-1.9-1.4c-0.3-0.2-0.1-0.6,0.2-0.6l2.4,0l0.8-2.3C77.8,92.1,78.2,92.1,78.3,92.4z"/>
		<path class="st0" d="M78.3,104.4l0.8,2.3l2.4,0c0.3,0,0.4,0.4,0.2,0.6l-1.9,1.4l0.7,2.3c0.1,0.3-0.2,0.5-0.5,0.4l-2-1.4l-2,1.4
			c-0.3,0.2-0.6-0.1-0.5-0.4l0.7-2.3l-1.9-1.4c-0.3-0.2-0.1-0.6,0.2-0.6l2.4,0l0.8-2.3C77.8,104.1,78.2,104.1,78.3,104.4z"/>
		<path class="st0" d="M78.3,116.3l0.8,2.3l2.4,0c0.3,0,0.4,0.4,0.2,0.6l-1.9,1.4l0.7,2.3c0.1,0.3-0.2,0.5-0.5,0.4l-2-1.4l-2,1.4
			c-0.3,0.2-0.6-0.1-0.5-0.4l0.7-2.3l-1.9-1.4c-0.3-0.2-0.1-0.6,0.2-0.6l2.4,0l0.8-2.3C77.8,116,78.2,116,78.3,116.3z"/>
		<path class="st0" d="M78.3,128.3l0.8,2.3l2.4,0c0.3,0,0.4,0.4,0.2,0.6l-1.9,1.4l0.7,2.3c0.1,0.3-0.2,0.5-0.5,0.4l-2-1.4l-2,1.4
			c-0.3,0.2-0.6-0.1-0.5-0.4l0.7-2.3l-1.9-1.4c-0.3-0.2-0.1-0.6,0.2-0.6l2.4,0l0.8-2.3C77.8,128,78.2,128,78.3,128.3z"/>
		<path class="st0" d="M78.3,140.3l0.8,2.3l2.4,0c0.3,0,0.4,0.4,0.2,0.6l-1.9,1.4l0.7,2.3c0.1,0.3-0.2,0.5-0.5,0.4l-2-1.4l-2,1.4
			c-0.3,0.2-0.6-0.1-0.5-0.4l0.7-2.3l-1.9-1.4c-0.3-0.2-0.1-0.6,0.2-0.6l2.4,0l0.8-2.3C77.8,140,78.2,140,78.3,140.3z"/>
		<path class="st0" d="M87.6,98.3l0.8,2.3l2.4,0c0.3,0,0.4,0.4,0.2,0.6l-1.9,1.4l0.7,2.3c0.1,0.3-0.2,0.5-0.5,0.4l-2-1.4l-2,1.4
			c-0.3,0.2-0.6-0.1-0.5-0.4l0.7-2.3l-1.9-1.4c-0.3-0.2-0.1-0.6,0.2-0.6l2.4,0l0.8-2.3C87,98,87.5,98,87.6,98.3z"/>
		<path class="st0" d="M87.6,110.2l0.8,2.3l2.4,0c0.3,0,0.4,0.4,0.2,0.6l-1.9,1.4l0.7,2.3c0.1,0.3-0.2,0.5-0.5,0.4l-2-1.4l-2,1.4
			c-0.3,0.2-0.6-0.1-0.5-0.4l0.7-2.3l-1.9-1.4c-0.3-0.2-0.1-0.6,0.2-0.6l2.4,0l0.8-2.3C87,109.9,87.5,109.9,87.6,110.2z"/>
		<path class="st0" d="M87.6,122.2l0.8,2.3l2.4,0c0.3,0,0.4,0.4,0.2,0.6l-1.9,1.4l0.7,2.3c0.1,0.3-0.2,0.5-0.5,0.4l-2-1.4l-2,1.4
			c-0.3,0.2-0.6-0.1-0.5-0.4l0.7-2.3l-1.9-1.4c-0.3-0.2-0.1-0.6,0.2-0.6l2.4,0l0.8-2.3C87,121.9,87.5,121.9,87.6,122.2z"/>
		<path class="st0" d="M87.6,134.2l0.8,2.3l2.4,0c0.3,0,0.4,0.4,0.2,0.6l-1.9,1.4l0.7,2.3c0.1,0.3-0.2,0.5-0.5,0.4l-2-1.4l-2,1.4
			c-0.3,0.2-0.6-0.1-0.5-0.4l0.7-2.3l-1.9-1.4c-0.3-0.2-0.1-0.6,0.2-0.6l2.4,0l0.8-2.3C87,133.9,87.5,133.9,87.6,134.2z"/>
		<path class="st0" d="M96.9,92.4l0.8,2.3l2.4,0c0.3,0,0.4,0.4,0.2,0.6l-1.9,1.4L99,99c0.1,0.3-0.2,0.5-0.5,0.4l-2-1.4l-2,1.4
			c-0.3,0.2-0.6-0.1-0.5-0.4l0.7-2.3l-1.9-1.4c-0.3-0.2-0.1-0.6,0.2-0.6l2.4,0l0.8-2.3C96.3,92.1,96.8,92.1,96.9,92.4z"/>
		<path class="st0" d="M96.9,104.4l0.8,2.3l2.4,0c0.3,0,0.4,0.4,0.2,0.6l-1.9,1.4L99,111c0.1,0.3-0.2,0.5-0.5,0.4l-2-1.4l-2,1.4
			c-0.3,0.2-0.6-0.1-0.5-0.4l0.7-2.3l-1.9-1.4c-0.3-0.2-0.1-0.6,0.2-0.6l2.4,0l0.8-2.3C96.3,104.1,96.8,104.1,96.9,104.4z"/>
		<path class="st0" d="M96.9,116.3l0.8,2.3l2.4,0c0.3,0,0.4,0.4,0.2,0.6l-1.9,1.4L99,123c0.1,0.3-0.2,0.5-0.5,0.4l-2-1.4l-2,1.4
			c-0.3,0.2-0.6-0.1-0.5-0.4l0.7-2.3l-1.9-1.4c-0.3-0.2-0.1-0.6,0.2-0.6l2.4,0l0.8-2.3C96.3,116,96.8,116,96.9,116.3z"/>
		<path class="st0" d="M96.9,128.3l0.8,2.3l2.4,0c0.3,0,0.4,0.4,0.2,0.6l-1.9,1.4l0.7,2.3c0.1,0.3-0.2,0.5-0.5,0.4l-2-1.4l-2,1.4
			c-0.3,0.2-0.6-0.1-0.5-0.4l0.7-2.3l-1.9-1.4c-0.3-0.2-0.1-0.6,0.2-0.6l2.4,0l0.8-2.3C96.3,128,96.8,128,96.9,128.3z"/>
		<path class="st0" d="M96.9,140.3l0.8,2.3l2.4,0c0.3,0,0.4,0.4,0.2,0.6l-1.9,1.4l0.7,2.3c0.1,0.3-0.2,0.5-0.5,0.4l-2-1.4l-2,1.4
			c-0.3,0.2-0.6-0.1-0.5-0.4l0.7-2.3l-1.9-1.4c-0.3-0.2-0.1-0.6,0.2-0.6l2.4,0l0.8-2.3C96.3,140,96.8,140,96.9,140.3z"/>
		<path class="st0" d="M106.2,98.3l0.8,2.3l2.4,0c0.3,0,0.4,0.4,0.2,0.6l-1.9,1.4l0.7,2.3c0.1,0.3-0.2,0.5-0.5,0.4l-2-1.4l-2,1.4
			c-0.3,0.2-0.6-0.1-0.5-0.4l0.7-2.3l-1.9-1.4c-0.3-0.2-0.1-0.6,0.2-0.6l2.4,0l0.8-2.3C105.6,98,106.1,98,106.2,98.3z"/>
		<path class="st0" d="M106.2,110.2l0.8,2.3l2.4,0c0.3,0,0.4,0.4,0.2,0.6l-1.9,1.4l0.7,2.3c0.1,0.3-0.2,0.5-0.5,0.4l-2-1.4l-2,1.4
			c-0.3,0.2-0.6-0.1-0.5-0.4l0.7-2.3l-1.9-1.4c-0.3-0.2-0.1-0.6,0.2-0.6l2.4,0l0.8-2.3C105.6,109.9,106.1,109.9,106.2,110.2z"/>
		<path class="st0" d="M106.2,122.2l0.8,2.3l2.4,0c0.3,0,0.4,0.4,0.2,0.6l-1.9,1.4l0.7,2.3c0.1,0.3-0.2,0.5-0.5,0.4l-2-1.4l-2,1.4
			c-0.3,0.2-0.6-0.1-0.5-0.4l0.7-2.3l-1.9-1.4c-0.3-0.2-0.1-0.6,0.2-0.6l2.4,0l0.8-2.3C105.6,121.9,106.1,121.9,106.2,122.2z"/>
		<path class="st0" d="M106.2,134.2l0.8,2.3l2.4,0c0.3,0,0.4,0.4,0.2,0.6l-1.9,1.4l0.7,2.3c0.1,0.3-0.2,0.5-0.5,0.4l-2-1.4l-2,1.4
			c-0.3,0.2-0.6-0.1-0.5-0.4l0.7-2.3l-1.9-1.4c-0.3-0.2-0.1-0.6,0.2-0.6l2.4,0l0.8-2.3C105.6,133.9,106.1,133.9,106.2,134.2z"/>
		<path class="st0" d="M115.4,92.4l0.8,2.3l2.4,0c0.3,0,0.4,0.4,0.2,0.6l-1.9,1.4l0.7,2.3c0.1,0.3-0.2,0.5-0.5,0.4l-2-1.4l-2,1.4
			c-0.3,0.2-0.6-0.1-0.5-0.4l0.7-2.3l-1.9-1.4c-0.3-0.2-0.1-0.6,0.2-0.6l2.4,0l0.8-2.3C114.9,92.1,115.3,92.1,115.4,92.4z"/>
		<path class="st0" d="M115.4,104.4l0.8,2.3l2.4,0c0.3,0,0.4,0.4,0.2,0.6l-1.9,1.4l0.7,2.3c0.1,0.3-0.2,0.5-0.5,0.4l-2-1.4l-2,1.4
			c-0.3,0.2-0.6-0.1-0.5-0.4l0.7-2.3l-1.9-1.4c-0.3-0.2-0.1-0.6,0.2-0.6l2.4,0l0.8-2.3C114.9,104.1,115.3,104.1,115.4,104.4z"/>
		<path class="st0" d="M115.4,116.3l0.8,2.3l2.4,0c0.3,0,0.4,0.4,0.2,0.6l-1.9,1.4l0.7,2.3c0.1,0.3-0.2,0.5-0.5,0.4l-2-1.4l-2,1.4
			c-0.3,0.2-0.6-0.1-0.5-0.4l0.7-2.3l-1.9-1.4c-0.3-0.2-0.1-0.6,0.2-0.6l2.4,0l0.8-2.3C114.9,116,115.3,116,115.4,116.3z"/>
		<path class="st0" d="M115.4,128.3l0.8,2.3l2.4,0c0.3,0,0.4,0.4,0.2,0.6l-1.9,1.4l0.7,2.3c0.1,0.3-0.2,0.5-0.5,0.4l-2-1.4l-2,1.4
			c-0.3,0.2-0.6-0.1-0.5-0.4l0.7-2.3l-1.9-1.4c-0.3-0.2-0.1-0.6,0.2-0.6l2.4,0l0.8-2.3C114.9,128,115.3,128,115.4,128.3z"/>
		<path class="st0" d="M115.4,140.3l0.8,2.3l2.4,0c0.3,0,0.4,0.4,0.2,0.6l-1.9,1.4l0.7,2.3c0.1,0.3-0.2,0.5-0.5,0.4l-2-1.4l-2,1.4
			c-0.3,0.2-0.6-0.1-0.5-0.4l0.7-2.3l-1.9-1.4c-0.3-0.2-0.1-0.6,0.2-0.6l2.4,0l0.8-2.3C114.9,140,115.3,140,115.4,140.3z"/>
		<path class="st0" d="M124.7,98.3l0.8,2.3l2.4,0c0.3,0,0.4,0.4,0.2,0.6l-1.9,1.4l0.7,2.3c0.1,0.3-0.2,0.5-0.5,0.4l-2-1.4l-2,1.4
			c-0.3,0.2-0.6-0.1-0.5-0.4l0.7-2.3l-1.9-1.4c-0.3-0.2-0.1-0.6,0.2-0.6l2.4,0l0.8-2.3C124.2,98,124.6,98,124.7,98.3z"/>
		<path class="st0" d="M124.7,110.2l0.8,2.3l2.4,0c0.3,0,0.4,0.4,0.2,0.6l-1.9,1.4l0.7,2.3c0.1,0.3-0.2,0.5-0.5,0.4l-2-1.4l-2,1.4
			c-0.3,0.2-0.6-0.1-0.5-0.4l0.7-2.3l-1.9-1.4c-0.3-0.2-0.1-0.6,0.2-0.6l2.4,0l0.8-2.3C124.2,109.9,124.6,109.9,124.7,110.2z"/>
		<path class="st0" d="M124.7,122.2l0.8,2.3l2.4,0c0.3,0,0.4,0.4,0.2,0.6l-1.9,1.4l0.7,2.3c0.1,0.3-0.2,0.5-0.5,0.4l-2-1.4l-2,1.4
			c-0.3,0.2-0.6-0.1-0.5-0.4l0.7-2.3l-1.9-1.4c-0.3-0.2-0.1-0.6,0.2-0.6l2.4,0l0.8-2.3C124.2,121.9,124.6,121.9,124.7,122.2z"/>
		<path class="st0" d="M124.7,134.2l0.8,2.3l2.4,0c0.3,0,0.4,0.4,0.2,0.6l-1.9,1.4l0.7,2.3c0.1,0.3-0.2,0.5-0.5,0.4l-2-1.4l-2,1.4
			c-0.3,0.2-0.6-0.1-0.5-0.4l0.7-2.3l-1.9-1.4c-0.3-0.2-0.1-0.6,0.2-0.6l2.4,0l0.8-2.3C124.2,133.9,124.6,133.9,124.7,134.2z"/>
		<path class="st0" d="M134,92.4l0.8,2.3l2.4,0c0.3,0,0.4,0.4,0.2,0.6l-1.9,1.4l0.7,2.3c0.1,0.3-0.2,0.5-0.5,0.4l-2-1.4l-2,1.4
			c-0.3,0.2-0.6-0.1-0.5-0.4l0.7-2.3l-1.9-1.4c-0.3-0.2-0.1-0.6,0.2-0.6l2.4,0l0.8-2.3C133.5,92.1,133.9,92.1,134,92.4z"/>
		<path class="st0" d="M134,104.4l0.8,2.3l2.4,0c0.3,0,0.4,0.4,0.2,0.6l-1.9,1.4l0.7,2.3c0.1,0.3-0.2,0.5-0.5,0.4l-2-1.4l-2,1.4
			c-0.3,0.2-0.6-0.1-0.5-0.4l0.7-2.3l-1.9-1.4c-0.3-0.2-0.1-0.6,0.2-0.6l2.4,0l0.8-2.3C133.5,104.1,133.9,104.1,134,104.4z"/>
		<path class="st0" d="M134,116.3l0.8,2.3l2.4,0c0.3,0,0.4,0.4,0.2,0.6l-1.9,1.4l0.7,2.3c0.1,0.3-0.2,0.5-0.5,0.4l-2-1.4l-2,1.4
			c-0.3,0.2-0.6-0.1-0.5-0.4l0.7-2.3l-1.9-1.4c-0.3-0.2-0.1-0.6,0.2-0.6l2.4,0l0.8-2.3C133.5,116,133.9,116,134,116.3z"/>
		<path class="st0" d="M134,128.3l0.8,2.3l2.4,0c0.3,0,0.4,0.4,0.2,0.6l-1.9,1.4l0.7,2.3c0.1,0.3-0.2,0.5-0.5,0.4l-2-1.4l-2,1.4
			c-0.3,0.2-0.6-0.1-0.5-0.4l0.7-2.3l-1.9-1.4c-0.3-0.2-0.1-0.6,0.2-0.6l2.4,0l0.8-2.3C133.5,128,133.9,128,134,128.3z"/>
		<path class="st0" d="M134,140.3l0.8,2.3l2.4,0c0.3,0,0.4,0.4,0.2,0.6l-1.9,1.4l0.7,2.3c0.1,0.3-0.2,0.5-0.5,0.4l-2-1.4l-2,1.4
			c-0.3,0.2-0.6-0.1-0.5-0.4l0.7-2.3l-1.9-1.4c-0.3-0.2-0.1-0.6,0.2-0.6l2.4,0l0.8-2.3C133.5,140,133.9,140,134,140.3z"/>
	</g>
</g>
</svg>
