<?xml version="1.0" encoding="utf-8"?>
<!-- Generator: Adobe Illustrator 21.0.0, SVG Export Plug-In . SVG Version: 6.00 Build 0)  -->
<svg version="1.1" id="Capa_1" xmlns="http://www.w3.org/2000/svg" xmlns:xlink="http://www.w3.org/1999/xlink" x="0px" y="0px"
	 width="300px" height="300px" viewBox="0 0 300 300" style="enable-background:new 0 0 300 300;" xml:space="preserve">
<style type="text/css">
	.st0{fill:#F5F5F5;}
	.st1{fill:#FF4B55;}
	.st2{fill:#41479B;}
	.st3{fill:#FFE15A;}
	.st4{fill:#FFD350;}
	.st5{fill:#FFBE50;}
	.st6{fill:#A54B50;}
</style>
<g>
	<path class="st0" d="M105.2,186.1c-9.2,0-16.9-6-19.6-14.2H50v40.2c0,1.9,1.5,3.4,3.4,3.4h193.1c1.9,0,3.4-1.5,3.4-3.4v-40.2H124.8
		C122.1,180.1,114.3,186.1,105.2,186.1z"/>
	<path class="st1" d="M250,87.9c0-1.9-1.5-3.4-3.4-3.4H53.4c-1.9,0-3.4,1.5-3.4,3.4v40.2h35.4c-0.5,0-1,0.5-1,1v36.1
		c0,2.3,0.4,4.5,1,6.5c0,0,0,0,0,0c2.7,8.3,10.5,14.2,19.6,14.2s16.9-6,19.6-14.2c0,0,0,0,0,0c0.7-2.1,1-4.2,1-6.5v-36.1
		c0-0.5-0.4-1-1-1H250v0h0V87.9z M121.1,173.4l-2.4-1.9l1,2.9l-2,0.7l-1.9-5.7l-3.6-0.9l0.5-2l1.8,0.5l-2.3-4.1l-1.9,0.5l-2.4-2.8
		l-0.7,1.8l5.2,17.6c0,0-3.1,2.1-7.2,2.1c-4.1,0-7.2-2.1-7.2-2.1l5.2-17.6l-0.7-1.8l-2.4,2.8l-1.9-0.5l-2.3,4.1l1.8-0.5l0.5,2
		l-3.6,0.9l-1.9,5.7l-2-0.7l1-2.9l-2.4,1.9l-1.3-1.6l2.9-2.3h-2.2v-2.1h4.6l2.8-5.1l-0.2,0l2.1-6.2c-1.3,0.1-2.4,0.7-3.2,1.7
		c-3.9,5.7-8.2,6.5-8.2,6.5v-21.9c0-3.9,1.3-7.7,3.8-10.8c0.2-0.3,0.6-0.4,0.9-0.4c0.8,0,1.3,0.7,1.1,1.5l-0.3,1.1
		c-0.2,0.9,0.2,1.9,1.1,2.4l3.7,1.8v-0.5h1h1l1-1l-0.5-1h-2.6l2.1-1l0,0l-3.6-1l-1.6-2.1h3.7c-0.1-0.5,0.3-0.9,0.8-0.8l4.9,0.8
		l2.1,4.1l2.1-4.1l4.9-0.8c0.5-0.1,0.9,0.4,0.8,0.8h3.7l-1.6,2.1l-3.6,1l2.1,1h-2.6l-0.5,1l1,1h1h1v0.5l3.7-1.8
		c0.9-0.4,1.3-1.4,1.1-2.4l-0.3-1.1c-0.2-0.7,0.4-1.5,1.1-1.5c0.4,0,0.7,0.2,0.9,0.4c2.5,3.1,3.8,6.9,3.8,10.8v21.9
		c0,0-4.3-0.9-8.2-6.5c-0.7-1-1.9-1.7-3.2-1.7l2.1,6.2l-0.2,0l2.8,5.1h4.6v2.1h-2.2l2.9,2.3L121.1,173.4z M89.7,114.7
		c0.4-0.8,1.2-1.3,2-1.5c2.5-0.5,7.2-1.4,11.6-1.5c0.3-0.5,0.7-0.8,1.3-1v-1.1h-1v-1h1v-1h1v1h1v1h-1v1.1c0.5,0.1,1,0.5,1.3,1
		c4.5,0.1,9.1,1,11.6,1.5c0.9,0.2,1.6,0.7,2,1.5c0.4,0.8,0.5,1.8,0.2,2.6l-1.5,4.2c0.2,0.3,0.3,0.6,0.3,0.9c0,0.8-0.6,1.4-1.3,1.5
		l-0.2,1.5c0.3,0.2,0.6,0.4,0.6,0.7c0,0.4-0.3,0.7-0.8,0.8l-0.2,1.2H92.8l-0.2-1.2c-0.5-0.1-0.9-0.4-0.9-0.8c0-0.3,0.2-0.6,0.6-0.7
		l-0.2-1.4c-0.7-0.1-1.3-0.8-1.3-1.5c0-0.3,0.1-0.6,0.3-0.9l-1.5-4.2C89.2,116.4,89.3,115.5,89.7,114.7z"/>
	<path class="st1" d="M106.6,121.9h4.2c0.1-0.4,0.4-0.7,0.8-0.9l0.9-4.3c0.2-0.8-0.1-1.5-0.2-1.6c-1.3-0.5-3.8-1.3-6.1-1.4v7.6
		C106.4,121.4,106.6,121.7,106.6,121.9z"/>
	<path class="st1" d="M99.5,121.9h4.2c0.1-0.3,0.2-0.5,0.4-0.7v-7.6c-2.4,0.2-4.8,1-6.2,1.5c-0.1,0.1-0.3,0.8-0.2,1.6l0.9,4.3
		C99,121.2,99.3,121.5,99.5,121.9z"/>
	<path class="st1" d="M93.8,121.9h2.7c0-0.1,0.1-0.2,0.2-0.4l-0.9-4.4c-0.2-0.9-0.1-1.9,0.3-2.7c-1.5,0.2-2.9,0.5-3.8,0.7
		c-0.4,0.1-0.6,0.3-0.6,0.5c-0.2,0.3-0.2,0.6-0.1,0.9l1.6,4.5C93.4,121.2,93.7,121.6,93.8,121.9z"/>
	<path class="st1" d="M116.6,121.9c0.1-0.4,0.4-0.7,0.7-0.9l1.6-4.5c0.1-0.3,0.1-0.6-0.1-0.9c-0.1-0.1-0.3-0.4-0.6-0.5
		c-1-0.2-2.3-0.5-3.8-0.7c0.4,0.8,0.4,1.8,0.3,2.7l-0.9,4.4c0.1,0.1,0.1,0.2,0.2,0.4H116.6z"/>
	<path class="st2" d="M84.5,129.2c0-0.5,0.4-1,1-1H50v0v43.7h35.5c-0.7-2.1-1-4.2-1-6.5V129.2z"/>
	<path class="st2" d="M124.9,128.2c0.5,0,1,0.5,1,1v36.1c0,2.3-0.4,4.5-1,6.5H250v-43.7v0H124.9z"/>
	<path class="st3" d="M116.9,123.5h-3.5c-0.3,0.3-0.7,0.5-1.1,0.5c-0.4,0-0.8-0.2-1.1-0.5h-5c-0.3,0.3-0.7,0.5-1.1,0.5
		c-0.4,0-0.8-0.2-1.1-0.5h-5c-0.3,0.3-0.7,0.5-1.1,0.5s-0.8-0.2-1.1-0.5h-3.5c-0.3,0.3-0.7,0.5-1.1,0.5c-0.1,0-0.2,0-0.3,0l0.2,1.4
		c0.2-0.1,0.4-0.1,0.6-0.1c0.7,0,1.2,0.4,1.2,0.9c0,0.2-0.1,0.4-0.2,0.5H98c-0.1-0.1-0.2-0.3-0.2-0.5c0-0.5,0.5-0.9,1.2-0.9
		c0.7,0,1.2,0.4,1.2,0.9c0,0.2-0.1,0.4-0.2,0.5h4.1c-0.1-0.1-0.2-0.3-0.2-0.5c0-0.5,0.5-0.9,1.2-0.9s1.2,0.4,1.2,0.9
		c0,0.2-0.1,0.4-0.2,0.5h4.1c-0.1-0.1-0.2-0.3-0.2-0.5c0-0.5,0.5-0.9,1.2-0.9c0.7,0,1.2,0.4,1.2,0.9c0,0.2-0.1,0.4-0.2,0.5h4.1
		c-0.1-0.1-0.2-0.3-0.2-0.5c0-0.5,0.5-0.9,1.2-0.9c0.2,0,0.5,0.1,0.7,0.1l0.2-1.5c-0.1,0-0.2,0-0.3,0
		C117.6,124,117.2,123.8,116.9,123.5z"/>
	<polygon class="st3" points="92.6,126.9 92.8,128.2 92.6,126.9 	"/>
	<polygon class="st3" points="117.6,128.2 117.8,126.9 117.8,126.9 	"/>
	<path class="st4" d="M117.4,127c-0.4,0-0.8-0.1-1-0.4h-4.1c-0.2,0.2-0.6,0.4-1,0.4c-0.4,0-0.8-0.1-1-0.4h-4.1
		c-0.2,0.2-0.6,0.4-1,0.4c-0.4,0-0.8-0.1-1-0.4H100c-0.2,0.2-0.6,0.4-1,0.4c-0.4,0-0.8-0.1-1-0.4h-4.1c-0.2,0.2-0.6,0.4-1,0.4
		c-0.1,0-0.2,0-0.4,0l0.2,1.2h24.8l0.2-1.2C117.7,126.9,117.5,127,117.4,127z"/>
	<path class="st3" d="M105.7,110.6v-1.1h1v-1h-1v-1h-1v1h-1v1h1v1.1c0.2,0,0.3-0.1,0.5-0.1C105.4,110.6,105.5,110.6,105.7,110.6z"/>
	<path class="st3" d="M91,121.5c0.3-0.4,0.7-0.7,1.3-0.7c0.3,0,0.5,0.1,0.8,0.2l-1.6-4.5c-0.1-0.3-0.1-0.6,0.1-0.9
		c0.1-0.1,0.3-0.4,0.6-0.5c1-0.2,2.3-0.5,3.8-0.7c-0.4,0.8-0.4,1.8-0.3,2.7l0.9,4.4c0.3-0.4,0.8-0.7,1.3-0.7c0.2,0,0.5,0.1,0.7,0.2
		l-0.9-4.3c-0.2-0.8,0.1-1.5,0.2-1.6c1.3-0.5,3.8-1.3,6.2-1.5v7.6c0.3-0.2,0.6-0.4,1-0.4c0.4,0,0.8,0.2,1,0.4v-7.6
		c2.4,0.2,4.8,1,6.1,1.4c0.1,0.1,0.4,0.8,0.2,1.6l-0.9,4.3c0.2-0.1,0.4-0.2,0.7-0.2c0.6,0,1,0.3,1.3,0.7l0.9-4.4
		c0.2-0.9,0.1-1.9-0.3-2.7c1.5,0.2,2.9,0.5,3.8,0.7c0.4,0.1,0.6,0.3,0.6,0.5c0.2,0.3,0.2,0.6,0.1,0.9l-1.6,4.5
		c0.2-0.1,0.5-0.2,0.8-0.2c0.5,0,1,0.3,1.3,0.7l1.5-4.2c0.3-0.9,0.2-1.8-0.2-2.6c-0.4-0.8-1.2-1.3-2-1.5c-2.5-0.5-7.2-1.4-11.6-1.5
		c0.2,0.3,0.3,0.6,0.3,1c0,0.4-0.1,0.7-0.3,1h-3.6c-0.2-0.3-0.3-0.7-0.3-1c0-0.4,0.1-0.7,0.3-1c-4.5,0.1-9.1,1-11.6,1.5
		c-0.9,0.2-1.6,0.7-2,1.5c-0.4,0.8-0.5,1.8-0.2,2.6L91,121.5z"/>
	<path class="st4" d="M103.6,122.4c0-0.2,0-0.3,0.1-0.5h-4.2c0,0.1,0.1,0.3,0.1,0.5c0,0.4-0.2,0.8-0.5,1.1h5
		C103.8,123.2,103.6,122.8,103.6,122.4z"/>
	<path class="st4" d="M113.9,122.4c0,0.4-0.2,0.8-0.5,1.1h3.5c-0.3-0.3-0.5-0.7-0.5-1.1c0-0.2,0-0.3,0.1-0.5h-2.7
		C113.9,122.1,113.9,122.2,113.9,122.4z"/>
	<path class="st4" d="M110.8,122.4c0-0.2,0-0.3,0.1-0.5h-4.2c0,0.1,0.1,0.3,0.1,0.5c0,0.4-0.2,0.8-0.5,1.1h5
		C111,123.2,110.8,122.8,110.8,122.4z"/>
	<path class="st4" d="M96.4,122.4c0-0.2,0-0.3,0.1-0.5h-2.7c0,0.1,0.1,0.3,0.1,0.5c0,0.4-0.2,0.8-0.5,1.1h3.5
		C96.6,123.2,96.4,122.8,96.4,122.4z"/>
	<polygon class="st3" points="93.2,167.5 88.6,167.5 88.6,169.5 90.8,169.5 88,171.8 89.3,173.4 91.7,171.5 90.7,174.4 92.7,175 
		94.6,169.4 98.2,168.5 97.7,166.5 95.9,166.9 98.1,162.9 96,162.3 	"/>
	<polygon class="st3" points="119.5,169.5 121.7,169.5 121.7,167.5 117.2,167.5 114.3,162.3 112.2,162.9 114.5,166.9 112.7,166.5 
		112.2,168.5 115.7,169.4 117.6,175 119.6,174.4 118.6,171.5 121.1,173.4 122.4,171.8 	"/>
	<path class="st0" d="M114.5,162.3l-2.1-6.2c1.3,0.1,2.4,0.7,3.2,1.7c3.9,5.7,8.2,6.5,8.2,6.5v-21.9c0-3.9-1.3-7.7-3.8-10.8
		c-0.2-0.3-0.6-0.4-0.9-0.4c-0.8,0-1.3,0.7-1.1,1.5l0.3,1.1c0.2,0.9-0.2,1.9-1.1,2.4l-3.7,1.8v0.5v13.4c0,4.6-3.7,8.3-8.3,8.3
		s-8.3-3.7-8.3-8.3v-13.4V138l-3.7-1.8c-0.9-0.4-1.3-1.4-1.1-2.4l0.3-1.1c0.2-0.7-0.4-1.5-1.1-1.5c-0.4,0-0.7,0.2-0.9,0.4
		c-2.5,3.1-3.8,6.9-3.8,10.8v21.9c0,0,4.3-0.9,8.2-6.5c0.7-1,1.9-1.7,3.2-1.7l-2.1,6.2l0.2,0l2.1,0.5l1.9,0.5l2.4-2.8l0.7,1.8
		l-5.2,17.6c0,0,3.1,2.1,7.2,2.1c4.1,0,7.2-2.1,7.2-2.1l-5.2-17.6l0.7-1.8l2.4,2.8l1.9-0.5l2.1-0.5L114.5,162.3z"/>
	<path class="st3" d="M97.4,131.3h-3.7l1.6,2.1l3.6,1l-1.5-2.9C97.5,131.4,97.5,131.3,97.4,131.3z"/>
	<polygon class="st3" points="96.9,135.4 99.5,135.4 99,134.4 	"/>
	<path class="st3" d="M110.9,135.4h2.6l-2.1-1l3.6-1l1.6-2.1h-3.7c0,0.1,0,0.1-0.1,0.2L110.9,135.4z"/>
	<path class="st0" d="M110.3,136.4l0.5-1l2-4c0-0.1,0-0.1,0.1-0.2c0.1-0.5-0.3-0.9-0.8-0.8l-4.9,0.8l-2.1,4.1l-2.1-4.1l-4.9-0.8
		c-0.5-0.1-0.9,0.4-0.8,0.8c0,0.1,0,0.1,0.1,0.2l1.5,2.9l0,0l0.5,1l0.5,1l-1,1h12.4L110.3,136.4z"/>
	<path class="st5" d="M103.7,121.9c0,0.1-0.1,0.3-0.1,0.5c0,0.4,0.2,0.8,0.5,1.1c0.3,0.3,0.7,0.5,1.1,0.5c0.4,0,0.8-0.2,1.1-0.5
		c0.3-0.3,0.5-0.7,0.5-1.1c0-0.2,0-0.3-0.1-0.5c-0.1-0.3-0.2-0.5-0.4-0.7c-0.3-0.2-0.6-0.4-1-0.4c-0.4,0-0.8,0.2-1,0.4
		C103.9,121.4,103.8,121.7,103.7,121.9z"/>
	<path class="st2" d="M106.1,126.6c0.1-0.1,0.2-0.3,0.2-0.5c0-0.5-0.5-0.9-1.2-0.9s-1.2,0.4-1.2,0.9c0,0.2,0.1,0.4,0.2,0.5
		c0.2,0.2,0.6,0.4,1,0.4C105.6,127,105.9,126.8,106.1,126.6z"/>
	<path class="st1" d="M100,126.6c0.1-0.1,0.2-0.3,0.2-0.5c0-0.5-0.5-0.9-1.2-0.9c-0.7,0-1.2,0.4-1.2,0.9c0,0.2,0.1,0.4,0.2,0.5
		c0.2,0.2,0.6,0.4,1,0.4C99.4,127,99.8,126.8,100,126.6z"/>
	<path class="st2" d="M92.9,127c0.4,0,0.8-0.1,1-0.4c0.1-0.1,0.2-0.3,0.2-0.5c0-0.5-0.5-0.9-1.2-0.9c-0.2,0-0.4,0-0.6,0.1
		c-0.4,0.1-0.6,0.4-0.6,0.7c0,0.4,0.4,0.7,0.9,0.8h0C92.7,126.9,92.8,127,92.9,127z"/>
	<path class="st2" d="M116.2,126.1c0,0.2,0.1,0.4,0.2,0.5c0.2,0.2,0.6,0.4,1,0.4c0.1,0,0.3,0,0.4-0.1c0,0,0,0,0,0
		c0.5-0.1,0.8-0.4,0.8-0.8c0-0.3-0.2-0.6-0.6-0.7c-0.2-0.1-0.4-0.1-0.7-0.1C116.7,125.2,116.2,125.6,116.2,126.1z"/>
	<path class="st1" d="M112.3,126.6c0.1-0.1,0.2-0.3,0.2-0.5c0-0.5-0.5-0.9-1.2-0.9c-0.7,0-1.2,0.4-1.2,0.9c0,0.2,0.1,0.4,0.2,0.5
		c0.2,0.2,0.6,0.4,1,0.4C111.7,127,112,126.8,112.3,126.6z"/>
	<path class="st5" d="M110.9,121.9c0,0.1-0.1,0.3-0.1,0.5c0,0.4,0.2,0.8,0.5,1.1c0.3,0.3,0.7,0.5,1.1,0.5c0.4,0,0.8-0.2,1.1-0.5
		c0.3-0.3,0.5-0.7,0.5-1.1c0-0.2,0-0.3-0.1-0.5c0-0.1-0.1-0.3-0.2-0.4c-0.3-0.4-0.8-0.7-1.3-0.7c-0.2,0-0.5,0.1-0.7,0.2
		C111.3,121.2,111,121.5,110.9,121.9z"/>
	<path class="st5" d="M118,120.8c-0.3,0-0.5,0.1-0.8,0.2c-0.3,0.2-0.6,0.5-0.7,0.9c0,0.1-0.1,0.3-0.1,0.5c0,0.4,0.2,0.8,0.5,1.1
		c0.3,0.3,0.7,0.5,1.1,0.5c0.1,0,0.2,0,0.3,0c0.7-0.1,1.3-0.8,1.3-1.5c0-0.3-0.1-0.6-0.3-0.9C119,121.1,118.6,120.8,118,120.8z"/>
	<path class="st5" d="M96.4,122.4c0,0.4,0.2,0.8,0.5,1.1c0.3,0.3,0.7,0.5,1.1,0.5s0.8-0.2,1.1-0.5c0.3-0.3,0.5-0.7,0.5-1.1
		c0-0.2,0-0.3-0.1-0.5c-0.1-0.4-0.4-0.8-0.8-0.9c-0.2-0.1-0.4-0.2-0.7-0.2c-0.6,0-1,0.3-1.3,0.7c-0.1,0.1-0.1,0.2-0.2,0.4
		C96.5,122.1,96.4,122.2,96.4,122.4z"/>
	<path class="st5" d="M93.4,123.5c0.3-0.3,0.5-0.7,0.5-1.1c0-0.2,0-0.3-0.1-0.5c-0.1-0.4-0.4-0.7-0.7-0.9c-0.2-0.1-0.5-0.2-0.8-0.2
		c-0.5,0-1,0.3-1.3,0.7c-0.2,0.3-0.3,0.6-0.3,0.9c0,0.8,0.6,1.4,1.3,1.5c0.1,0,0.2,0,0.3,0C92.7,124,93.1,123.8,93.4,123.5z"/>
	<path class="st2" d="M103.1,112.6c0,0.4,0.1,0.7,0.3,1h3.6c0.2-0.3,0.3-0.7,0.3-1c0-0.4-0.1-0.7-0.3-1c-0.3-0.5-0.7-0.8-1.3-1
		c-0.2,0-0.3-0.1-0.5-0.1c-0.2,0-0.4,0-0.5,0.1c-0.5,0.1-1,0.5-1.3,1C103.2,111.9,103.1,112.3,103.1,112.6z"/>
	<path class="st1" d="M106.7,150.1v8.9c-0.1,0-0.2,0-0.3,0c3.4-0.6,5.9-3.6,5.9-7.1v-1.8H106.7z"/>
	<path class="st1" d="M103.6,147c0-4.5,0-8.5,0-8.5h-5.7v8.5H103.6z"/>
	<rect x="106.7" y="138.5" class="st1" width="5.7" height="8.5"/>
	<path class="st1" d="M106,159.1c-0.1,0-0.1,0-0.2,0C105.9,159.1,105.9,159.1,106,159.1z"/>
	<path class="st1" d="M103.6,150.1h-5.7v1.8c0,3.6,2.6,6.5,5.9,7.1c-0.1,0-0.2,0-0.2,0C103.6,159,103.6,154.8,103.6,150.1z"/>
	<path class="st1" d="M104.5,159.2c-0.1,0-0.1,0-0.2,0C104.4,159.1,104.5,159.1,104.5,159.2z"/>
	<path class="st1" d="M105.2,159.2C105.2,159.2,105.2,159.2,105.2,159.2C105.2,159.2,105.2,159.2,105.2,159.2
		C105.2,159.2,105.2,159.2,105.2,159.2C105.2,159.2,105.2,159.2,105.2,159.2z"/>
	<path class="st6" d="M96.9,151.9c0,4.6,3.7,8.3,8.3,8.3s8.3-3.7,8.3-8.3v-13.4V138v-0.5h-1h-1H99h-1h-1v0.5v0.5V151.9z M97.9,147
		L97.9,147l0-8.5h5.7v0h3.1v0h5.7v8.5h0v3.1h0v1.8c0,3.6-2.6,6.5-5.9,7.1c-0.2,0-0.3,0.1-0.5,0.1c-0.1,0-0.1,0-0.2,0
		c-0.2,0-0.4,0-0.6,0c0,0,0,0,0,0c0,0,0,0,0,0c-0.2,0-0.4,0-0.6,0c-0.1,0-0.1,0-0.2,0c-0.2,0-0.3,0-0.5-0.1
		c-3.4-0.6-5.9-3.6-5.9-7.1v-1.8h0V147z"/>
	<path class="st0" d="M103.6,150.1c0,4.6,0,8.9,0,8.9c0.1,0,0.2,0,0.2,0c0.2,0,0.3,0.1,0.5,0.1c0.1,0,0.1,0,0.2,0c0.2,0,0.4,0,0.6,0
		c0,0,0,0,0,0c0,0,0,0,0,0c0.2,0,0.4,0,0.6,0c0.1,0,0.1,0,0.2,0c0.2,0,0.3,0,0.5-0.1c0.1,0,0.2,0,0.3,0v-8.9h5.7h0V147h0h-5.7v-8.5
		v0h-3.1v0c0,0,0,4,0,8.5h-5.7h0v3.1h0H103.6z"/>
</g>
</svg>
