<?xml version="1.0" encoding="utf-8"?>
<!-- Generator: Adobe Illustrator 21.0.0, SVG Export Plug-In . SVG Version: 6.00 Build 0)  -->
<svg version="1.1" id="Capa_3" xmlns="http://www.w3.org/2000/svg" xmlns:xlink="http://www.w3.org/1999/xlink" x="0px" y="0px"
	 width="290px" height="200px" viewBox="0 0 290 200" style="enable-background:new 0 0 290 200;" xml:space="preserve">
<style type="text/css">
	.st0{opacity:0.4;}
	.st1{fill:#21E6C1;}
	.st2{opacity:0.5;}
	.st3{fill:#278EA5;}
	.st4{opacity:0.8;}
	.st5{opacity:0.4;fill:#21E6C1;}
	.st6{fill:#E6216C;}
	.st7{opacity:0.4;fill:#E6216C;}
</style>
<g>
	<g>
		<g>
			<g class="st0">
				<path class="st1" d="M37.7,178.5c-0.8,0-1.5-0.7-1.5-1.5V77c0-0.8,0.7-1.5,1.5-1.5h189.6c0.8,0,1.5,0.7,1.5,1.5v100
					c0,0.8-0.7,1.5-1.5,1.5H37.7z M214.8,156c-4.7,0-8.5,3.8-8.5,8.5s3.8,8.5,8.5,8.5c4.7,0,8.5-3.8,8.5-8.5S219.4,156,214.8,156z
					 M50.1,156c-4.7,0-8.5,3.8-8.5,8.5s3.8,8.5,8.5,8.5s8.5-3.8,8.5-8.5S54.8,156,50.1,156z M169.9,88.5
					c-21.2,0-38.4,17.3-38.4,38.5c0,21.2,17.2,38.5,38.4,38.5s38.4-17.3,38.4-38.5C208.3,105.8,191,88.5,169.9,88.5z M70.6,155h42.6
					v-15.5H70.6V155z M70.6,134.7h42.6v-15.5H70.6V134.7z M70.6,114.5h42.6V98.9H70.6V114.5z M214.8,81c-4.7,0-8.5,3.8-8.5,8.5
					s3.8,8.5,8.5,8.5c4.7,0,8.5-3.8,8.5-8.5S219.4,81,214.8,81z M50.1,81c-4.7,0-8.5,3.8-8.5,8.5s3.8,8.5,8.5,8.5s8.5-3.8,8.5-8.5
					S54.8,81,50.1,81z M169.9,133.5c-3.6,0-6.5-2.9-6.5-6.5c0-3.6,2.9-6.5,6.5-6.5c3.6,0,6.5,2.9,6.5,6.5
					C176.3,130.6,173.4,133.5,169.9,133.5z"/>
			</g>
			<path class="st1" d="M227.2,76.5c0.3,0,0.5,0.2,0.5,0.5v100c0,0.3-0.2,0.5-0.5,0.5H37.7c-0.3,0-0.5-0.2-0.5-0.5V77
				c0-0.3,0.2-0.5,0.5-0.5H227.2 M214.8,99c5.2,0,9.5-4.3,9.5-9.5S220,80,214.8,80s-9.5,4.3-9.5,9.5S209.5,99,214.8,99 M50.1,99
				c5.2,0,9.5-4.3,9.5-9.5S55.4,80,50.1,80s-9.5,4.3-9.5,9.5S44.9,99,50.1,99 M169.9,166.5c21.7,0,39.4-17.7,39.4-39.5
				c0-21.8-17.7-39.5-39.4-39.5s-39.4,17.7-39.4,39.5C130.4,148.8,148.1,166.5,169.9,166.5 M69.6,115.5h2h40.6h2v-2V99.9v-2h-2H71.6
				h-2v2v13.5V115.5 M69.6,135.7h2h40.6h2v-2v-13.5v-2h-2H71.6h-2v2v13.5V135.7 M69.6,156h2h40.6h2v-2v-13.5v-2h-2H71.6h-2v2V154
				V156 M214.8,174c5.2,0,9.5-4.3,9.5-9.5c0-5.2-4.3-9.5-9.5-9.5s-9.5,4.3-9.5,9.5C205.3,169.7,209.5,174,214.8,174 M50.1,174
				c5.2,0,9.5-4.3,9.5-9.5c0-5.2-4.3-9.5-9.5-9.5s-9.5,4.3-9.5,9.5C40.6,169.7,44.9,174,50.1,174 M169.9,121.5c3,0,5.5,2.5,5.5,5.5
				c0,3-2.5,5.5-5.5,5.5s-5.5-2.5-5.5-5.5C164.4,123.9,166.8,121.5,169.9,121.5 M227.2,74.5H37.7c-1.4,0-2.5,1.1-2.5,2.5v100
				c0,1.4,1.1,2.5,2.5,2.5h189.6c1.4,0,2.5-1.1,2.5-2.5V77C229.7,75.6,228.6,74.5,227.2,74.5L227.2,74.5z M214.8,97
				c-4.1,0-7.5-3.4-7.5-7.5c0-4.1,3.4-7.5,7.5-7.5c4.1,0,7.5,3.4,7.5,7.5C222.2,93.6,218.9,97,214.8,97L214.8,97z M50.1,97
				c-4.1,0-7.5-3.4-7.5-7.5c0-4.1,3.4-7.5,7.5-7.5c4.1,0,7.5,3.4,7.5,7.5C57.6,93.6,54.3,97,50.1,97L50.1,97z M169.9,164.5
				c-20.7,0-37.4-16.8-37.4-37.5c0-20.7,16.8-37.5,37.4-37.5s37.4,16.8,37.4,37.5C207.3,147.7,190.5,164.5,169.9,164.5L169.9,164.5z
				 M71.6,113.5V99.9h40.6v13.5H71.6L71.6,113.5z M71.6,133.7v-13.5h40.6v13.5H71.6L71.6,133.7z M71.6,154v-13.5h40.6V154H71.6
				L71.6,154z M214.8,172c-4.1,0-7.5-3.4-7.5-7.5c0-4.1,3.4-7.5,7.5-7.5c4.1,0,7.5,3.4,7.5,7.5C222.2,168.6,218.9,172,214.8,172
				L214.8,172z M50.1,172c-4.1,0-7.5-3.4-7.5-7.5c0-4.1,3.4-7.5,7.5-7.5c4.1,0,7.5,3.4,7.5,7.5C57.6,168.6,54.3,172,50.1,172
				L50.1,172z M169.9,119.5c-4.1,0-7.5,3.4-7.5,7.5C162.4,122.8,165.7,119.5,169.9,119.5c4.1,0,7.5,3.4,7.5,7.5
				C177.3,122.8,174,119.5,169.9,119.5L169.9,119.5z M169.9,119.5c-4.1,0-7.5,3.4-7.5,7.5C162.4,122.8,165.7,119.5,169.9,119.5
				c4.1,0,7.5,3.4,7.5,7.5C177.3,122.8,174,119.5,169.9,119.5L169.9,119.5z M169.9,119.5c-4.1,0-7.5,3.4-7.5,7.5
				C162.4,122.8,165.7,119.5,169.9,119.5c4.1,0,7.5,3.4,7.5,7.5C177.3,122.8,174,119.5,169.9,119.5L169.9,119.5z M169.9,119.5
				c-4.1,0-7.5,3.4-7.5,7.5C162.4,122.8,165.7,119.5,169.9,119.5c4.1,0,7.5,3.4,7.5,7.5C177.3,122.8,174,119.5,169.9,119.5
				L169.9,119.5z M169.9,119.5c-4.1,0-7.5,3.4-7.5,7.5C162.4,122.8,165.7,119.5,169.9,119.5c4.1,0,7.5,3.4,7.5,7.5
				C177.3,122.8,174,119.5,169.9,119.5L169.9,119.5z M169.9,119.5c-4.1,0-7.5,3.4-7.5,7.5C162.4,122.8,165.7,119.5,169.9,119.5
				c4.1,0,7.5,3.4,7.5,7.5C177.3,122.8,174,119.5,169.9,119.5L169.9,119.5z M169.9,119.5c-4.1,0-7.5,3.4-7.5,7.5
				C162.4,122.8,165.7,119.5,169.9,119.5c4.1,0,7.5,3.4,7.5,7.5C177.3,122.8,174,119.5,169.9,119.5L169.9,119.5z M169.9,119.5
				c-4.1,0-7.5,3.4-7.5,7.5C162.4,122.8,165.7,119.5,169.9,119.5c4.1,0,7.5,3.4,7.5,7.5C177.3,122.8,174,119.5,169.9,119.5
				L169.9,119.5z M169.9,119.5c-4.1,0-7.5,3.4-7.5,7.5C162.4,122.8,165.7,119.5,169.9,119.5c4.1,0,7.5,3.4,7.5,7.5
				C177.3,122.8,174,119.5,169.9,119.5L169.9,119.5z M169.9,119.5c-4.1,0-7.5,3.4-7.5,7.5C162.4,122.8,165.7,119.5,169.9,119.5
				c4.1,0,7.5,3.4,7.5,7.5C177.3,122.8,174,119.5,169.9,119.5L169.9,119.5z M169.9,119.5c-4.1,0-7.5,3.4-7.5,7.5
				C162.4,122.8,165.7,119.5,169.9,119.5c4.1,0,7.5,3.4,7.5,7.5C177.3,122.8,174,119.5,169.9,119.5L169.9,119.5z M169.9,119.5
				c-4.1,0-7.5,3.4-7.5,7.5C162.4,122.8,165.7,119.5,169.9,119.5c4.1,0,7.5,3.4,7.5,7.5C177.3,122.8,174,119.5,169.9,119.5
				L169.9,119.5z M169.9,119.5c-4.1,0-7.5,3.4-7.5,7.5C162.4,122.8,165.7,119.5,169.9,119.5c4.1,0,7.5,3.4,7.5,7.5
				C177.3,122.8,174,119.5,169.9,119.5L169.9,119.5z M169.9,119.5c-4.1,0-7.5,3.4-7.5,7.5C162.4,122.8,165.7,119.5,169.9,119.5
				c4.1,0,7.5,3.4,7.5,7.5C177.3,122.8,174,119.5,169.9,119.5L169.9,119.5z M169.9,119.5c-4.1,0-7.5,3.4-7.5,7.5
				c0,4.1,3.4,7.5,7.5,7.5c4.1,0,7.5-3.4,7.5-7.5C177.3,122.8,174,119.5,169.9,119.5L169.9,119.5z M177.3,127c0,4.1-3.3,7.5-7.5,7.5
				c-4.1,0-7.5-3.4-7.5-7.5c0,4.1,3.4,7.5,7.5,7.5C174,134.5,177.3,131.1,177.3,127L177.3,127z M177.3,127c0,4.1-3.3,7.5-7.5,7.5
				c-4.1,0-7.5-3.4-7.5-7.5c0,4.1,3.4,7.5,7.5,7.5C174,134.5,177.3,131.1,177.3,127L177.3,127z M177.3,127c0,4.1-3.3,7.5-7.5,7.5
				c-4.1,0-7.5-3.4-7.5-7.5c0,4.1,3.4,7.5,7.5,7.5C174,134.5,177.3,131.1,177.3,127L177.3,127z M177.3,127c0,4.1-3.3,7.5-7.5,7.5
				c-4.1,0-7.5-3.4-7.5-7.5c0,4.1,3.4,7.5,7.5,7.5C174,134.5,177.3,131.1,177.3,127L177.3,127z M177.3,127c0,4.1-3.3,7.5-7.5,7.5
				c-4.1,0-7.5-3.4-7.5-7.5c0,4.1,3.4,7.5,7.5,7.5C174,134.5,177.3,131.1,177.3,127L177.3,127z M177.3,127c0,4.1-3.3,7.5-7.5,7.5
				c-4.1,0-7.5-3.4-7.5-7.5c0,4.1,3.4,7.5,7.5,7.5C174,134.5,177.3,131.1,177.3,127L177.3,127z M177.3,127c0,4.1-3.3,7.5-7.5,7.5
				c-4.1,0-7.5-3.4-7.5-7.5c0,4.1,3.4,7.5,7.5,7.5C174,134.5,177.3,131.1,177.3,127L177.3,127z M177.3,127c0,4.1-3.3,7.5-7.5,7.5
				c-4.1,0-7.5-3.4-7.5-7.5c0,4.1,3.4,7.5,7.5,7.5C174,134.5,177.3,131.1,177.3,127L177.3,127z M177.3,127c0,4.1-3.3,7.5-7.5,7.5
				c-4.1,0-7.5-3.4-7.5-7.5c0,4.1,3.4,7.5,7.5,7.5C174,134.5,177.3,131.1,177.3,127L177.3,127z M177.3,127c0,4.1-3.3,7.5-7.5,7.5
				c-4.1,0-7.5-3.4-7.5-7.5c0,4.1,3.4,7.5,7.5,7.5C174,134.5,177.3,131.1,177.3,127L177.3,127z M177.3,127c0,4.1-3.3,7.5-7.5,7.5
				c-4.1,0-7.5-3.4-7.5-7.5c0,4.1,3.4,7.5,7.5,7.5C174,134.5,177.3,131.1,177.3,127L177.3,127z M177.3,127c0,4.1-3.3,7.5-7.5,7.5
				c-4.1,0-7.5-3.4-7.5-7.5c0,4.1,3.4,7.5,7.5,7.5C174,134.5,177.3,131.1,177.3,127L177.3,127z M177.3,127c0,4.1-3.3,7.5-7.5,7.5
				c-4.1,0-7.5-3.4-7.5-7.5c0,4.1,3.4,7.5,7.5,7.5C174,134.5,177.3,131.1,177.3,127L177.3,127z M177.3,127c0,4.1-3.3,7.5-7.5,7.5
				c-4.1,0-7.5-3.4-7.5-7.5c0,4.1,3.4,7.5,7.5,7.5C174,134.5,177.3,131.1,177.3,127L177.3,127z"/>
		</g>
		<g class="st2">
			<ellipse class="st3" cx="214.8" cy="164.5" rx="7.5" ry="7.5"/>
		</g>
		<g class="st2">
			<ellipse class="st3" cx="214.8" cy="89.5" rx="7.5" ry="7.5"/>
		</g>
		<g class="st2">
			<g>
				<path class="st3" d="M169.9,89.5c-20.7,0-37.4,16.8-37.4,37.5s16.8,37.5,37.4,37.5s37.4-16.8,37.4-37.5S190.5,89.5,169.9,89.5z
					 M169.9,134.5c-4.1,0-7.5-3.4-7.5-7.5c0-4.1,3.4-7.5,7.5-7.5c4.1,0,7.5,3.4,7.5,7.5C177.3,131.1,174,134.5,169.9,134.5z"/>
			</g>
		</g>
		<g class="st2">
			<ellipse class="st3" cx="50.1" cy="164.5" rx="7.5" ry="7.5"/>
		</g>
		<g class="st2">
			<rect x="71.6" y="140.5" class="st3" width="40.6" height="13.5"/>
		</g>
		<g class="st2">
			<rect x="71.6" y="120.2" class="st3" width="40.6" height="13.5"/>
		</g>
		<g class="st2">
			<rect x="71.6" y="99.9" class="st3" width="40.6" height="13.5"/>
		</g>
		<g class="st2">
			<ellipse class="st3" cx="50.1" cy="89.5" rx="7.5" ry="7.5"/>
		</g>
		<g>
			<g class="st4">
				<ellipse class="st5" cx="169.9" cy="127" rx="6.5" ry="6.5"/>
				<path class="st1" d="M169.9,121.5c3,0,5.5,2.5,5.5,5.5c0,3-2.5,5.5-5.5,5.5s-5.5-2.5-5.5-5.5
					C164.4,123.9,166.8,121.5,169.9,121.5 M169.9,119.5c-4.1,0-7.5,3.4-7.5,7.5c0,4.1,3.4,7.5,7.5,7.5c4.1,0,7.5-3.4,7.5-7.5
					C177.3,122.8,174,119.5,169.9,119.5L169.9,119.5z"/>
			</g>
		</g>
		<g class="st4">
			<path class="st5" d="M20.2,193.5c-0.8,0-1.5-0.7-1.5-1.5v-17.5c0-1.9-1.6-3.5-3.5-3.5h-2.4c-0.8,0-1.5-0.7-1.5-1.5v-45
				c0-0.8,0.7-1.5,1.5-1.5h2.4c1.9,0,3.5-1.6,3.5-3.5V119c0-1.9-1.6-3.5-3.5-3.5h-2.4c-0.8,0-1.5-0.7-1.5-1.5V96.5
				c0-0.8,0.7-1.5,1.5-1.5h2.4c1.9,0,3.5-1.6,3.5-3.5V62c0-0.8,0.7-1.5,1.5-1.5h5c0.8,0,1.5,0.7,1.5,1.5v130c0,0.8-0.7,1.5-1.5,1.5
				H20.2z"/>
			<path class="st1" d="M25.2,61.5c0.3,0,0.5,0.2,0.5,0.5v130c0,0.3-0.2,0.5-0.5,0.5h-5c-0.3,0-0.5-0.2-0.5-0.5v-17.5
				c0-2.5-2-4.5-4.5-4.5h-2.4c-0.3,0-0.5-0.2-0.5-0.5v-45c0-0.3,0.2-0.5,0.5-0.5h2.4c2.5,0,4.5-2,4.5-4.5V119c0-2.5-2-4.5-4.5-4.5
				h-2.4c-0.3,0-0.5-0.2-0.5-0.5V96.5c0-0.3,0.2-0.5,0.5-0.5h2.4c2.5,0,4.5-2,4.5-4.5V62c0-0.3,0.2-0.5,0.5-0.5H25.2 M25.2,59.5h-5
				c-1.4,0-2.5,1.1-2.5,2.5v29.5c0,1.4-1.1,2.5-2.5,2.5h-2.4c-1.4,0-2.5,1.1-2.5,2.5V114c0,1.4,1.1,2.5,2.5,2.5h2.4
				c1.4,0,2.5,1.1,2.5,2.5v0.5c0,1.4-1.1,2.5-2.5,2.5h-2.4c-1.4,0-2.5,1.1-2.5,2.5v45c0,1.4,1.1,2.5,2.5,2.5h2.4
				c1.4,0,2.5,1.1,2.5,2.5V192c0,1.4,1.1,2.5,2.5,2.5h5c1.4,0,2.5-1.1,2.5-2.5V62C27.7,60.6,26.6,59.5,25.2,59.5L25.2,59.5z"/>
		</g>
		<g>
			<g class="st4">
				<path class="st5" d="M71.9,192.5c-0.8,0-1.5-0.7-1.5-1.5v-5.5h42.9v5.5c0,0.8-0.7,1.5-1.5,1.5H71.9z"/>
				<path class="st1" d="M112.3,186.5v4.5c0,0.3-0.2,0.5-0.5,0.5H71.9c-0.3,0-0.5-0.2-0.5-0.5v-4.5H112.3 M114.3,184.5H69.4v6.5
					c0,1.4,1.1,2.5,2.5,2.5h39.9c1.4,0,2.5-1.1,2.5-2.5V184.5L114.3,184.5z"/>
			</g>
			<g class="st4">
				<path class="st5" d="M141.3,192.5c-0.8,0-1.5-0.7-1.5-1.5v-5.5h60v5.5c0,0.8-0.7,1.5-1.5,1.5H141.3z"/>
				<path class="st1" d="M198.9,186.5v4.5c0,0.3-0.2,0.5-0.5,0.5h-57c-0.3,0-0.5-0.2-0.5-0.5v-4.5H198.9 M200.9,184.5h-62v6.5
					c0,1.4,1.1,2.5,2.5,2.5h57c1.4,0,2.5-1.1,2.5-2.5V184.5L200.9,184.5z"/>
			</g>
		</g>
	</g>
	<g>
		<g>
			<g class="st0">
				<path class="st6" d="M238.9,125.5v-18.1c12-6.9,19.4-19.6,19.4-33.4c0-21.2-17.2-38.5-38.4-38.5c-18,0-33.7,12.6-37.5,30.2H86.2
					V24c0-0.8,0.7-1.5,1.5-1.5h189.6c0.8,0,1.5,0.7,1.5,1.5v100c0,0.8-0.7,1.5-1.5,1.5H238.9z M264.8,103c-4.7,0-8.5,3.8-8.5,8.5
					s3.8,8.5,8.5,8.5s8.5-3.8,8.5-8.5S269.4,103,264.8,103z M120.6,61.5h42.6V46h-42.6V61.5z M264.8,28c-4.7,0-8.5,3.8-8.5,8.5
					s3.8,8.5,8.5,8.5s8.5-3.8,8.5-8.5S269.4,28,264.8,28z M100.1,28c-4.7,0-8.5,3.8-8.5,8.5s3.8,8.5,8.5,8.5c4.7,0,8.5-3.8,8.5-8.5
					S104.8,28,100.1,28z"/>
			</g>
			<path class="st6" d="M277.2,23.5c0.3,0,0.5,0.2,0.5,0.5v100c0,0.3-0.2,0.5-0.5,0.5h-37.3V108c12-7.1,19.4-20,19.4-34
				c0-21.8-17.7-39.5-39.4-39.5c-18.2,0-34.1,12.6-38.3,30.2H87.2V24c0-0.3,0.2-0.5,0.5-0.5H277.2 M264.8,46c5.2,0,9.5-4.3,9.5-9.5
				S270,27,264.8,27s-9.5,4.3-9.5,9.5S259.5,46,264.8,46 M100.1,46c5.2,0,9.5-4.3,9.5-9.5s-4.3-9.5-9.5-9.5c-5.2,0-9.5,4.3-9.5,9.5
				S94.9,46,100.1,46 M119.6,62.5h2h40.6h2v-2V47v-2h-2h-40.6h-2v2v13.5V62.5 M264.8,121c5.2,0,9.5-4.3,9.5-9.5s-4.3-9.5-9.5-9.5
				s-9.5,4.3-9.5,9.5S259.5,121,264.8,121 M277.2,21.5H87.7c-1.4,0-2.5,1.1-2.5,2.5v42.7h98c3.4-17.2,18.5-30.2,36.7-30.2
				c20.7,0,37.4,16.8,37.4,37.5c0,14.2-7.8,26.5-19.4,32.9v19.6h39.3c1.4,0,2.5-1.1,2.5-2.5V24C279.7,22.6,278.6,21.5,277.2,21.5
				L277.2,21.5z M264.8,44c-4.1,0-7.5-3.4-7.5-7.5c0-4.1,3.4-7.5,7.5-7.5c4.1,0,7.5,3.4,7.5,7.5C272.2,40.7,268.9,44,264.8,44
				L264.8,44z M100.1,44c-4.1,0-7.5-3.4-7.5-7.5c0-4.1,3.4-7.5,7.5-7.5c4.1,0,7.5,3.4,7.5,7.5C107.6,40.7,104.3,44,100.1,44
				L100.1,44z M121.6,60.5V47h40.6v13.5H121.6L121.6,60.5z M264.8,119c-4.1,0-7.5-3.4-7.5-7.5c0-4.1,3.4-7.5,7.5-7.5
				c4.1,0,7.5,3.4,7.5,7.5C272.2,115.7,268.9,119,264.8,119L264.8,119z"/>
		</g>
		<g class="st4">
			<path class="st7" d="M68.7,65.7c-0.2-1.8-1.7-3.2-3.5-3.2h-2.5c-0.8,0-1.5-0.7-1.5-1.5V43.6c0-0.8,0.7-1.5,1.5-1.5h2.5
				c1.9,0,3.5-1.6,3.5-3.5V9c0-0.8,0.7-1.5,1.5-1.5h5c0.8,0,1.5,0.7,1.5,1.5v56.7H68.7z"/>
			<path class="st6" d="M75.2,8.5c0.3,0,0.5,0.2,0.5,0.5v55.7h-6.2c-0.6-1.8-2.3-3.2-4.3-3.2h-2.4c-0.3,0-0.5-0.2-0.5-0.5V43.6
				c0-0.3,0.2-0.5,0.5-0.5h2.4c2.5,0,4.5-2,4.5-4.5V9c0-0.3,0.2-0.5,0.5-0.5H75.2 M75.2,6.5h-5c-1.4,0-2.5,1.1-2.5,2.5v29.5
				c0,1.4-1.1,2.5-2.5,2.5h-2.4c-1.4,0-2.5,1.1-2.5,2.5v17.5c0,1.4,1.1,2.5,2.5,2.5h2.4c1.4,0,2.5,1.1,2.5,2.5v0.5
				c0,0.1,0,0.1,0,0.2h10V9C77.7,7.6,76.6,6.5,75.2,6.5L75.2,6.5z"/>
		</g>
		<g>
			<g class="st4">
				<path class="st7" d="M238.9,139.5v-7h11v5.5c0,0.8-0.7,1.5-1.5,1.5H238.9z"/>
				<path class="st6" d="M248.9,133.5v4.5c0,0.3-0.2,0.5-0.5,0.5h-8.5v-5H248.9 M250.9,131.5h-13v9h10.5c1.4,0,2.5-1.1,2.5-2.5
					V131.5L250.9,131.5z"/>
			</g>
		</g>
	</g>
</g>
</svg>
