<?xml version="1.0" encoding="utf-8"?>
<!-- Generator: Adobe Illustrator 21.0.0, SVG Export Plug-In . SVG Version: 6.00 Build 0)  -->
<svg version="1.1" id="Capa_2" xmlns="http://www.w3.org/2000/svg" xmlns:xlink="http://www.w3.org/1999/xlink" x="0px" y="0px"
	 width="300px" height="100px" viewBox="0 0 300 100" style="enable-background:new 0 0 300 100;" xml:space="preserve">
<style type="text/css">
	.st0{fill:#25B135;}
</style>
<g id="bisq_logo_green">
	<g id="Group-3-Copy" transform="translate(88.000000, 2.000000)">
		<g id="Group-2">
			<rect id="Rectangle-path" x="72.9" y="34.3" class="st0" width="7.5" height="28.3"/>
			<path id="Shape" class="st0" d="M96.2,45.4l-2.8-0.6c-1.8-0.4-2.8-1.2-2.8-2.4s1.4-2.2,3.4-2.2c1.5-0.2,3,0.6,3.7,2.1l5.4-3.6
				c-1.9-3.1-5.3-5-8.9-4.9c-2.5,0-4.9,0.7-6.9,2.1c-2.1,1.5-3.4,3.8-3.5,6.4c-0.1,4.3,2.8,7.6,7.9,9c0.8,0.2,1.8,0.5,2.9,0.7
				c2.4,0.5,2.8,1.3,2.8,2.2c0,1.6-1.4,2.5-3.6,2.4c-2.4,0-4.5-1.3-5.6-3.4l-4.5,4c1.9,3.7,5.8,6,9.9,5.9c5.7,0.1,10.5-3.9,10.7-8.8
				C104.2,49.7,101.5,46.6,96.2,45.4z"/>
			<path id="Shape_1_" class="st0" d="M56.1,33.8c-2.7,0-5.3,0.9-7.3,2.6V24.2h-7.2v22.6c-0.1,0.6-0.1,1.3,0,2v0.4
				c0,3.9,1.6,7.6,4.3,10.4c2.3,2.2,5.3,3.6,8.4,4h1.8c3.8,0,7.5-1.5,10.3-4.2c2.8-2.9,4.4-6.7,4.3-10.7c0-4-1.5-7.9-4.3-10.7
				C63.6,35.3,59.9,33.8,56.1,33.8z M56.2,56.9c-0.4,0-0.8,0-1.2-0.1h-0.2c-0.1,0-0.3,0-0.4-0.1c-3-0.6-5.2-3-5.6-6
				c-0.1-0.7-0.2-1.4-0.2-2.1c-0.1-2.1,0.6-4.2,2.1-5.7c1.4-1.5,3.4-2.4,5.5-2.5c5.5,0,7.5,4.3,7.5,8.2
				C63.5,52.6,61.7,56.8,56.2,56.9L56.2,56.9z"/>
			<path id="Shape_2_" class="st0" d="M134.7,48c0-3.9-1.6-7.6-4.3-10.3c-2.3-2.2-5.3-3.6-8.4-4h-1.8c-3.8,0-7.5,1.5-10.3,4.1
				c-2.8,2.9-4.4,6.7-4.3,10.7c0,4,1.5,7.8,4.3,10.7c2.7,2.7,6.4,4.2,10.3,4.1c2.7,0,5.3-0.9,7.3-2.6V73h7.2V48z M119.9,56.6
				c-5.5,0-7.5-4.3-7.5-8.2s2-8.2,7.3-8.2c0.4,0,0.8,0,1.2,0.1h0.2c0.1,0,0.3,0,0.4,0.1c3.5,0.8,5.9,3.9,5.9,7.4v0.5
				c0.2,2.1-0.6,4.2-2,5.7C124,55.7,122,56.6,119.9,56.6z"/>
		</g>
	</g>
	<path id="Combined-Shape" class="st0" d="M114.4,35.8c1.5,3.4,1.9,4.1,3.1,7.5c0.7,2.2-0.7,5.3-6.3,2.6c-4-1.9-6.9-3.3-4.5-6.5
		c1.2-1.5,2.5-3,3.9-4.3C112.1,33.8,113.1,33,114.4,35.8z M113.1,57.4c2.9-2.9,7,0.3,4.2,4.2c-5.8,7.9-15.8,11-24.9,7.9
		S77.3,57.6,77.3,47.7c0-5.9,1.9-10.9,5.7-15.4c3.6-4.1,9-7.3,14.3-7.4c7.5,0,10.8,6.5,8.2,10.2c-2.9,4.1-6.4,3.7-8.9,2
		c0,0-3.5-2.5-4.5-3.3c-1.6-1.2-3.3-1.2-4,0.7c-1.1,3.6-1.7,5.8-2.5,9.4c-0.4,1.8-0.6,3.6-0.6,5.5c0,3.4,1.5,6.6,4.1,8.7
		c1.8,1.7,3.6,3.1,5.6,4.5c1.6,1.1,3.5,1.7,5.4,1.7h0.2c1.9,0,3.8-0.6,5.4-1.7C108.2,61,110.7,59.3,113.1,57.4z M92,53.3
		c-1.1-0.4-3.5-2.5-2.8-4c0.3-0.9,2.3-1.1,3-1.1C96,48.1,96.1,54.7,92,53.3z M98.6,60.4c-0.5-0.4-1.4-1.3-2.2-2
		c-0.2-0.2-0.3-0.6-0.1-0.9c0.2-0.3,0.5-0.4,0.8-0.4c1.4-0.1,2.8-0.1,4.2,0c0.3,0,0.6,0.2,0.7,0.5c0.1,0.3,0.1,0.6-0.2,0.8
		c-0.8,0.7-1.7,1.6-2.1,2c-0.2,0.1-0.4,0.2-0.6,0.2C99,60.6,98.8,60.5,98.6,60.4z M107,53.3c-4.1,1.5-4-5.2-0.2-5.1
		c0.6,0,2.6,0.2,3,1.1C110.5,50.8,108.1,52.9,107,53.3z"/>
</g>
</svg>
