<?xml version="1.0" encoding="utf-8"?>
<!-- Generator: Adobe Illustrator 21.0.0, SVG Export Plug-In . SVG Version: 6.00 Build 0)  -->
<svg version="1.1" id="Capa_2" xmlns="http://www.w3.org/2000/svg" xmlns:xlink="http://www.w3.org/1999/xlink" x="0px" y="0px"
	 width="300px" height="100px" viewBox="0 0 300 100" style="enable-background:new 0 0 300 100;" xml:space="preserve">
<style type="text/css">
	.st0{fill:#3F51B5;}
</style>
<g>
	<path class="st0" d="M89.6,35h5.5v29.8h-5.5V35z M133.4,40.7V35h-29.6v5.7h11.8v23.9h5.7V40.7H133.4z M171.5,52.8V47h-24.1v-6.3
		h24.1V35h-29.6v29.8h5.5v-12H171.5z M180.2,35h29.6v5.7h-29.6V35z M180.2,47h29.6v5.7h-29.6V47z M180.2,59.1h29.6v5.7h-29.6V59.1z
		 M223.7,35H216l12.5,14.9L216,64.8h7.6l8.6-10.3l8.6,10.3h7.6l-12.5-14.9L248.6,35h-7.6l-8.6,10.3L223.7,35z M51.4,35.1V41H72
		c2.3,0.2,3.5,1.2,3.5,2.9c0,1.7-1.2,2.7-3.5,3.1H51.4v6H72c2.3,0.1,3.5,1,3.5,2.9s-1.2,3-3.5,3.4H51.4V65H72c4.6,0,7.5-1.8,8.6-5.3
		s0.6-6.6-1.7-9.1v-1c2.2-3,2.8-6.1,1.7-9.5s-4-5-8.6-5H51.4z"/>
</g>
</svg>
