<?xml version="1.0" encoding="utf-8"?>
<!-- Generator: Adobe Illustrator 21.0.0, SVG Export Plug-In . SVG Version: 6.00 Build 0)  -->
<svg version="1.1" id="Capa_2" xmlns="http://www.w3.org/2000/svg" xmlns:xlink="http://www.w3.org/1999/xlink" x="0px" y="0px"
	 width="300px" height="100px" viewBox="0 0 300 100" style="enable-background:new 0 0 300 100;" xml:space="preserve">
<style type="text/css">
	.st0{fill:#1AA2A0;}
</style>
<g>
	<path id="CREX" class="st0" d="M120.2,47.6l4-4.8c-1.4-1.4-3-2.5-4.8-3.3c-1.8-0.8-3.8-1.2-5.7-1.2c-2.6,0-5,0.6-7.1,1.8
		c-4.3,2.3-6.9,6.8-6.8,11.7c0,2.6,0.6,4.9,1.8,6.9c1.2,2,2.9,3.7,4.9,4.9c2.1,1.2,4.4,1.8,7,1.8c2,0,4-0.5,5.8-1.3
		c1.9-0.8,3.6-2.1,5.1-3.6l-4-4.3c-0.9,0.9-2,1.7-3.1,2.2c-1,0.5-2.2,0.8-3.4,0.8c-1.3,0-2.5-0.3-3.6-1c-1.1-0.7-2-1.6-2.6-2.7
		c-1.2-2.4-1.2-5.3,0-7.7c0.6-1.1,1.5-2.1,2.6-2.7c1.1-0.7,2.3-1,3.6-1c1.2,0,2.4,0.3,3.5,1C118.4,45.7,119.4,46.6,120.2,47.6
		L120.2,47.6z M153.5,64.9l-5.4-8.5c1.5-0.7,2.7-1.9,3.5-3.3c0.8-1.4,1.2-3.1,1.2-5.1c0-2.9-1-5.2-2.9-6.8s-4.6-2.4-8-2.4h-11.7
		v26.1h6.8v-7.2h5.1l3.8,7.2L153.5,64.9L153.5,64.9z M136.9,44.2h5c1.4,0,2.5,0.3,3.2,1c0.8,0.7,1.1,1.7,1.1,2.9
		c0,1.3-0.4,2.3-1.1,3c-0.8,0.7-1.8,1-3.2,1h-5V44.2L136.9,44.2z M160.1,64.9h21v-5.4h-14.2v-4.9l12.5,0v-5.4h-12.5v-4.9h13.8v-5.4
		h-20.6V64.9L160.1,64.9z M195.1,51.6l-9.3,13.3h8l5.4-8.1l5.6,8.1h8.2l-9.4-13.6l8.6-12.5h-8.1l-4.9,7.4l-4.9-7.4h-7.9L195.1,51.6z
		 M226.3,59.4l5.3-5.4c1.6-1.6,2.9-3.1,3.7-4.6c0.9-1.4,1.3-2.8,1.3-4.2c0-1.3-0.4-2.5-1.2-3.6c-0.8-1.1-2-1.9-3.2-2.4
		c-1.5-0.6-3.1-0.9-4.7-0.9c-3.6,0-7.2,1.3-10.8,3.9l2.6,5c1.1-1,2.4-1.8,3.7-2.4c1.3-0.6,2.4-0.9,3.5-0.9c0.9,0,1.7,0.2,2.2,0.6
		c0.5,0.4,0.8,1,0.8,1.7c0,0.5-0.2,1.2-0.7,2c-0.5,0.8-1.1,1.6-1.8,2.3l-9.5,9.8l0,4.5h19.9v-5.5H226.3L226.3,59.4z M259.7,54.1
		v-5.6h-6.3v5.6h-4.9l7-15.3h-6.5l-7.4,15.9v4.6h11.8v5.6h6.3v-5.6h3.4v-5.2H259.7L259.7,54.1z"/>
	<path id="CREX24" class="st0" d="M79.4,32.1L79.4,32.1C79.3,32,79.3,32,79.4,32.1c-1.5-1.2-3.4-1.8-5.7-1.4
		c-4.3,0.7-4.3,3.4-4.3,3.4s0,0.2-1.4,1.5c-1.3,1.3-1.9,3.5-1.9,3.5s2.1-0.2,4.3-0.3c2.2-0.1,3.1,1.3,3.5,1.9c0.4,0.6,0,2.3,0,2.3
		c0.1-0.1,0.3-0.1,0.5-0.1c0.2,0.1,0,0.5-0.3,1s-0.5,1-1.7,2c-0.7,0.5-1.3,1.1-1.9,1.7c-0.6,0.5-1.2,1.1-1.7,1.7
		c0,0,2.1-0.4,1.3,0.9c-0.8,1.3-5.6,3.2-9.6-0.8c-4.7-4.7-5.6-9.6-5.5-15c0.2-7.7,4.6-9.5,4.6-9.5s-1.7-0.1-4,1.9
		c-0.9,0.8-4.4,4.5-2.7,13.8c-0.7-0.7-1.4-1.6-2-4c-1.7-6.6,0.4-10,0.4-10s-5,5.1-3.1,11.1c0.8,2.3,1.7,4.5,3,6.6c0,0-4-3.7-4.9-7
		c-0.9-3.1-0.5-6.6-0.5-6.6s-5.5,7.6-0.2,15.3c1.3,1.9,2.8,3.6,4.5,5.2c-0.5-0.2-3.4-1.3-6.4-4.7c-3.1-3.5-3.5-8.8-3.5-8.8
		s-2.2,6.9,0.2,10.6c2.6,4.1,7.9,7.2,8.5,7.5c-0.5-0.3-4.9-2.7-7.6-2.7c-2.8,0-4.2-4.5-4.2-4.5s0.4,5.9,3.4,9.6c3,3.7,5.2,5,7.7,4.7
		s5.1,0.9,5.1,0.9s-3.2-0.5-5.3,0c-2,0.5-6.1-0.5-6.6-0.6c-0.4-0.2-0.8-0.3-1.1-0.5c7.1,12,22.7,16,34.7,8.9
		c7.7-4.6,12.4-12.8,12.4-21.8C87.2,42.3,84.2,36,79.4,32.1L79.4,32.1z"/>
</g>
</svg>
