<?xml version="1.0" encoding="utf-8"?>
<!-- Generator: Adobe Illustrator 21.0.0, SVG Export Plug-In . SVG Version: 6.00 Build 0)  -->
<svg version="1.1" id="Capa_1" xmlns="http://www.w3.org/2000/svg" xmlns:xlink="http://www.w3.org/1999/xlink" x="0px" y="0px"
	 width="300px" height="300px" viewBox="0 0 300 300" style="enable-background:new 0 0 300 300;" xml:space="preserve">
<style type="text/css">
	.st0{fill:#C8414B;}
	.st1{fill:#FFD250;}
	.st2{fill:#F5F5F5;}
	.st3{fill:#FAB446;}
	.st4{fill:#FFB441;}
	.st5{fill:#5064AA;}
	.st6{fill:#FFA0D2;}
</style>
<g>
	<path class="st0" d="M246.6,84.5H53.4c-1.9,0-3.4,1.5-3.4,3.4v24.1h200v75.9H50v24.1c0,1.9,1.5,3.4,3.4,3.4h193.1
		c1.9,0,3.4-1.5,3.4-3.4V87.9C250,86,248.5,84.5,246.6,84.5z"/>
	<path class="st1" d="M105.2,124.1c-1,0-1.7,0.8-1.7,1.7c0,0.3,0.1,0.5,0.2,0.8c1.1-0.3,2.1-0.6,3.2-0.7c0,0,0-0.1,0-0.1
		C106.9,124.9,106.1,124.1,105.2,124.1z"/>
	<path class="st1" d="M119,127.6c-0.6,0-1.2,0.3-1.5,0.9c1,0.6,1.9,1.3,2.7,2.1c0.3-0.3,0.5-0.7,0.5-1.2
		C120.7,128.4,119.9,127.6,119,127.6z"/>
	<path class="st1" d="M112.1,124.1c-0.9,0-1.7,0.8-1.7,1.7v0v0c0,0,0,0,0,0.1c1.1,0.1,2.2,0.3,3.2,0.7c0.1-0.2,0.2-0.5,0.2-0.8
		C113.8,124.9,113,124.1,112.1,124.1z"/>
	<path class="st1" d="M98.3,127.6c-1,0-1.7,0.8-1.7,1.7c0,0.5,0.2,0.9,0.5,1.2c0.8-0.8,1.7-1.5,2.7-2.1
		C99.5,127.9,98.9,127.6,98.3,127.6z"/>
	<path class="st1" d="M250,112.1H50v75.9h200V112.1z M141.4,174.1L141.4,174.1l0,3.4h-13.8v-3.4h3.4v-1.7v-1.7v-9.8l-1.7-0.6v-3.4
		l1.7,0.6v-4h-5.2v3.4v8.6c0,1.3-0.3,2.5-0.8,3.6c0,0,0,0.1-0.1,0.1c-0.1,0.1-0.1,0.2-0.2,0.4c-1.9,3.8-6.6,7.9-16.2,7.9
		c-9.6,0-14.3-4.1-16.2-7.9c-0.1-0.1-0.1-0.2-0.2-0.4c0,0,0-0.1-0.1-0.1c-0.5-1.1-0.8-2.3-0.8-3.6v-8.6v-3.4h-5.2v4l1.7-0.6v3.4
		l-1.7,0.6v9.8h1.7v3.4h1.7v3.4H75.9v-3.4h1.7v-3.4h1.7v-7.5l-1.7,0.6v-3.4l1.7-0.6v-6.3h-1.7V150h1.7v-6.9h-1.7v-3.4h2.9l-0.6-2.8
		c-0.3-1.2,0.7-2.4,1.9-2.4h2.1c1.2,0,2.2,1.1,1.9,2.4l-0.6,2.8h2.9v3.4h-1.7v6.9h5.2v-6.9c0-1.9,1.5-3.4,3.4-3.4h3.4v-3.4h0
		l-2.3-2.3c-1.7-0.8-2.9-2.6-2.9-4.6c0-2.9,2.3-5.2,5.2-5.2c0.7,0,1.3,0.1,1.9,0.4c0.6-2.2,2.6-3.8,5-3.8c0.6,0,1.2,0.1,1.7,0.3v-2
		h3.4v2c0.5-0.2,1.1-0.3,1.7-0.3c2.4,0,4.4,1.6,5,3.8c0.6-0.2,1.2-0.4,1.9-0.4c2.9,0,5.2,2.3,5.2,5.2c0,2-1.2,3.8-2.9,4.6l-2.3,2.3
		h0v3.4h3.4c1.9,0,3.4,1.5,3.4,3.4v6.9h5.2v-6.9h-1.7v-3.4h2.9l-0.6-2.8c-0.3-1.2,0.7-2.4,1.9-2.4h2.1c1.2,0,2.2,1.1,1.9,2.4
		l-0.6,2.8h2.9v3.4h-1.7v6.9h1.7v3.4h-1.7v6.3l1.7,0.6v3.4l-1.7-0.6v7.5h3.4V174.1z"/>
	<path class="st0" d="M137.4,136.8c0.3-1.2-0.7-2.4-1.9-2.4h-2.1c-1.2,0-2.2,1.1-1.9,2.4l0.6,2.8h4.6L137.4,136.8z"/>
	<polygon class="st2" points="137.9,153.4 131,153.4 131,157.5 137.9,159.8 	"/>
	<rect x="131" y="143.1" class="st2" width="6.9" height="6.9"/>
	<polygon class="st2" points="137.9,163.2 131,160.9 131,170.7 137.9,170.7 	"/>
	<polygon class="st3" points="139.7,143.1 139.7,139.7 136.8,139.7 132.2,139.7 129.3,139.7 129.3,143.1 131,143.1 137.9,143.1 	"/>
	<polygon class="st0" points="139.7,153.4 139.7,150 137.9,150 131,150 125.9,150 125.9,153.4 131,153.4 137.9,153.4 	"/>
	<polygon class="st0" points="139.7,163.8 139.7,160.3 137.9,159.8 131,157.5 129.3,156.9 129.3,160.3 131,160.9 137.9,163.2 	"/>
	<path class="st0" d="M85.7,136.8c0.3-1.2-0.7-2.4-1.9-2.4h-2.1c-1.2,0-2.2,1.1-1.9,2.4l0.6,2.8h4.6L85.7,136.8z"/>
	<path class="st2" d="M125.9,143.1c0-1.9-1.5-3.4-3.4-3.4H119v0h-10.3v12.1c0,0,0,0,0,0c2.9,0,5.2,2.3,5.2,5.2c0,0,0,0,0,0h12.1
		v-3.4V150V143.1z M120.7,150c0,1.9-1.5,3.4-3.4,3.4s-3.4-1.5-3.4-3.4v-3.4c0-1.9,1.5-3.4,3.4-3.4s3.4,1.5,3.4,3.4V150z"/>
	<path class="st2" d="M117.2,174.1c-4.8,0-8.6-3.9-8.6-8.6c0,4.8-3.9,8.6-8.6,8.6c-0.6,0-1.2-0.1-1.7-0.2v0c-0.1,0-0.2-0.1-0.3-0.1
		c-0.2,0-0.3-0.1-0.5-0.1c-0.1,0-0.3-0.1-0.4-0.1c-2-0.7-3.6-2.1-4.6-3.9c1.9,3.8,6.6,7.9,16.2,7.9c9.6,0,14.3-4.1,16.2-7.9
		C123.3,172.3,120.5,174.1,117.2,174.1z"/>
	<path class="st0" d="M117.2,167.2c1,0,1.7-0.8,1.7-1.7v-1.7h-3.4v1.7C115.5,166.5,116.3,167.2,117.2,167.2z"/>
	<path class="st0" d="M112.4,160.3h10v5.2c0,2.9-2.3,5.2-5.2,5.2c-2.9,0-5.2-2.3-5.2-5.2v-4.8c-0.9,0.8-2.1,1.3-3.4,1.3c0,0,0,0,0,0
		v3.5c0,4.8,3.9,8.6,8.6,8.6c3.3,0,6.1-1.8,7.6-4.5c0.1-0.1,0.1-0.2,0.2-0.4c0,0,0.1-0.1,0.1-0.1c0.5-1.1,0.8-2.3,0.8-3.6v-8.6
		h-12.1C113.8,158.2,113.3,159.4,112.4,160.3z"/>
	<path class="st3" d="M97.1,173.6c-0.8-0.3-1.6-0.7-2.2-1.2v-15.5h-3.4v8.6c0,1.3,0.3,2.5,0.8,3.6c0,0,0,0.1,0.1,0.1
		c0.1,0.1,0.1,0.2,0.2,0.4C93.4,171.5,95.1,172.9,97.1,173.6z"/>
	<path class="st3" d="M105.2,172.4c-1,0.8-2.2,1.3-3.4,1.6v-17.1h-3.4v17c0.6,0.1,1.1,0.2,1.7,0.2c4.8,0,8.6-3.9,8.6-8.6v-3.5
		c-1.3,0-2.5-0.5-3.4-1.3V172.4z"/>
	<path class="st0" d="M94.8,172.4c0.7,0.5,1.4,0.9,2.2,1.2c0.1,0,0.3,0.1,0.4,0.1c0.2,0,0.3,0.1,0.5,0.1c0.1,0,0.2,0.1,0.3,0.1v0
		v-17h3.4V174c1.3-0.3,2.4-0.8,3.4-1.6v-11.7c-1.1-0.9-1.7-2.3-1.7-3.8c0-1.3,0.5-2.5,1.3-3.4h-10V150h1.7v-3.4h-1.7v-3.4h10.3v3.4
		h-1.7v3.4h1.7v3.1c0.9-0.8,2.1-1.3,3.4-1.3v-12.1H98.3v0h-3.4c-1.9,0-3.4,1.5-3.4,3.4v6.9h-5.2h-6.9h-1.7v3.4h1.7h6.9h5.2v3.4h3.4
		V172.4z"/>
	<path class="st4" d="M105.2,150h-1.7v1.4h-6.9V150h-1.7v3.4h10c0.1-0.1,0.2-0.3,0.4-0.4V150z"/>
	<polygon class="st3" points="103.4,151.4 103.4,150 103.4,146.6 105.2,146.6 105.2,143.1 94.8,143.1 94.8,146.6 96.6,146.6 
		96.6,150 96.6,151.4 	"/>
	<polygon class="st2" points="79.3,159.8 86.2,157.5 86.2,153.4 79.3,153.4 	"/>
	<polygon class="st2" points="79.3,170.7 86.2,170.7 86.2,160.9 79.3,163.2 	"/>
	<rect x="79.3" y="143.1" class="st2" width="6.9" height="6.9"/>
	<polygon class="st3" points="77.6,170.7 77.6,174.1 87.9,174.1 87.9,170.7 86.2,170.7 79.3,170.7 	"/>
	<polygon class="st3" points="87.9,143.1 87.9,139.7 85.1,139.7 80.5,139.7 77.6,139.7 77.6,143.1 79.3,143.1 86.2,143.1 	"/>
	<polygon class="st5" points="75.9,174.1 75.9,177.6 89.7,177.6 89.7,174.1 87.9,174.1 77.6,174.1 	"/>
	<polygon class="st3" points="131,170.7 131,172.4 131,174.1 141.4,174.1 141.4,174.1 141.4,174.1 141.4,170.7 137.9,170.7 	"/>
	<polygon class="st5" points="131,174.1 127.6,174.1 127.6,177.6 141.4,177.6 141.4,174.1 141.4,174.1 	"/>
	<polygon class="st3" points="108.6,139.7 119,139.7 119,139.7 119,136.2 119,136.2 110.3,136.2 110.3,136.2 106.9,136.2 
		106.9,136.2 98.3,136.2 98.3,139.7 98.3,139.7 	"/>
	<rect x="106.9" y="136.2" class="st4" width="3.4" height="0"/>
	<path class="st2" d="M110.3,126C110.3,126,110.4,126,110.3,126C110.4,125.9,110.3,125.9,110.3,126L110.3,126z"/>
	<path class="st2" d="M112.1,124.1c1,0,1.7,0.8,1.7,1.7c0,0.3-0.1,0.5-0.2,0.8c1.4,0.4,2.7,1,3.9,1.8c0.3-0.5,0.8-0.9,1.5-0.9
		c1,0,1.7,0.8,1.7,1.7c0,0.5-0.2,0.9-0.5,1.2c0.1,0.1,0.2,0.1,0.2,0.2l2,2l-1.2,1.2c1.7-0.8,2.9-2.6,2.9-4.6c0-2.9-2.3-5.2-5.2-5.2
		c-0.7,0-1.3,0.1-1.9,0.4c-0.6-2.2-2.6-3.8-5-3.8c-0.6,0-1.2,0.1-1.7,0.3v4.8C110.4,124.9,111.1,124.1,112.1,124.1z"/>
	<path class="st2" d="M96.8,130.7c0.1-0.1,0.1-0.1,0.2-0.2c-0.3-0.3-0.5-0.7-0.5-1.2c0-1,0.8-1.7,1.7-1.7c0.6,0,1.2,0.3,1.5,0.9
		c1.2-0.8,2.5-1.4,3.9-1.8c-0.1-0.2-0.2-0.5-0.2-0.8c0-1,0.8-1.7,1.7-1.7c1,0,1.7,0.8,1.7,1.7c0,0,0,0.1,0,0.1c0,0,0,0,0,0v-0.1V121
		c-0.5-0.2-1.1-0.3-1.7-0.3c-2.4,0-4.4,1.6-5,3.8c-0.6-0.2-1.2-0.4-1.9-0.4c-2.9,0-5.2,2.3-5.2,5.2c0,2,1.2,3.8,2.9,4.6l-1.2-1.2
		L96.8,130.7z"/>
	<path class="st3" d="M112.1,165.5c0,2.9,2.3,5.2,5.2,5.2c2.9,0,5.2-2.3,5.2-5.2v-5.2h-10c-0.1,0.1-0.2,0.3-0.4,0.4V165.5z
		 M115.5,163.8h3.4v1.7c0,1-0.8,1.7-1.7,1.7s-1.7-0.8-1.7-1.7V163.8z"/>
	<path class="st6" d="M117.2,143.1c-1.9,0-3.4,1.5-3.4,3.4v3.4c0,1.9,1.5,3.4,3.4,3.4s3.4-1.5,3.4-3.4v-3.4
		C120.7,144.6,119.1,143.1,117.2,143.1z"/>
	<path class="st5" d="M104.8,153.4c-0.8,0.9-1.3,2.1-1.3,3.4c0,1.5,0.7,2.9,1.7,3.8c0.9,0.8,2.1,1.3,3.4,1.3c0,0,0,0,0,0
		c1.3,0,2.5-0.5,3.4-1.3c0.1-0.1,0.3-0.2,0.4-0.4c0.8-0.9,1.3-2.1,1.3-3.4c0,0,0,0,0,0c0-2.9-2.3-5.2-5.2-5.2c0,0,0,0,0,0
		c-1.3,0-2.5,0.5-3.4,1.3C105,153.2,104.9,153.3,104.8,153.4z"/>
	<path class="st3" d="M106.9,126c0.6-0.1,1.1-0.1,1.7-0.1c0.6,0,1.2,0,1.7,0.1v-0.1v0v0V121v-2h-3.4v2V126L106.9,126z"/>
	<path class="st0" d="M110.3,136.2h8.6l2.3-2.3l1.2-1.2l-2-2c-0.1-0.1-0.1-0.1-0.2-0.2c-0.8-0.8-1.7-1.5-2.7-2.1
		c-1.2-0.8-2.5-1.4-3.9-1.8c-1.1-0.3-2.1-0.6-3.2-0.7c0,0,0,0,0,0c-0.6-0.1-1.1-0.1-1.7-0.1c-0.6,0-1.2,0-1.7,0.1c0,0,0,0,0,0
		c-1.1,0.1-2.2,0.3-3.2,0.7c-1.4,0.4-2.7,1-3.9,1.8c-1,0.6-1.9,1.3-2.7,2.1c-0.1,0.1-0.2,0.1-0.2,0.2l-2,2l1.2,1.2l2.3,2.3h0h8.6
		H110.3z M115.5,131c1,0,1.7,0.8,1.7,1.7s-0.8,1.7-1.7,1.7s-1.7-0.8-1.7-1.7S114.6,131,115.5,131z M101.7,134.5
		c-1,0-1.7-0.8-1.7-1.7s0.8-1.7,1.7-1.7c1,0,1.7,0.8,1.7,1.7S102.7,134.5,101.7,134.5z M108.6,131c1,0,1.7,0.8,1.7,1.7
		s-0.8,1.7-1.7,1.7s-1.7-0.8-1.7-1.7S107.7,131,108.6,131z"/>
	<circle class="st1" cx="108.6" cy="132.8" r="1.7"/>
	<circle class="st1" cx="101.7" cy="132.8" r="1.7"/>
	<circle class="st1" cx="115.5" cy="132.8" r="1.7"/>
	<polygon class="st0" points="77.6,160.3 77.6,163.8 79.3,163.2 86.2,160.9 87.9,160.3 87.9,156.9 86.2,157.5 79.3,159.8 	"/>
</g>
</svg>
