<?xml version="1.0" encoding="utf-8"?>
<!-- Generator: Adobe Illustrator 21.0.0, SVG Export Plug-In . SVG Version: 6.00 Build 0)  -->
<svg version="1.1" id="Capa_1" xmlns="http://www.w3.org/2000/svg" xmlns:xlink="http://www.w3.org/1999/xlink" x="0px" y="0px"
	 width="300px" height="100px" viewBox="0 0 300 100" style="enable-background:new 0 0 300 100;" xml:space="preserve">
<style type="text/css">
	.st0{fill:#213C4F;}
</style>
<g>
	<path class="st0" d="M25,77.1V25.8h16.7c5.4,0,9.5,1.2,12.6,3.5s4.5,5.8,4.5,10.4c0,2.3-0.7,4.3-2.2,6.1c-1.5,1.8-3.4,3.1-5.7,4
		c3.1,0.7,5.5,2.2,7.3,4.5c1.8,2.4,2.7,5.1,2.7,8.3c0,4.7-1.5,8.3-4.6,10.8c-3,2.5-7.2,3.7-12.4,3.7H25z M31.9,47.6h11.2
		c2.6,0,4.7-0.7,6.3-2.1s2.4-3.4,2.4-5.9c0-2.8-0.9-4.8-2.6-6.2c-1.7-1.4-4.3-2.1-7.6-2.1h-9.8V47.6z M31.9,53.1v18.6h12
		c3.1,0,5.6-0.8,7.4-2.3c1.8-1.6,2.6-3.8,2.6-6.6c0-3-0.7-5.3-2.2-7c-1.5-1.7-3.7-2.6-6.8-2.6H31.9z"/>
	<path class="st0" d="M77.3,29.2h-6.9v-7.1h6.9V29.2z M77.3,77.1h-6.9V39h6.9V77.1z"/>
	<path class="st0" d="M97.1,29.8V39h7.2v5.1h-7.2v23.1c0,1.8,0.4,3,1.1,3.8c0.7,0.7,1.7,1.1,2.9,1.1c0.4,0,0.8,0,1.3-0.1
		c0.5-0.1,0.9-0.2,1.3-0.4l0.9,4.8c-0.5,0.4-1.3,0.8-2.3,1c-1,0.3-2,0.4-3,0.4c-2.8,0-5.1-0.9-6.7-2.6s-2.5-4.4-2.5-8V44.1h-6.1V39
		h6.1v-9.2H97.1z"/>
	<path class="st0" d="M128.7,77.8c-5.3,0-9.5-1.8-12.7-5.3s-4.7-8.1-4.7-13.7v-1.5c0-5.4,1.6-9.9,4.8-13.5c3.2-3.6,7-5.4,11.5-5.4
		c5.1,0,9,1.5,11.7,4.6c2.6,3.1,3.9,7.2,3.9,12.4v4.3h-24.7l-0.1,0.2c0.1,3.6,1,6.7,2.8,9c1.8,2.4,4.3,3.5,7.5,3.5
		c2.3,0,4.4-0.3,6.2-1c1.8-0.7,3.3-1.6,4.6-2.8l2.7,4.5c-1.4,1.3-3.2,2.5-5.4,3.4C134.5,77.4,131.8,77.8,128.7,77.8z M127.6,43.8
		c-2.3,0-4.3,1-5.9,2.9c-1.6,2-2.7,4.4-3,7.3l0.1,0.2h17.6v-0.9c0-2.7-0.7-5-2.2-6.8C132.6,44.7,130.5,43.8,127.6,43.8z"/>
	<path class="st0" d="M152.3,77.1V25.8H169c5.4,0,9.5,1.2,12.6,3.5s4.5,5.8,4.5,10.4c0,2.3-0.7,4.3-2.2,6.1c-1.5,1.8-3.4,3.1-5.7,4
		c3.1,0.7,5.5,2.2,7.3,4.5c1.8,2.4,2.7,5.1,2.7,8.3c0,4.7-1.5,8.3-4.6,10.8c-3,2.5-7.2,3.7-12.4,3.7H152.3z M159.2,47.6h11.2
		c2.6,0,4.7-0.7,6.3-2.1s2.4-3.4,2.4-5.9c0-2.8-0.9-4.8-2.6-6.2c-1.7-1.4-4.3-2.1-7.6-2.1h-9.8V47.6z M159.2,53.1v18.6h12
		c3.1,0,5.6-0.8,7.4-2.3c1.8-1.6,2.6-3.8,2.6-6.6c0-3-0.7-5.3-2.2-7c-1.5-1.7-3.7-2.6-6.8-2.6H159.2z"/>
	<path class="st0" d="M232.2,31.3h-16.5v45.8h-6.9V31.3h-16.4v-5.5h39.9V31.3z"/>
	<path class="st0" d="M274.9,60.6l0.1,0.2c0.1,4.8-1.6,8.8-5.1,12.1c-3.5,3.3-8.1,4.9-13.8,4.9c-5.8,0-10.5-2.1-14.2-6.2
		c-3.6-4.1-5.5-9.3-5.5-15.6v-9.1c0-6.3,1.8-11.5,5.5-15.6s8.4-6.2,14.2-6.2c5.8,0,10.4,1.5,13.8,4.6c3.4,3.1,5.1,7.2,5,12.3
		l-0.1,0.2h-6.7c0-3.6-1.1-6.4-3.2-8.5s-5.1-3.1-8.9-3.1c-3.9,0-7,1.6-9.3,4.7s-3.5,7-3.5,11.6V56c0,4.7,1.2,8.6,3.5,11.7
		s5.4,4.7,9.3,4.7c3.8,0,6.8-1,8.9-3.1s3.2-4.9,3.2-8.6H274.9z"/>
</g>
</svg>
