<?xml version="1.0" encoding="utf-8"?>
<!-- Generator: Adobe Illustrator 21.0.0, SVG Export Plug-In . SVG Version: 6.00 Build 0)  -->
<svg version="1.1" id="Capa_1" xmlns="http://www.w3.org/2000/svg" xmlns:xlink="http://www.w3.org/1999/xlink" x="0px" y="0px"
	 width="300px" height="100px" viewBox="0 0 300 100" style="enable-background:new 0 0 300 100;" xml:space="preserve">
<style type="text/css">
	.st0{fill:#4153A0;}
</style>
<g>
	<path class="st0" d="M51.6,77.1V25.8h16.7c5.4,0,9.5,1.2,12.6,3.5s4.5,5.8,4.5,10.4c0,2.3-0.7,4.3-2.2,6.1c-1.5,1.8-3.4,3.1-5.7,4
		c3.1,0.7,5.5,2.2,7.3,4.5c1.8,2.4,2.7,5.1,2.7,8.3c0,4.7-1.5,8.3-4.6,10.8s-7.2,3.7-12.4,3.7H51.6z M58.6,47.6h11.2
		c2.6,0,4.7-0.7,6.3-2.1c1.6-1.4,2.4-3.4,2.4-5.9c0-2.8-0.9-4.8-2.6-6.2s-4.3-2.1-7.6-2.1h-9.8V47.6z M58.6,53.1v18.6h12
		c3.1,0,5.6-0.8,7.4-2.3c1.8-1.6,2.6-3.8,2.6-6.6c0-3-0.7-5.3-2.2-7s-3.7-2.6-6.8-2.6H58.6z"/>
	<path class="st0" d="M103.9,29.2H97v-7.1h6.9V29.2z M103.9,77.1H97V39h6.9V77.1z"/>
	<path class="st0" d="M123.7,29.8V39h7.2v5.1h-7.2v23.1c0,1.8,0.4,3,1.1,3.8c0.7,0.7,1.7,1.1,2.9,1.1c0.4,0,0.8,0,1.3-0.1
		s0.9-0.2,1.3-0.4l0.9,4.8c-0.5,0.4-1.3,0.8-2.3,1c-1,0.3-2,0.4-3,0.4c-2.8,0-5.1-0.9-6.7-2.6c-1.7-1.7-2.5-4.4-2.5-8V44.1h-6.1V39
		h6.1v-9.2H123.7z"/>
	<path class="st0" d="M171.1,54.4h-23.4v22.7h-6.9V25.8h33.9v5.5h-27V49h23.4V54.4z"/>
	<path class="st0" d="M196.6,77.8c-5.3,0-9.5-1.8-12.7-5.3c-3.1-3.5-4.7-8.1-4.7-13.7v-1.5c0-5.4,1.6-9.9,4.8-13.5s7-5.4,11.5-5.4
		c5.1,0,9,1.5,11.7,4.6c2.6,3.1,3.9,7.2,3.9,12.4v4.3h-24.7l-0.1,0.2c0.1,3.6,1,6.7,2.8,9c1.8,2.4,4.3,3.5,7.5,3.5
		c2.3,0,4.4-0.3,6.2-1c1.8-0.7,3.3-1.6,4.6-2.8l2.7,4.5c-1.4,1.3-3.2,2.5-5.4,3.4C202.4,77.4,199.7,77.8,196.6,77.8z M195.5,43.8
		c-2.3,0-4.3,1-5.9,2.9c-1.6,2-2.7,4.4-3,7.3l0.1,0.2h17.6v-0.9c0-2.7-0.7-5-2.2-6.8C200.5,44.7,198.4,43.8,195.5,43.8z"/>
	<path class="st0" d="M231.8,53l8.1-14h8.1l-12.4,18.8l12.7,19.3h-8L232,62.7l-8.4,14.4h-8l12.7-19.3L215.8,39h8L231.8,53z"/>
</g>
</svg>
