<?xml version="1.0" encoding="utf-8"?>
<!-- Generator: Adobe Illustrator 21.0.0, SVG Export Plug-In . SVG Version: 6.00 Build 0)  -->
<svg version="1.1" id="Capa_2" xmlns="http://www.w3.org/2000/svg" xmlns:xlink="http://www.w3.org/1999/xlink" x="0px" y="0px"
	 width="300px" height="100px" viewBox="0 0 300 100" style="enable-background:new 0 0 300 100;" xml:space="preserve">
<style type="text/css">
	.st0{fill:none;}
	.st1{fill:#080808;}
	.st2{fill:#BFBFB8;}
	.st3{fill:#E9EAA6;}
</style>
<g>
	<path class="st0" d="M261.4,43c0-0.8-0.1-1.6-0.3-2.2c-0.9-0.3-2-0.5-3.2-0.5h-11.6v8.5h8.6C259.3,48.8,261.4,46.8,261.4,43z"/>
	<path class="st0" d="M183.8,59c1.6,0,3.2-0.3,4.7-0.9c1.5-0.6,2.8-1.4,3.9-2.4c1.1-1,2-2.2,2.7-3.5c0.6-1.4,1-2.8,1-4.3
		c0-1.5-0.3-3-1-4.3c-0.3-0.5-0.5-1-0.9-1.5c-0.8-0.6-1.7-1.1-2.7-1.5c-1.5-0.6-3.1-0.9-4.7-0.9c-1.7,0-3.3,0.3-4.7,0.9
		c-1.5,0.6-2.8,1.4-3.9,2.4c-1.1,1-2,2.2-2.6,3.6c-0.6,1.4-1,2.8-1,4.3c0,1.5,0.3,3,1,4.3c0.3,0.5,0.6,1,0.9,1.5
		c0.8,0.6,1.7,1,2.6,1.4C180.5,58.7,182.1,59,183.8,59z"/>
	<path class="st0" d="M67.3,43c0-0.8-0.1-1.6-0.3-2.2c-0.9-0.3-2-0.5-3.2-0.5H52.1v8.5h8.6C65.1,48.8,67.3,46.8,67.3,43z"/>
	<path class="st0" d="M132.3,55.6c1.6-1.8,2.5-4.5,2.5-8.1c0-2.5-0.4-4.5-1.3-6.1c-1.5-0.8-3.3-1.2-5.6-1.2h-8.4v18.2h5.4
		C128.2,58.4,130.6,57.5,132.3,55.6z"/>
	<polygon class="st0" points="88.4,53.6 98.3,53.6 93.4,44.1 	"/>
	<rect x="20.4" y="30.7" class="st1" width="3" height="1.7"/>
	<rect x="9" y="37.2" class="st1" width="6" height="3"/>
	<polygon class="st1" points="41.1,35.4 41.1,37.2 20.4,37.2 20.4,63.2 18,63.2 18,66.2 23.4,66.2 23.4,40.2 43.8,40.2 43.8,35.4 	
		"/>
	<polygon class="st1" points="49.1,53.6 49.1,63.2 46.8,63.2 46.8,66.2 52.1,66.2 52.1,56.6 58.2,56.6 56.4,53.6 	"/>
	<path class="st1" d="M75.4,45.9c0-4.1-1.4-7-4.3-8.7c0.9,1.5,1.3,3.4,1.3,5.7c0,6.5-3.5,10-10.4,10.6l10,15.8h-4.8l1.9,3H75
		L65,56.5C71.9,56,75.4,52.4,75.4,45.9z"/>
	<path class="st1" d="M63.7,40.2c1.3,0,2.3,0.2,3.2,0.5c-0.8-2.3-2.8-3.5-6.2-3.5H49.1v11.5h3v-8.5H63.7z"/>
	<polygon class="st1" points="81.3,58.4 78.7,63.2 77.3,63.2 75.7,66.2 81.7,66.2 84.3,61.4 102.5,61.4 100.8,58.4 	"/>
	<polygon class="st1" points="93.2,34.2 113,69.3 108.3,69.3 109.9,72.3 116,72.3 93.9,33 	"/>
	<polygon class="st1" points="91.1,39.7 83.8,53.6 88.4,53.6 93.4,44.1 	"/>
	<path class="st1" d="M127.9,40.2c2.3,0,4.1,0.4,5.6,1.2c-0.3-0.6-0.7-1.2-1.2-1.6c-1.6-1.7-4.1-2.5-7.4-2.5h-8.4v21.2h3V40.2H127.9
		z"/>
	<path class="st1" d="M137.7,38.2c1.6,2.4,2.4,5.5,2.4,9.4c0,5.2-1.4,9.1-4.1,11.7c-2.8,2.6-6.9,4-12.4,4h-9.3v3h12.3
		c5.5,0,9.7-1.3,12.4-4c2.8-2.6,4.1-6.5,4.1-11.7c0-5.1-1.4-8.9-4.1-11.4C138.6,38.8,138.2,38.5,137.7,38.2z"/>
	<polygon class="st1" points="164.4,63.2 146.6,63.2 146.6,66.2 167.4,66.2 167.4,61.4 164.4,61.4 	"/>
	<polygon class="st1" points="148.9,37.2 148.9,42.5 151.9,42.5 151.9,40.2 164.8,40.2 164.8,35.4 161.8,35.4 161.8,37.2 	"/>
	<polygon class="st1" points="148.9,47.3 148.9,58.4 151.9,58.4 151.9,50.3 164.8,50.3 164.8,45.5 161.8,45.5 161.8,47.3 	"/>
	<path class="st1" d="M202.9,44.7C202.9,44.7,202.9,44.7,202.9,44.7c-1-2-2.2-3.7-3.8-5.1c-0.3-0.3-0.7-0.6-1-0.9
		c0.7,0.9,1.3,1.9,1.8,2.9c0.9,1.9,1.4,4,1.4,6.1c0,2.2-0.5,4.2-1.4,6.2c-0.9,1.9-2.2,3.6-3.8,5.1c-1.6,1.5-3.5,2.6-5.6,3.5
		c-2.1,0.8-4.4,1.3-6.7,1.3s-4.6-0.4-6.8-1.3c-1.7-0.7-3.2-1.5-4.5-2.6c0.6,0.8,1.2,1.5,2,2.1c1.6,1.4,3.4,2.6,5.6,3.4
		c2.1,0.8,4.4,1.3,6.8,1.3s4.6-0.4,6.7-1.3c2.1-0.8,4-2,5.6-3.5c1.6-1.5,2.9-3.1,3.8-5.1c0.5-1,0.8-2,1.1-3c-0.9-1.9-1.4-4-1.4-6.1
		C202.6,46.8,202.7,45.7,202.9,44.7z"/>
	<path class="st1" d="M174.5,50.9c0-1.5,0.3-3,1-4.3c0.6-1.4,1.5-2.5,2.6-3.6c1.1-1,2.4-1.8,3.9-2.4c1.5-0.6,3-0.9,4.7-0.9
		c1.7,0,3.3,0.3,4.7,0.9c1,0.4,1.9,0.9,2.7,1.5c-0.5-0.7-1.1-1.4-1.8-2.1c-1.1-1-2.4-1.8-3.9-2.4c-1.5-0.6-3.1-0.9-4.7-0.9
		c-1.7,0-3.3,0.3-4.7,0.9c-1.5,0.6-2.8,1.4-3.9,2.4c-1.1,1-2,2.2-2.6,3.6c-0.6,1.4-1,2.8-1,4.3c0,1.5,0.3,3,1,4.3
		c0.6,1.3,1.5,2.5,2.6,3.5c0.4,0.4,0.8,0.7,1.2,1c-0.3-0.5-0.6-1-0.9-1.5C174.9,53.9,174.5,52.4,174.5,50.9z"/>
	<polygon class="st1" points="238,51.8 235.1,51.8 235.1,69.3 232.8,69.3 232.8,72.3 238.1,72.3 238.1,63.2 238,63.2 	"/>
	<path class="st1" d="M222.7,36.9c-0.9-0.2-1.6-0.2-2.4-0.2c-1.8,0-3.4,0.3-4.9,0.9c-1.5,0.6-2.8,1.4-3.9,2.4c-1.1,1-2,2.2-2.6,3.6
		c-0.6,1.4-1,2.8-1,4.3c0,1.5,0.3,3,1,4.3c0.6,1.4,1.5,2.5,2.6,3.5c0.4,0.4,0.8,0.7,1.3,1c-0.3-0.5-0.6-1-0.9-1.5
		c-0.6-1.4-1-2.8-1-4.3c0-1.5,0.3-2.9,1-4.3c0.6-1.4,1.5-2.5,2.6-3.6c1.1-1,2.4-1.8,3.9-2.4c1.5-0.6,3.1-0.9,4.9-0.9
		c0.7,0,1.5,0.1,2.4,0.2c0.9,0.2,1.9,0.5,3.1,1l2.8-4c-1.2-0.7-2.6-1.2-4-1.6l-1.8,2.5C224.6,37.4,223.5,37.1,222.7,36.9z"/>
	<path class="st1" d="M225.2,63.1c-1.6,0.5-3.3,0.7-5.1,0.7c-2.4,0-4.6-0.4-6.7-1.3c-1.7-0.7-3.2-1.6-4.6-2.6c0.6,0.8,1.3,1.5,2,2.2
		c1.6,1.4,3.5,2.6,5.6,3.4c2.1,0.8,4.4,1.3,6.7,1.3c1.8,0,3.5-0.2,5.1-0.7c0.5-0.2,1-0.3,1.6-0.5v-4.4
		C228.3,61.9,226.8,62.6,225.2,63.1z"/>
	<path class="st1" d="M229.8,54.7v-1.1h-4.4v3h2.4C228.5,56,229.2,55.4,229.8,54.7z"/>
	<path class="st1" d="M257.9,40.2c1.3,0,2.3,0.2,3.2,0.5c-0.8-2.3-2.8-3.5-6.2-3.5h-11.6v11.5h3v-8.5H257.9z"/>
	<polygon class="st1" points="243.3,53.6 243.3,63.2 241,63.2 241,66.2 246.3,66.2 246.3,56.6 252.4,56.6 250.5,53.6 	"/>
	<path class="st1" d="M269.6,45.9c0-4.1-1.5-7-4.3-8.7c0.9,1.5,1.3,3.4,1.3,5.7c0,6.5-3.5,10-10.4,10.6l10,15.8h-4.8l1.9,3h5.9
		l-10-15.8C266.1,56,269.6,52.4,269.6,45.9z"/>
	<polygon class="st1" points="275.6,47.3 275.6,58.4 278.6,58.4 278.6,50.3 291.5,50.3 291.5,45.5 288.5,45.5 288.5,47.3 	"/>
	<polygon class="st1" points="275.6,37.2 275.6,42.5 278.6,42.5 278.6,40.2 291.5,40.2 291.5,35.4 288.5,35.4 288.5,37.2 	"/>
	<polygon class="st1" points="291,61.4 291,63.2 273.2,63.2 273.2,66.2 294,66.2 294,61.4 	"/>
	<polygon class="st2" points="20.4,37.2 41.1,37.2 41.1,35.4 41.1,32.4 23.4,32.4 20.4,32.4 20.4,30.7 20.4,27.7 15,27.7 15,32.4 
		6,32.4 6,37.2 9,37.2 15,37.2 15,40.2 15,63.2 18,63.2 20.4,63.2 	"/>
	<path class="st2" d="M62,53.5c6.9-0.5,10.4-4.1,10.4-10.6c0-2.3-0.4-4.2-1.3-5.7c-1.8-3.2-5.5-4.8-11-4.8H43.8v3v4.8v23h3h2.3v-9.7
		h7.2l1.9,3l7.9,12.7h1.1H72L62,53.5z M52.1,48.8h-3V37.2h11.6c3.4,0,5.5,1.2,6.2,3.5c0.2,0.7,0.3,1.4,0.3,2.2
		c0,3.9-2.2,5.8-6.6,5.8H52.1z"/>
	<path class="st2" d="M93.2,34.2L90.9,30L72.7,63.2h4.6h1.4l2.6-4.8h19.5l1.7,3l4.4,7.9h1.3h4.7L93.2,34.2z M88.4,53.6h-4.6
		l7.3-13.8l2.3,4.4l4.9,9.5H88.4z"/>
	<path class="st2" d="M136,59.3c2.8-2.6,4.1-6.5,4.1-11.7c0-3.9-0.8-7-2.4-9.4c-0.5-0.7-1.1-1.4-1.7-2c-2.7-2.5-6.9-3.7-12.6-3.7
		h-12.2v30.8h3h9.3C129.1,63.2,133.2,61.9,136,59.3z M116.5,58.4V37.2h8.4c3.3,0,5.8,0.8,7.4,2.5c0.5,0.5,0.8,1,1.2,1.6
		c0.8,1.6,1.3,3.6,1.3,6.1c0,3.6-0.8,6.3-2.5,8.1c-1.6,1.8-4.1,2.8-7.4,2.8h-5.4H116.5z"/>
	<polygon class="st2" points="164.4,61.4 164.4,58.4 151.9,58.4 148.9,58.4 148.9,47.3 161.8,47.3 161.8,45.5 161.8,42.5 
		151.9,42.5 148.9,42.5 148.9,37.2 161.8,37.2 161.8,35.4 161.8,32.4 143.6,32.4 143.6,63.2 146.6,63.2 164.4,63.2 	"/>
	<path class="st3" d="M183.8,63.8c2.4,0,4.6-0.4,6.7-1.3c2.1-0.8,4-2,5.6-3.5c1.6-1.5,2.9-3.1,3.8-5.1c0.9-1.9,1.4-4,1.4-6.2
		c0-2.2-0.5-4.2-1.4-6.1c-0.5-1-1.1-2-1.8-2.9c-0.6-0.8-1.2-1.5-2-2.1c-1.6-1.4-3.4-2.6-5.6-3.4c-2.1-0.8-4.4-1.3-6.8-1.3
		c-2.4,0-4.6,0.4-6.8,1.3c-2.1,0.8-4,2-5.6,3.4c-1.6,1.4-2.8,3.1-3.8,5.1c-0.9,1.9-1.4,4-1.4,6.2c0,2.2,0.5,4.2,1.4,6.2
		c0.9,1.9,2.2,3.6,3.8,5.1c0.3,0.3,0.7,0.6,1,0.9c1.3,1,2.9,1.9,4.5,2.6C179.2,63.4,181.4,63.8,183.8,63.8z M175.1,55.7
		c-1.1-1-2-2.2-2.6-3.5c-0.6-1.3-1-2.8-1-4.3c0-1.5,0.3-3,1-4.3c0.6-1.4,1.5-2.5,2.6-3.6c1.1-1,2.4-1.8,3.9-2.4
		c1.5-0.6,3-0.9,4.7-0.9c1.7,0,3.3,0.3,4.7,0.9c1.5,0.6,2.8,1.4,3.9,2.4c0.7,0.6,1.3,1.3,1.8,2.1c0.3,0.5,0.6,1,0.9,1.5
		c0.6,1.4,1,2.8,1,4.3c0,1.5-0.3,3-1,4.3c-0.6,1.4-1.5,2.5-2.7,3.5c-1.1,1-2.4,1.8-3.9,2.4c-1.5,0.6-3.1,0.9-4.7,0.9
		c-1.7,0-3.3-0.3-4.7-0.9c-1-0.4-1.8-0.9-2.6-1.4C176,56.4,175.5,56.1,175.1,55.7z"/>
	<path class="st3" d="M235.1,51.8v-3h-12.8v4.8h3h4.4v1.1c-0.6,0.7-1.3,1.3-2,1.9c-0.7,0.5-1.4,0.9-2.1,1.3
		c-1.7,0.8-3.5,1.2-5.5,1.2c-1.7,0-3.3-0.3-4.7-0.9c-1-0.4-1.8-0.9-2.6-1.4c-0.4-0.3-0.9-0.6-1.3-1c-1.1-1-2-2.2-2.6-3.5
		c-0.6-1.4-1-2.8-1-4.3c0-1.5,0.3-2.9,1-4.3c0.6-1.4,1.5-2.5,2.6-3.6c1.1-1,2.4-1.8,3.9-2.4c1.5-0.6,3.1-0.9,4.9-0.9
		c0.7,0,1.5,0.1,2.4,0.2c0.9,0.2,1.9,0.5,3.1,1l1.8-2.5l1-1.4c-1.2-0.7-2.6-1.2-4.1-1.6c-1.5-0.3-2.9-0.5-4.4-0.5
		c-2.4,0-4.6,0.4-6.8,1.3c-2.1,0.8-4,2-5.6,3.4c-1.6,1.4-2.9,3.1-3.8,5.1c-0.5,1-0.8,2-1.1,3c-0.2,1-0.3,2.1-0.3,3.1
		c0,2.1,0.5,4.2,1.4,6.1c0,0,0,0,0,0.1c0.9,1.9,2.2,3.6,3.8,5.1c0.3,0.3,0.6,0.5,1,0.8c1.4,1.1,2.9,2,4.6,2.6
		c2.1,0.8,4.4,1.3,6.7,1.3c1.8,0,3.5-0.2,5.1-0.7c1.6-0.5,3.1-1.1,4.6-2v4.4v3.7h3h2.4V51.8z"/>
	<path class="st3" d="M256.2,53.5c6.9-0.5,10.4-4.1,10.4-10.6c0-2.3-0.4-4.2-1.3-5.7c-1.8-3.2-5.5-4.8-11-4.8H238v19.3v11.5h0.2h2.8
		h2.3v-9.7h7.2l1.9,3l7.9,12.7h1.1h4.8L256.2,53.5z M246.3,48.8h-3V37.2h11.6c3.4,0,5.5,1.2,6.2,3.5c0.2,0.7,0.3,1.4,0.3,2.2
		c0,3.9-2.2,5.8-6.6,5.8H246.3z"/>
	<polygon class="st3" points="291,61.4 291,58.4 278.6,58.4 275.6,58.4 275.6,47.3 288.5,47.3 288.5,45.5 288.5,42.5 278.6,42.5 
		275.6,42.5 275.6,37.2 288.5,37.2 288.5,35.4 288.5,32.4 270.2,32.4 270.2,63.2 273.2,63.2 291,63.2 	"/>
</g>
</svg>
