<?xml version="1.0" encoding="utf-8"?>
<!-- Generator: Adobe Illustrator 21.0.0, SVG Export Plug-In . SVG Version: 6.00 Build 0)  -->
<svg version="1.1" id="Texto" xmlns="http://www.w3.org/2000/svg" xmlns:xlink="http://www.w3.org/1999/xlink" x="0px" y="0px"
	 width="136px" height="15.1px" viewBox="0 0 136 15.1" style="enable-background:new 0 0 136 15.1;" xml:space="preserve">
<style type="text/css">
	.st0{fill:#21E6C1;}
	.st1{fill:#FFFFFF;}
</style>
<g>
	<g>
		<polygon class="st0" points="6.3,0 0.3,15 3.8,15 7.8,4.5 10.7,12 7.8,12 7.8,15 15.3,15 9.3,0 		"/>
		<polygon class="st1" points="20.9,15 35.9,15 35.9,12 23.9,12 23.9,3 35.9,3 35.9,0 20.9,0 		"/>
		<polygon class="st1" points="41.6,3 47.6,3 47.6,15 50.6,15 50.6,3 56.6,3 56.6,0 41.6,0 		"/>
		<rect x="62.2" class="st1" width="3" height="15"/>
		<polygon class="st1" points="82.8,10.7 73.8,0 70.8,0 70.8,15 73.8,15 73.8,4.7 82.8,15 85.8,15 85.8,0 82.8,0 		"/>
		<rect x="91.4" class="st1" width="3" height="15"/>
		<polygon class="st1" points="112,12 103,12 103,0 100.1,0 100.1,15 115,15 115,0 112,0 		"/>
		<polygon class="st1" points="120.7,0 120.7,15 123.7,15 123.7,3 126.7,3 126.7,15 129.7,15 129.7,3 132.7,3 132.7,15 135.7,15 
			135.7,0 		"/>
	</g>
</g>
</svg>
