<?xml version="1.0" encoding="utf-8"?>
<!-- Generator: Adobe Illustrator 21.0.0, SVG Export Plug-In . SVG Version: 6.00 Build 0)  -->
<svg version="1.1" id="Capa_1" xmlns="http://www.w3.org/2000/svg" xmlns:xlink="http://www.w3.org/1999/xlink" x="0px" y="0px"
	 width="540px" height="162.9px" viewBox="0 0 540 162.9" style="enable-background:new 0 0 540 162.9;" xml:space="preserve">
<style type="text/css">
	.st0{fill:#FFFFFF;}
</style>
<g>
	<path class="st0" d="M106.4,20H59.3v63.6h63.6V36.5C122.9,27.4,115.5,20,106.4,20L106.4,20z M44.6,20h-8.1C27.4,20,20,27.3,20,36.4
		c0,0,0,0,0,0.1v8.1h24.6V20z M20,59.3h24.6v24.6H20V59.3z M98.5,122.8h8.1c9.1,0,16.4-7.3,16.5-16.4c0,0,0,0,0-0.1v-7.9H98.5V122.8
		z M59.3,98.5h24.6v24.6H59.3V98.5z M20,98.5v8.1c0,9.1,7.3,16.4,16.4,16.5c0,0,0,0,0.1,0h8.1V98.5H20z M185.7,26.6H176v89.9h50.9
		v-8.6h-41.3L185.7,26.6z M257.8,50.4c-18.7,0-31.9,13.9-31.9,33.9v2.3c0.3,8.6,4.1,16.7,10.4,22.8c6.1,5.6,13.9,8.9,22.3,8.9h1.3
		c8.9,0,17.2-3.3,23.8-8.9l0.3-0.3l-4.3-7.1l-0.5,0.2c-5.3,4.8-11.9,7.6-19,7.6c-11.7,0-23.6-7.6-24.3-24.6h48.6v-0.5
		c0,0,0.3-3,0.3-4.6C284.7,62,274.1,50.4,257.8,50.4L257.8,50.4z M236.1,77.2c2-11.4,10.4-18.7,21.3-18.7c8.1,0,17,4.8,17.7,18.7
		H236.1z M340.4,58v3.3c-4.1-6.9-11.5-11.1-19.5-11.1h-0.8c-17.2,0-29.1,13.7-29.1,33.7c0,20.3,11.4,33.9,28.4,33.9
		c13.4,0,19.5-8.1,21.5-11.7v9.9h9.1V26.6h-9.4V58H340.4L340.4,58z M320.7,109.4c-11.9,0-19.8-10.1-19.8-25.3
		c0-14.7,8.4-25.1,20-25.1c9.9,0,19.8,7.9,19.8,25.1C340.7,102.8,330.3,109.4,320.7,109.4L320.7,109.4z M405.5,59.3v0.5
		c-1.8-3-7.3-9.6-20.8-9.6c-17,0-28.1,12.9-28.1,32.7s11.7,33.1,28.9,33.1c9.4,0,15.7-3.3,20-10.1v8.9c0,12.4-7.9,19.5-21.8,19.5
		c-6,0-11.9-1.5-17.2-4.3l-0.5-0.3l-3.5,7.9l0.5,0.3c6.5,3.3,13.7,5,21,5.1c14.9,0,30.9-7.6,30.9-28.6V51.9h-9.4V59.3L405.5,59.3z
		 M386.8,107.6c-12.4,0-20.5-9.6-20.5-24.6c0-15.2,7.1-23.8,19.3-23.8c13.4,0,19.8,7.9,19.8,23.8
		C405.5,98.8,398.9,107.6,386.8,107.6L386.8,107.6z M453.1,50.4c-18.7,0-31.7,13.9-31.7,33.7v2.3c0.3,8.6,4,16.7,10.4,22.8
		c6.1,5.6,13.9,8.9,22.3,8.9h1.3c8.9,0,17.2-3.3,23.8-8.9l0.3-0.3l-4.6-7.1l-0.5,0.2c-5.3,4.8-11.9,7.6-19,7.6
		c-11.7,0-23.6-7.6-24.3-24.6H480v-0.5c0,0,0.3-3,0.3-4.6C480.2,62,469.6,50.4,453.1,50.4L453.1,50.4z M431.6,77.2
		c2-11.4,10.4-18.7,21.3-18.7c8.1,0,17,4.8,17.7,18.7H431.6z M519.7,51.7c-1.3-0.3-2.3-0.3-3.5-0.5c-8.9,0-16.2,5.6-20,14.9V51.7
		h-9.4l0.3,64.1v0.5h9.6V89.2c0-4.1,0.5-8.4,1.8-12.2c3-9.9,9.9-16.2,18-16.2c1,0,2,0,3,0.3h0.5v-9.4
		C520,51.7,519.7,51.7,519.7,51.7z"/>
</g>
</svg>
