<?xml version="1.0" encoding="utf-8"?>
<!-- Generator: Adobe Illustrator 21.0.0, SVG Export Plug-In . SVG Version: 6.00 Build 0)  -->
<svg version="1.1"
	 id="trezor" inkscape:export-filename="/home/stick/work/bitcoin/share-bitkey/logo/logo-black-horiz-2.png" inkscape:export-xdpi="300" inkscape:export-ydpi="300" inkscape:version="0.48.4 r9939" sodipodi:docname="logo-black-horiz-2.svg" xmlns:cc="http://creativecommons.org/ns#" xmlns:dc="http://purl.org/dc/elements/1.1/" xmlns:inkscape="http://www.inkscape.org/namespaces/inkscape" xmlns:rdf="http://www.w3.org/1999/02/22-rdf-syntax-ns#" xmlns:sodipodi="http://sodipodi.sourceforge.net/DTD/sodipodi-0.dtd" xmlns:svg="http://www.w3.org/2000/svg"
	 xmlns="http://www.w3.org/2000/svg" xmlns:xlink="http://www.w3.org/1999/xlink" x="0px" y="0px" width="540px" height="180.6px"
	 viewBox="0 0 540 180.6" style="enable-background:new 0 0 540 180.6;" xml:space="preserve">
<style type="text/css">
	.st0{display:none;fill:#FFFFFF;stroke:#000000;}
	.st1{fill:#FFFFFF;}
</style>
<sodipodi:namedview  bordercolor="#666666" borderopacity="1" fit-margin-bottom="20" fit-margin-left="20" fit-margin-right="20" fit-margin-top="20" gridtolerance="10" guidetolerance="10" id="namedview30" inkscape:current-layer="svg2" inkscape:cx="274.79362" inkscape:cy="-36.370891" inkscape:pageopacity="0" inkscape:pageshadow="2" inkscape:window-height="1129" inkscape:window-maximized="1" inkscape:window-width="1920" inkscape:window-x="0" inkscape:window-y="25" inkscape:zoom="0.76280916" objecttolerance="10" pagecolor="#ffffff" showgrid="false">
	</sodipodi:namedview>
<rect id="rect25" x="246.6" y="702.6" class="st0" width="11" height="35"/>
<g>
	<path id="path7" inkscape:connector-curvature="0" class="st1" d="M68.5,20c-19.3,0-34.9,15.6-34.9,34.9v13
		c-6.8,1.2-13.6,2.9-13.6,5v68.3c0,0,0,1.9,2.1,2.7c7.7,3.1,38,13.8,44.9,16.2c0.9,0.3,1.1,0.3,1.4,0.3c0.3,0,0.5,0,1.4-0.3
		c6.9-2.5,37.3-13.2,45-16.2c2-0.8,2-2.7,2-2.7V73c0-2.1-6.7-3.8-13.5-5v-13C103.4,35.6,87.7,20,68.5,20z M68.5,36.7
		c11.3,0,18.2,6.9,18.2,18.2v11.4c-12.8-0.9-23.7-0.9-36.5,0V54.9C50.2,43.6,57.1,36.7,68.5,36.7z M68.4,83
		c15.9,0,29.2,1.2,29.2,3.5c0,0,0,42,0,42.6c0,0.6-0.1,0.7-0.7,0.9c-0.6,0.2-27.1,9.8-27.1,9.8s-1.1,0.4-1.4,0.4
		c-0.3,0-1.4-0.4-1.4-0.4s-26.5-9.6-27.1-9.8c-0.6-0.2-0.7-0.3-0.7-1c0-0.7,0-42.6,0-42.6C39.2,84.2,52.6,83,68.4,83z"/>
	<g id="g3222" transform="matrix(0.95575135,0,0,0.95575135,91.363135,-287.43374)">
		<path id="path13" inkscape:connector-curvature="0" class="st1" d="M73.7,436.4v-48.8H55.9v-17.5h55.6v17.5H93.8v48.8H73.7z"/>
		<path id="path15" inkscape:connector-curvature="0" class="st1" d="M156.5,436.4l-9.1-20.9h-7.3v20.9H120v-66.3h35.4
			c15.5,0,23.9,10.3,23.9,22.8c0,11.4-6.7,17.5-11.9,20.1l12,23.5L156.5,436.4L156.5,436.4L156.5,436.4z M158.9,392.8
			c0-3.6-3.2-5.2-6.6-5.2h-12.2V398h12.2C155.7,398,158.9,396.5,158.9,392.8z"/>
		<path id="path17" inkscape:connector-curvature="0" class="st1" d="M189.8,436.4v-66.3h50.3v17.5h-30.2v6.6h29.5v17.5h-29.5v7.3
			h30.2v17.5L189.8,436.4L189.8,436.4z"/>
		<path id="path19" inkscape:connector-curvature="0" class="st1" d="M250.6,436.4v-15.9l25.3-32.9h-25.3v-17.5h51.8v15.8l-25.4,33
			h26v17.5H250.6L250.6,436.4z"/>
		<path id="path21" inkscape:connector-curvature="0" class="st1" d="M308,403.3c0-20.4,15.8-34.3,36.3-34.3
			c20.5,0,36.3,13.9,36.3,34.3c0,20.4-15.8,34.3-36.3,34.3C323.8,437.6,308,423.7,308,403.3z M360.2,403.3c0-9.2-6.3-16.6-15.9-16.6
			c-9.6,0-15.9,7.4-15.9,16.6c0,9.2,6.3,16.6,15.9,16.6C353.9,419.9,360.2,412.6,360.2,403.3z"/>
		<path id="path23" inkscape:connector-curvature="0" class="st1" d="M425.6,436.4l-9.1-20.9h-7.3v20.9h-20.1v-66.3h35.4
			c15.5,0,23.9,10.3,23.9,22.8c0,11.4-6.7,17.5-11.9,20.1l12,23.5L425.6,436.4L425.6,436.4z M428,392.8c0-3.6-3.2-5.2-6.6-5.2h-12.2
			v10.4h12.2C424.8,398.1,428,396.5,428,392.8z"/>
	</g>
</g>
</svg>
