<?xml version="1.0" encoding="utf-8"?>
<!-- Generator: Adobe Illustrator 21.0.0, SVG Export Plug-In . SVG Version: 6.00 Build 0)  -->
<svg version="1.1" id="Capa_1" xmlns="http://www.w3.org/2000/svg" xmlns:xlink="http://www.w3.org/1999/xlink" x="0px" y="0px"
	 width="250px" height="250px" viewBox="0 0 250 250" style="enable-background:new 0 0 250 250;" xml:space="preserve">
<style type="text/css">
	.st0{display:none;fill:#0F0A3B;}
	.st1{opacity:0.5;}
	.st2{fill:#8F8F8F;}
	.st3{fill:#B2B2B2;}
	.st4{opacity:0.2;}
	.st5{fill:#242424;}
	.st6{fill:#ABABAB;}
</style>
<rect x="-114" y="-100.7" class="st0" width="446" height="412"/>
<g>
	<g>
		<g>
			<g class="st1">
				<path d="M207.2,211c-21.4,20.4-50.3,33-82.2,33C59.3,244,6,190.7,6,125C6,67,47.5,18.7,102.3,8.2c-15.5,14.8-27,33.7-32.7,55
					C60.9,68.3,51.8,75.9,45,87.3c-15.5,26.1-10.1,58.4,3,79.3c11,17.6,26.6,25.7,39.3,32.3c14.3,7.4,30.4,15.8,50.7,12.7
					c4.5-0.7,8.7-1.9,12.5-3.4c10.8,3.2,22.2,4.9,34,4.9C192.3,213.2,199.8,212.5,207.2,211z"/>
			</g>
			<g>
				<path class="st2" d="M227.3,117.9c0.1,0.9,0.9,1.6,1.7,1.6c0.1,0,0.1,0,0.2,0l9.5-0.9c1-0.1,1.7-0.9,1.6-1.9
					c-0.1-1-0.9-1.7-1.9-1.6l-9.5,0.9C228,116,227.3,116.9,227.3,117.9z M238.3,136.5l-9.5-0.9c-1-0.1-1.8,0.6-1.9,1.6
					c-0.1,1,0.6,1.8,1.6,1.9l9.5,0.9c0.1,0,0.1,0,0.2,0c0.9,0,1.6-0.7,1.7-1.6C240,137.5,239.3,136.6,238.3,136.5z M238.9,125.9
					h-9.6c-0.7,0-1.2,0.5-1.2,1.2c0,0.7,0.5,1.2,1.2,1.2h9.6c0.6,0,1.2-0.5,1.2-1.2C240.1,126.4,239.5,125.9,238.9,125.9z
					 M226.7,107.7c0.1,0.6,0.6,1,1.1,1c0.1,0,0.2,0,0.2,0l9.4-1.8c0.6-0.1,1-0.7,0.9-1.4c-0.1-0.6-0.7-1-1.4-0.9l-9.4,1.8
					C227,106.5,226.6,107.1,226.7,107.7z M236.3,149.2l-9.4-2c-0.6-0.1-1.3,0.3-1.4,0.9c-0.1,0.6,0.3,1.2,0.9,1.4l9.4,2
					c0.1,0,0.2,0,0.2,0c0.5,0,1-0.4,1.1-0.9C237.3,150,236.9,149.3,236.3,149.2z M223.7,97c0.2,0.8,0.9,1.2,1.7,1.2
					c0.2,0,0.3,0,0.5-0.1l9.2-2.8c0.9-0.3,1.4-1.3,1.2-2.2c-0.3-0.9-1.3-1.4-2.2-1.2l-9.2,2.8C224,95.1,223.4,96.1,223.7,97z
					 M233.6,159.5l-9.1-2.9c-0.9-0.3-1.9,0.2-2.2,1.1c-0.3,0.9,0.2,1.9,1.1,2.2l9.1,2.9c0.2,0.1,0.4,0.1,0.5,0.1
					c0.8,0,1.4-0.5,1.7-1.2C235,160.8,234.5,159.8,233.6,159.5z M221,87.2c0.2,0.4,0.6,0.7,1.1,0.7c0.2,0,0.3,0,0.5-0.1l8.8-3.7
					c0.6-0.2,0.9-0.9,0.6-1.5c-0.3-0.6-0.9-0.9-1.5-0.6l-8.8,3.7C221.1,86,220.8,86.6,221,87.2z M230,169.2l-8.9-3.6
					c-0.6-0.2-1.3,0-1.5,0.6c-0.2,0.6,0,1.3,0.6,1.5l8.9,3.7c0.1,0.1,0.3,0.1,0.4,0.1c0.5,0,0.9-0.3,1.1-0.7
					C230.9,170.1,230.6,169.5,230,169.2z M216.9,79.4c0.3,0.6,0.9,1,1.5,1c0.3,0,0.6-0.1,0.8-0.2l8.5-4.4c0.9-0.4,1.2-1.5,0.7-2.4
					s-1.5-1.2-2.4-0.7l-8.5,4.4C216.8,77.5,216.5,78.6,216.9,79.4z M225.4,178.8l-8.5-4.5c-0.9-0.5-1.9-0.1-2.4,0.7
					c-0.5,0.9-0.1,1.9,0.7,2.4l8.5,4.5c0.3,0.1,0.5,0.2,0.8,0.2c0.6,0,1.2-0.3,1.5-0.9C226.6,180.3,226.3,179.3,225.4,178.8z
					 M212.5,70.3c0.2,0.4,0.6,0.5,1,0.5c0.2,0,0.4-0.1,0.6-0.2l8-5.2c0.5-0.4,0.7-1.1,0.3-1.6c-0.4-0.5-1.1-0.7-1.6-0.3l-8,5.2
					C212.3,69,212.1,69.7,212.5,70.3z M210.8,184.4c-0.5-0.4-1.3-0.2-1.6,0.3c-0.4,0.5-0.2,1.3,0.3,1.6l7.9,5.4
					c0.2,0.1,0.4,0.2,0.7,0.2c0.4,0,0.7-0.2,1-0.5c0.4-0.5,0.2-1.3-0.3-1.6L210.8,184.4z M205.6,61.5c0.3,0.4,0.8,0.6,1.3,0.6
					c0.4,0,0.8-0.1,1.1-0.4l7.4-6.1c0.7-0.6,0.9-1.7,0.2-2.5c-0.6-0.8-1.7-0.9-2.5-0.3l-7.4,6.1C205.1,59.7,205,60.8,205.6,61.5z
					 M125,0C56,0,0,56,0,125s56,125,125,125s125-56,125-125S194,0,125,0z M125,244C59.3,244,6,190.7,6,125S59.3,6,125,6
					s119,53.3,119,119S190.7,244,125,244z M204.9,192.1c-0.7-0.6-1.8-0.5-2.5,0.2c-0.6,0.7-0.5,1.8,0.2,2.5l7.3,6.1
					c0.3,0.3,0.7,0.4,1.1,0.4c0.5,0,1-0.2,1.3-0.6c0.6-0.7,0.5-1.8-0.2-2.5L204.9,192.1z M199.4,53.5c0.2,0.2,0.5,0.3,0.8,0.3
					c0.3,0,0.6-0.1,0.8-0.3l6.8-6.8c0.5-0.5,0.5-1.2,0-1.7c-0.5-0.4-1.2-0.4-1.7,0l-6.8,6.8C198.9,52.3,198.9,53,199.4,53.5z
					 M198.2,199.4c-0.5-0.5-1.2-0.5-1.7,0c-0.5,0.5-0.5,1.2,0,1.7l6.8,6.8c0.2,0.2,0.5,0.3,0.8,0.3c0.3,0,0.6-0.1,0.8-0.3
					c0.5-0.5,0.5-1.2,0-1.7L198.2,199.4z M192.3,47.6c0.3,0.3,0.7,0.4,1.1,0.4c0.5,0,1-0.2,1.3-0.6l6.1-7.3c0.6-0.7,0.5-1.8-0.2-2.5
					c-0.7-0.6-1.8-0.5-2.5,0.2l-6.1,7.4C191.5,45.9,191.6,47,192.3,47.6z M190.9,205.9c-0.6-0.8-1.7-0.8-2.5-0.2s-0.9,1.7-0.2,2.5
					l6.1,7.4c0.3,0.4,0.9,0.6,1.4,0.6c0.4,0,0.8-0.1,1.1-0.4c0.8-0.6,0.9-1.7,0.3-2.5L190.9,205.9z M224.3,125
					c0-54.9-44.5-99.4-99.3-99.4S25.7,70.1,25.7,125s44.5,99.3,99.3,99.3S224.3,179.9,224.3,125z M57.3,88.7l26.3,15.2v45.6
					l39.5,22.8v30.3l-65.8-38V88.7z M125,47.4l65.8,38l-26.3,15.2L125,77.7l-39.5,22.8L59.2,85.3L125,47.4z M123.7,163.6l-0.6-0.4
					L91.4,145v-37.3l32.3,18.6V163.6z M92.7,105.4l0.6-0.4L125,86.7l31.7,18.3l0.6,0.4L125,124L92.7,105.4z M158.6,107.7V145
					L127,163.3l-0.6,0.4v-37.3L158.6,107.7z M127,172.3l39.5-22.8v-45.6l26.3-15.2v75.9l-65.8,38V172.3z M185.4,41
					c0.4,0,0.7-0.2,1-0.5l5.4-7.9c0.4-0.5,0.2-1.3-0.3-1.6c-0.5-0.4-1.3-0.2-1.6,0.3l-5.4,7.9c-0.4,0.5-0.2,1.3,0.3,1.6
					C184.9,41,185.1,41,185.4,41z M181.3,212.8c-0.4-0.5-1.1-0.7-1.6-0.3c-0.5,0.4-0.7,1.1-0.3,1.6l5.2,8c0.2,0.4,0.6,0.5,1,0.5
					c0.2,0,0.5-0.1,0.6-0.2c0.5-0.4,0.7-1.1,0.3-1.6L181.3,212.8z M175,35.4c0.3,0.1,0.5,0.2,0.8,0.2c0.6,0,1.2-0.3,1.6-0.9l4.5-8.5
					c0.4-0.9,0.1-1.9-0.7-2.4c-0.9-0.5-1.9-0.1-2.4,0.7l-4.5,8.5C173.8,33.9,174.2,35,175,35.4z M173,217.7
					c-0.5-0.9-1.5-1.2-2.4-0.7c-0.9,0.4-1.2,1.5-0.8,2.4l4.4,8.5c0.3,0.6,0.9,0.9,1.5,0.9c0.3,0,0.5-0.1,0.8-0.2
					c0.9-0.5,1.2-1.5,0.7-2.4L173,217.7z M166.2,30.4c0.1,0.1,0.3,0.1,0.4,0.1c0.5,0,0.9-0.3,1.1-0.7l3.7-8.9c0.2-0.6,0-1.3-0.6-1.5
					c-0.6-0.2-1.3,0-1.5,0.6l-3.7,8.9C165.3,29.5,165.6,30.1,166.2,30.4z M164.3,221.6c-0.3-0.6-0.9-0.9-1.5-0.6
					c-0.6,0.3-0.9,0.9-0.6,1.5l3.7,8.8c0.2,0.4,0.6,0.7,1.1,0.7c0.1,0,0.3,0,0.5-0.1c0.6-0.3,0.9-0.9,0.6-1.5L164.3,221.6z
					 M157.8,27.8c0.2,0.1,0.3,0.1,0.5,0.1c0.7,0,1.4-0.5,1.7-1.2l2.9-9.1c0.3-0.9-0.2-1.9-1.1-2.2c-0.9-0.3-1.9,0.2-2.2,1.1
					l-2.9,9.1C156.3,26.5,156.8,27.5,157.8,27.8z M155.2,224.9c-0.3-0.9-1.3-1.5-2.2-1.2c-0.9,0.3-1.4,1.3-1.2,2.2l2.8,9.2
					c0.2,0.8,0.9,1.2,1.7,1.2c0.2,0,0.3,0,0.5-0.1c0.9-0.3,1.4-1.3,1.2-2.2L155.2,224.9z M148.2,24.5c0.1,0,0.2,0,0.2,0
					c0.5,0,1-0.4,1.1-0.9l2-9.4c0.1-0.6-0.3-1.2-0.9-1.4c-0.6-0.1-1.3,0.3-1.4,0.9l-2,9.4C147.1,23.7,147.5,24.3,148.2,24.5z
					 M142.3,226.7c-0.6,0.1-1.1,0.7-0.9,1.4l1.8,9.4c0.1,0.5,0.6,0.9,1.1,0.9c0.1,0,0.1,0,0.2,0c0.6-0.1,1-0.7,0.9-1.4l-1.8-9.4
					C143.5,227,142.9,226.6,142.3,226.7z M137.1,23.1c0.1,0,0.1,0,0.2,0c0.9,0,1.7-0.7,1.7-1.6L140,12c0.1-1-0.6-1.8-1.6-1.9
					c-1-0.1-1.8,0.6-1.9,1.6l-1,9.5C135.5,22.2,136.2,23,137.1,23.1z M132.1,227.3c-1,0.1-1.7,0.9-1.6,1.9l0.9,9.5
					c0.1,0.9,0.8,1.6,1.7,1.6c0.1,0,0.1,0,0.2,0c1-0.1,1.7-0.9,1.6-1.9l-0.9-9.5C134,228,133.1,227.3,132.1,227.3z M127,21.8
					c0.7,0,1.2-0.5,1.2-1.2v-9.6c0-0.6-0.5-1.2-1.2-1.2c-0.6,0-1.2,0.5-1.2,1.2v9.6C125.9,21.3,126.4,21.8,127,21.8z M123,228.2
					c-0.7,0-1.2,0.5-1.2,1.2v9.6c0,0.7,0.5,1.2,1.2,1.2c0.6,0,1.2-0.5,1.2-1.2v-9.6C124.1,228.7,123.6,228.2,123,228.2z M117.7,22.7
					c0,0,0.1,0,0.2,0c1-0.1,1.7-0.9,1.6-1.9l-0.9-9.5c-0.1-1-0.9-1.7-1.9-1.6c-1,0.1-1.7,0.9-1.6,1.9l0.9,9.5
					C116,22,116.8,22.7,117.7,22.7z M112.9,226.9c-1-0.1-1.8,0.6-1.9,1.6L110,238c-0.1,1,0.6,1.8,1.6,1.9c0.1,0,0.1,0,0.2,0
					c0.9,0,1.6-0.7,1.7-1.6l0.9-9.5C114.5,227.8,113.8,227,112.9,226.9z M107.5,23.3c0.1,0,0.2,0,0.2,0c0.6-0.1,1.1-0.7,0.9-1.4
					l-1.8-9.4c-0.1-0.6-0.7-1-1.4-0.9c-0.6,0.1-1,0.7-0.9,1.4l1.8,9.4C106.5,22.9,107,23.3,107.5,23.3z M101.8,225.5
					c-0.6-0.1-1.3,0.3-1.4,0.9l-2,9.4c-0.1,0.6,0.3,1.3,0.9,1.4c0.1,0,0.2,0,0.2,0c0.5,0,1-0.4,1.1-0.9l2-9.4
					C102.9,226.3,102.5,225.7,101.8,225.5z M94.8,25.1c0.2,0.8,0.9,1.2,1.7,1.2c0.2,0,0.3,0,0.5-0.1c0.9-0.3,1.4-1.3,1.2-2.2
					l-2.8-9.2c-0.3-0.9-1.3-1.4-2.2-1.2c-0.9,0.3-1.4,1.3-1.2,2.2L94.8,25.1z M92.2,222.2c-0.9-0.3-1.9,0.2-2.2,1.1l-2.9,9.1
					c-0.3,0.9,0.2,1.9,1.1,2.2c0.2,0.1,0.3,0.1,0.5,0.1c0.7,0,1.4-0.5,1.7-1.2l2.9-9.1C93.7,223.5,93.2,222.5,92.2,222.2z
					 M85.7,28.3c0.2,0.5,0.6,0.7,1.1,0.7c0.2,0,0.3,0,0.5-0.1c0.6-0.3,0.9-0.9,0.6-1.5l-3.7-8.8c-0.3-0.6-0.9-0.9-1.5-0.6
					c-0.6,0.3-0.9,0.9-0.6,1.5L85.7,28.3z M83.8,219.6c-0.6-0.2-1.3,0-1.5,0.6l-3.7,8.8c-0.2,0.6,0,1.3,0.6,1.5
					c0.1,0.1,0.3,0.1,0.4,0.1c0.5,0,0.9-0.3,1.1-0.7l3.7-8.8C84.7,220.5,84.4,219.8,83.8,219.6z M77,32.3c0.3,0.6,0.9,0.9,1.6,0.9
					c0.3,0,0.5-0.1,0.8-0.2c0.9-0.4,1.2-1.5,0.8-2.4l-4.4-8.5c-0.4-0.8-1.5-1.2-2.4-0.7s-1.2,1.5-0.7,2.4L77,32.3z M75,214.6
					c-0.9-0.5-1.9-0.1-2.4,0.7l-4.5,8.5c-0.4,0.8-0.1,1.9,0.7,2.4c0.3,0.1,0.5,0.2,0.8,0.2c0.6,0,1.2-0.3,1.5-0.9l4.5-8.5
					C76.2,216.1,75.8,215,75,214.6z M68.7,37.2c0.2,0.3,0.6,0.5,1,0.5c0.2,0,0.4-0.1,0.6-0.2c0.5-0.4,0.7-1.1,0.3-1.6l-5.2-8
					c-0.4-0.5-1.1-0.7-1.6-0.3c-0.5,0.3-0.7,1.1-0.3,1.6L68.7,37.2z M63.7,209.5l-5.4,7.9c-0.4,0.5-0.2,1.3,0.3,1.6
					c0.2,0.1,0.4,0.2,0.6,0.2c0.4,0,0.7-0.2,1-0.5l5.4-7.9c0.4-0.5,0.2-1.3-0.3-1.6C64.8,208.8,64,208.9,63.7,209.5z M59.1,44.1
					c0.3,0.4,0.8,0.6,1.3,0.6c0.4,0,0.8-0.1,1.1-0.4c0.8-0.6,0.9-1.7,0.2-2.5l-6.1-7.4c-0.6-0.7-1.7-0.9-2.5-0.2
					c-0.8,0.6-0.9,1.7-0.3,2.5L59.1,44.1z M57.7,202.4c-0.7-0.6-1.8-0.5-2.5,0.2l-6.1,7.3c-0.6,0.7-0.5,1.8,0.2,2.5
					c0.3,0.3,0.7,0.4,1.1,0.4c0.5,0,1-0.2,1.3-0.6l6.1-7.3C58.5,204.1,58.4,203,57.7,202.4z M51.8,50.6c0.2,0.2,0.5,0.3,0.8,0.3
					s0.6-0.1,0.8-0.3c0.5-0.5,0.5-1.2,0-1.6l-6.8-6.8c-0.4-0.5-1.2-0.5-1.6,0c-0.5,0.5-0.5,1.2,0,1.6L51.8,50.6z M50.6,196.5
					c-0.4-0.5-1.2-0.5-1.6,0l-6.8,6.8c-0.5,0.5-0.5,1.2,0,1.7c0.2,0.2,0.5,0.3,0.8,0.3s0.6-0.1,0.8-0.3l6.8-6.8
					C51.1,197.7,51.1,197,50.6,196.5z M45.1,57.9c0.3,0.3,0.7,0.4,1.1,0.4c0.5,0,1-0.2,1.3-0.6c0.6-0.7,0.5-1.8-0.2-2.5L40,49.1
					c-0.7-0.6-1.8-0.5-2.5,0.2s-0.5,1.9,0.2,2.5L45.1,57.9z M44.4,188.5c-0.6-0.8-1.7-0.9-2.5-0.2l-7.4,6.1
					c-0.7,0.6-0.9,1.7-0.2,2.5c0.3,0.4,0.8,0.6,1.3,0.6c0.4,0,0.8-0.1,1.1-0.4l7.4-6.1C44.9,190.3,45,189.2,44.4,188.5z M39.2,65.6
					c0.2,0.1,0.4,0.2,0.7,0.2c0.4,0,0.7-0.2,1-0.5c0.4-0.5,0.2-1.3-0.3-1.6l-7.9-5.4c-0.5-0.4-1.3-0.2-1.6,0.3
					c-0.4,0.5-0.2,1.3,0.3,1.6L39.2,65.6z M37.5,179.7c-0.4-0.5-1.1-0.7-1.6-0.3l-8,5.2c-0.5,0.3-0.7,1.1-0.3,1.6
					c0.2,0.3,0.6,0.5,1,0.5c0.2,0,0.4-0.1,0.6-0.2l8-5.2C37.7,181,37.9,180.3,37.5,179.7z M24.6,71.2l8.5,4.5
					c0.3,0.1,0.5,0.2,0.8,0.2c0.6,0,1.2-0.3,1.5-0.9c0.5-0.8,0.1-1.9-0.7-2.4l-8.5-4.5c-0.8-0.5-1.9-0.1-2.4,0.7
					C23.4,69.7,23.8,70.7,24.6,71.2z M33.1,170.6c-0.4-0.9-1.5-1.2-2.4-0.8l-8.5,4.4c-0.9,0.4-1.2,1.5-0.7,2.4
					c0.3,0.6,0.9,0.9,1.5,0.9c0.3,0,0.6-0.1,0.8-0.2l8.5-4.4C33.2,172.5,33.5,171.4,33.1,170.6z M20,80.8l8.9,3.7
					c0.1,0.1,0.3,0.1,0.4,0.1c0.5,0,0.9-0.3,1.1-0.7c0.2-0.6,0-1.3-0.6-1.5l-8.9-3.6c-0.6-0.2-1.3,0-1.5,0.6
					C19.1,79.9,19.4,80.5,20,80.8z M29,162.8c-0.3-0.6-0.9-0.9-1.5-0.6l-8.8,3.7c-0.6,0.2-0.9,0.9-0.6,1.5c0.2,0.5,0.6,0.7,1.1,0.7
					c0.2,0,0.3,0,0.5-0.1l8.8-3.7C28.9,164,29.2,163.4,29,162.8z M16.4,90.5l9.1,2.9c0.2,0.1,0.4,0.1,0.5,0.1c0.8,0,1.4-0.5,1.7-1.2
					c0.3-0.9-0.2-1.9-1.1-2.2l-9.1-2.9c-0.9-0.3-1.9,0.2-2.2,1.1C15,89.2,15.5,90.2,16.4,90.5z M26.3,153c-0.3-0.9-1.3-1.4-2.2-1.2
					l-9.2,2.8c-0.9,0.3-1.4,1.3-1.2,2.2c0.2,0.8,0.9,1.2,1.7,1.2c0.2,0,0.3,0,0.5-0.1l9.2-2.8C26,154.9,26.6,153.9,26.3,153z
					 M13.7,100.8l9.4,2c0.1,0,0.2,0,0.2,0c0.5,0,1-0.4,1.1-0.9c0.1-0.6-0.3-1.2-0.9-1.4l-9.4-2c-0.6-0.1-1.3,0.3-1.4,0.9
					S13.1,100.6,13.7,100.8z M23.3,142.3c-0.1-0.6-0.7-1-1.4-0.9l-9.4,1.8c-0.6,0.1-1,0.7-0.9,1.4c0.1,0.6,0.6,1,1.1,1
					c0.1,0,0.2,0,0.2,0l9.4-1.8C23,143.5,23.4,142.9,23.3,142.3z M11.7,113.5l9.5,0.9c0,0,0.1,0,0.2,0c0.9,0,1.7-0.7,1.7-1.6
					c0.1-1-0.6-1.8-1.6-1.9L12,110c-1-0.1-1.8,0.6-1.9,1.6C10,112.5,10.7,113.4,11.7,113.5z M22.7,132.1c-0.1-1-0.9-1.7-1.9-1.6
					l-9.5,0.8c-1,0.1-1.7,0.9-1.6,1.9c0.1,0.9,0.8,1.6,1.7,1.6c0,0,0.1,0,0.2,0l9.5-0.9C22,134,22.7,133.1,22.7,132.1z M11.1,124.1
					h9.6c0.6,0,1.2-0.5,1.2-1.2c0-0.7-0.5-1.2-1.2-1.2h-9.6c-0.6,0-1.2,0.5-1.2,1.2C9.9,123.6,10.5,124.1,11.1,124.1z"/>
			</g>
			<g>
				<path class="st3" d="M125,29.3c-52.9,0-95.8,42.9-95.8,95.8s42.9,95.8,95.8,95.8s95.8-42.9,95.8-95.8S177.9,29.3,125,29.3z
					 M125,47.4l65.8,38l-26.3,15.2L125,77.7l-39.5,22.8L59.2,85.3L125,47.4z M123,202.6l-65.8-38V88.7l26.3,15.2v45.6l39.5,22.8
					V202.6z M123.7,163.6l-0.6-0.4L91.4,145v-37.3l32.3,18.6V163.6z M92.7,105.4l0.6-0.4L125,86.7l31.7,18.3l0.6,0.4L125,124
					L92.7,105.4z M126.3,126.3l32.3-18.6V145L127,163.3l-0.6,0.4V126.3z M127,202.6v-30.3l39.5-22.8v-45.6l26.3-15.2v75.9L127,202.6
					z"/>
			</g>
			<g class="st4">
				<path d="M187,197.9c-16.7,14.2-38.3,22.8-62,22.8c-52.9,0-95.8-42.9-95.8-95.8c0-45.7,32-83.9,74.7-93.4
					c-20.6,17.6-33.7,43.7-33.7,72.9c0,52.9,42.9,95.8,95.8,95.8C173.2,200.2,180.3,199.4,187,197.9z"/>
			</g>
		</g>
		<g>
			<path class="st3" d="M127,9.9c-0.6,0-1.2,0.5-1.2,1.2v9.6c0,0.7,0.5,1.2,1.2,1.2c0.7,0,1.2-0.5,1.2-1.2v-9.6
				C128.2,10.5,127.7,9.9,127,9.9z"/>
			<path class="st3" d="M123,228.2c-0.7,0-1.2,0.5-1.2,1.2v9.6c0,0.7,0.5,1.2,1.2,1.2c0.6,0,1.2-0.5,1.2-1.2v-9.6
				C124.1,228.7,123.6,228.2,123,228.2z"/>
			<path class="st3" d="M238.9,125.9h-9.6c-0.7,0-1.2,0.5-1.2,1.2c0,0.7,0.5,1.2,1.2,1.2h9.6c0.6,0,1.2-0.5,1.2-1.2
				C240.1,126.4,239.5,125.9,238.9,125.9z"/>
			<path class="st3" d="M11.1,124.1h9.6c0.6,0,1.2-0.5,1.2-1.2c0-0.7-0.5-1.2-1.2-1.2h-9.6c-0.6,0-1.2,0.5-1.2,1.2
				C9.9,123.6,10.5,124.1,11.1,124.1z"/>
			<path class="st3" d="M199.4,53.5c0.2,0.2,0.5,0.3,0.8,0.3c0.3,0,0.6-0.1,0.8-0.3l6.8-6.8c0.5-0.5,0.5-1.2,0-1.7
				c-0.5-0.4-1.2-0.4-1.7,0l-6.8,6.8C198.9,52.3,198.9,53,199.4,53.5z"/>
			<path class="st3" d="M50.6,196.5c-0.4-0.5-1.2-0.5-1.6,0l-6.8,6.8c-0.5,0.5-0.5,1.2,0,1.7c0.2,0.2,0.5,0.3,0.8,0.3
				s0.6-0.1,0.8-0.3l6.8-6.8C51.1,197.7,51.1,197,50.6,196.5z"/>
			<path class="st3" d="M198.2,199.4c-0.5-0.5-1.2-0.5-1.7,0c-0.5,0.5-0.5,1.2,0,1.7l6.8,6.8c0.2,0.2,0.5,0.3,0.8,0.3
				c0.3,0,0.6-0.1,0.8-0.3c0.5-0.5,0.5-1.2,0-1.7L198.2,199.4z"/>
			<path class="st3" d="M51.8,50.6c0.2,0.2,0.5,0.3,0.8,0.3s0.6-0.1,0.8-0.3c0.5-0.5,0.5-1.2,0-1.6l-6.8-6.8c-0.4-0.5-1.2-0.5-1.6,0
				c-0.5,0.5-0.5,1.2,0,1.6L51.8,50.6z"/>
			<path class="st3" d="M166.2,30.4c0.1,0.1,0.3,0.1,0.4,0.1c0.5,0,0.9-0.3,1.1-0.7l3.7-8.9c0.2-0.6,0-1.3-0.6-1.5
				c-0.6-0.2-1.3,0-1.5,0.6l-3.7,8.9C165.3,29.5,165.6,30.1,166.2,30.4z"/>
			<path class="st3" d="M83.8,219.6c-0.6-0.2-1.3,0-1.5,0.6l-3.7,8.8c-0.2,0.6,0,1.3,0.6,1.5c0.1,0.1,0.3,0.1,0.4,0.1
				c0.5,0,0.9-0.3,1.1-0.7l3.7-8.8C84.7,220.5,84.4,219.8,83.8,219.6z"/>
			<path class="st3" d="M230,169.2l-8.9-3.6c-0.6-0.2-1.3,0-1.5,0.6c-0.2,0.6,0,1.3,0.6,1.5l8.9,3.7c0.1,0.1,0.3,0.1,0.4,0.1
				c0.5,0,0.9-0.3,1.1-0.7C230.9,170.1,230.6,169.5,230,169.2z"/>
			<path class="st3" d="M20,80.8l8.9,3.7c0.1,0.1,0.3,0.1,0.4,0.1c0.5,0,0.9-0.3,1.1-0.7c0.2-0.6,0-1.3-0.6-1.5l-8.9-3.6
				c-0.6-0.2-1.3,0-1.5,0.6C19.1,79.9,19.4,80.5,20,80.8z"/>
			<path class="st3" d="M221,87.2c0.2,0.4,0.6,0.7,1.1,0.7c0.2,0,0.3,0,0.5-0.1l8.8-3.7c0.6-0.2,0.9-0.9,0.6-1.5
				c-0.3-0.6-0.9-0.9-1.5-0.6l-8.8,3.7C221.1,86,220.8,86.6,221,87.2z"/>
			<path class="st3" d="M29,162.8c-0.3-0.6-0.9-0.9-1.5-0.6l-8.8,3.7c-0.6,0.2-0.9,0.9-0.6,1.5c0.2,0.5,0.6,0.7,1.1,0.7
				c0.2,0,0.3,0,0.5-0.1l8.8-3.7C28.9,164,29.2,163.4,29,162.8z"/>
			<path class="st3" d="M164.3,221.6c-0.3-0.6-0.9-0.9-1.5-0.6c-0.6,0.3-0.9,0.9-0.6,1.5l3.7,8.8c0.2,0.4,0.6,0.7,1.1,0.7
				c0.1,0,0.3,0,0.5-0.1c0.6-0.3,0.9-0.9,0.6-1.5L164.3,221.6z"/>
			<path class="st3" d="M87.9,27.5l-3.7-8.8c-0.3-0.6-0.9-0.9-1.5-0.6c-0.6,0.3-0.9,0.9-0.6,1.5l3.7,8.8c0.2,0.5,0.6,0.7,1.1,0.7
				c0.2,0,0.3,0,0.5-0.1C87.8,28.7,88.1,28,87.9,27.5z"/>
			<path class="st3" d="M150.6,12.8c-0.6-0.1-1.3,0.3-1.4,0.9l-2,9.4c-0.1,0.6,0.3,1.3,0.9,1.4c0.1,0,0.2,0,0.2,0
				c0.5,0,1-0.4,1.1-0.9l2-9.4C151.6,13.5,151.2,12.9,150.6,12.8z"/>
			<path class="st3" d="M101.8,225.5c-0.6-0.1-1.3,0.3-1.4,0.9l-2,9.4c-0.1,0.6,0.3,1.3,0.9,1.4c0.1,0,0.2,0,0.2,0
				c0.5,0,1-0.4,1.1-0.9l2-9.4C102.9,226.3,102.5,225.7,101.8,225.5z"/>
			<path class="st3" d="M236.3,149.2l-9.4-2c-0.6-0.1-1.3,0.3-1.4,0.9c-0.1,0.6,0.3,1.2,0.9,1.4l9.4,2c0.1,0,0.2,0,0.2,0
				c0.5,0,1-0.4,1.1-0.9C237.3,150,236.9,149.3,236.3,149.2z"/>
			<path class="st3" d="M13.7,100.8l9.4,2c0.1,0,0.2,0,0.2,0c0.5,0,1-0.4,1.1-0.9c0.1-0.6-0.3-1.2-0.9-1.4l-9.4-2
				c-0.6-0.1-1.3,0.3-1.4,0.9S13.1,100.6,13.7,100.8z"/>
			<path class="st3" d="M212.5,70.3c0.2,0.4,0.6,0.5,1,0.5c0.2,0,0.4-0.1,0.6-0.2l8-5.2c0.5-0.4,0.7-1.1,0.3-1.6
				c-0.4-0.5-1.1-0.7-1.6-0.3l-8,5.2C212.3,69,212.1,69.7,212.5,70.3z"/>
			<path class="st3" d="M37.5,179.7c-0.4-0.5-1.1-0.7-1.6-0.3l-8,5.2c-0.5,0.3-0.7,1.1-0.3,1.6c0.2,0.3,0.6,0.5,1,0.5
				c0.2,0,0.4-0.1,0.6-0.2l8-5.2C37.7,181,37.9,180.3,37.5,179.7z"/>
			<path class="st3" d="M181.3,212.8c-0.4-0.5-1.1-0.7-1.6-0.3c-0.5,0.4-0.7,1.1-0.3,1.6l5.2,8c0.2,0.4,0.6,0.5,1,0.5
				c0.2,0,0.5-0.1,0.6-0.2c0.5-0.4,0.7-1.1,0.3-1.6L181.3,212.8z"/>
			<path class="st3" d="M68.7,37.2c0.2,0.3,0.6,0.5,1,0.5c0.2,0,0.4-0.1,0.6-0.2c0.5-0.4,0.7-1.1,0.3-1.6l-5.2-8
				c-0.4-0.5-1.1-0.7-1.6-0.3c-0.5,0.3-0.7,1.1-0.3,1.6L68.7,37.2z"/>
			<path class="st3" d="M185.4,41c0.4,0,0.7-0.2,1-0.5l5.4-7.9c0.4-0.5,0.2-1.3-0.3-1.6c-0.5-0.4-1.3-0.2-1.6,0.3l-5.4,7.9
				c-0.4,0.5-0.2,1.3,0.3,1.6C184.9,41,185.1,41,185.4,41z"/>
			<path class="st3" d="M63.7,209.5l-5.4,7.9c-0.4,0.5-0.2,1.3,0.3,1.6c0.2,0.1,0.4,0.2,0.6,0.2c0.4,0,0.7-0.2,1-0.5l5.4-7.9
				c0.4-0.5,0.2-1.3-0.3-1.6C64.8,208.8,64,208.9,63.7,209.5z"/>
			<path class="st3" d="M210.8,184.4c-0.5-0.4-1.3-0.2-1.6,0.3c-0.4,0.5-0.2,1.3,0.3,1.6l7.9,5.4c0.2,0.1,0.4,0.2,0.7,0.2
				c0.4,0,0.7-0.2,1-0.5c0.4-0.5,0.2-1.3-0.3-1.6L210.8,184.4z"/>
			<path class="st3" d="M39.2,65.6c0.2,0.1,0.4,0.2,0.7,0.2c0.4,0,0.7-0.2,1-0.5c0.4-0.5,0.2-1.3-0.3-1.6l-7.9-5.4
				c-0.5-0.4-1.3-0.2-1.6,0.3c-0.4,0.5-0.2,1.3,0.3,1.6L39.2,65.6z"/>
			<path class="st3" d="M226.7,107.7c0.1,0.6,0.6,1,1.1,1c0.1,0,0.2,0,0.2,0l9.4-1.8c0.6-0.1,1-0.7,0.9-1.4c-0.1-0.6-0.7-1-1.4-0.9
				l-9.4,1.8C227,106.5,226.6,107.1,226.7,107.7z"/>
			<path class="st3" d="M23.3,142.3c-0.1-0.6-0.7-1-1.4-0.9l-9.4,1.8c-0.6,0.1-1,0.7-0.9,1.4c0.1,0.6,0.6,1,1.1,1c0.1,0,0.2,0,0.2,0
				l9.4-1.8C23,143.5,23.4,142.9,23.3,142.3z"/>
			<path class="st3" d="M142.3,226.7c-0.6,0.1-1.1,0.7-0.9,1.4l1.8,9.4c0.1,0.5,0.6,0.9,1.1,0.9c0.1,0,0.1,0,0.2,0
				c0.6-0.1,1-0.7,0.9-1.4l-1.8-9.4C143.5,227,142.9,226.6,142.3,226.7z"/>
			<path class="st3" d="M105.5,11.6c-0.6,0.1-1,0.7-0.9,1.4l1.8,9.4c0.1,0.5,0.6,0.9,1.1,0.9c0.1,0,0.2,0,0.2,0
				c0.6-0.1,1.1-0.7,0.9-1.4l-1.8-9.4C106.7,11.9,106.1,11.5,105.5,11.6z"/>
			<path class="st5" d="M138.4,10.1c-1-0.1-1.8,0.6-1.9,1.6l-1,9.5c-0.1,1,0.6,1.8,1.6,1.9c0.1,0,0.1,0,0.2,0c0.9,0,1.7-0.7,1.7-1.6
				L140,12C140.1,11.1,139.4,10.2,138.4,10.1z"/>
			<path class="st5" d="M112.9,226.9c-1-0.1-1.8,0.6-1.9,1.6L110,238c-0.1,1,0.6,1.8,1.6,1.9c0.1,0,0.1,0,0.2,0
				c0.9,0,1.6-0.7,1.7-1.6l0.9-9.5C114.5,227.8,113.8,227,112.9,226.9z"/>
			<path class="st5" d="M238.3,136.5l-9.5-0.9c-1-0.1-1.8,0.6-1.9,1.6c-0.1,1,0.6,1.8,1.6,1.9l9.5,0.9c0.1,0,0.1,0,0.2,0
				c0.9,0,1.6-0.7,1.7-1.6C240,137.5,239.3,136.6,238.3,136.5z"/>
			<path class="st5" d="M11.7,113.5l9.5,0.9c0,0,0.1,0,0.2,0c0.9,0,1.7-0.7,1.7-1.6c0.1-1-0.6-1.8-1.6-1.9L12,110
				c-1-0.1-1.8,0.6-1.9,1.6C10,112.5,10.7,113.4,11.7,113.5z"/>
			<path class="st5" d="M205.6,61.5c0.3,0.4,0.8,0.6,1.3,0.6c0.4,0,0.8-0.1,1.1-0.4l7.4-6.1c0.7-0.6,0.9-1.7,0.2-2.5
				c-0.6-0.8-1.7-0.9-2.5-0.3l-7.4,6.1C205.1,59.7,205,60.8,205.6,61.5z"/>
			<path class="st5" d="M44.4,188.5c-0.6-0.8-1.7-0.9-2.5-0.2l-7.4,6.1c-0.7,0.6-0.9,1.7-0.2,2.5c0.3,0.4,0.8,0.6,1.3,0.6
				c0.4,0,0.8-0.1,1.1-0.4l7.4-6.1C44.9,190.3,45,189.2,44.4,188.5z"/>
			<path class="st5" d="M190.9,205.9c-0.6-0.8-1.7-0.8-2.5-0.2s-0.9,1.7-0.2,2.5l6.1,7.4c0.3,0.4,0.9,0.6,1.4,0.6
				c0.4,0,0.8-0.1,1.1-0.4c0.8-0.6,0.9-1.7,0.3-2.5L190.9,205.9z"/>
			<path class="st5" d="M59.1,44.1c0.3,0.4,0.8,0.6,1.3,0.6c0.4,0,0.8-0.1,1.1-0.4c0.8-0.6,0.9-1.7,0.2-2.5l-6.1-7.4
				c-0.6-0.7-1.7-0.9-2.5-0.2c-0.8,0.6-0.9,1.7-0.3,2.5L59.1,44.1z"/>
			<path class="st5" d="M175,35.4c0.3,0.1,0.5,0.2,0.8,0.2c0.6,0,1.2-0.3,1.6-0.9l4.5-8.5c0.4-0.9,0.1-1.9-0.7-2.4
				c-0.9-0.5-1.9-0.1-2.4,0.7l-4.5,8.5C173.8,33.9,174.2,35,175,35.4z"/>
			<path class="st5" d="M75,214.6c-0.9-0.5-1.9-0.1-2.4,0.7l-4.5,8.5c-0.4,0.8-0.1,1.9,0.7,2.4c0.3,0.1,0.5,0.2,0.8,0.2
				c0.6,0,1.2-0.3,1.5-0.9l4.5-8.5C76.2,216.1,75.8,215,75,214.6z"/>
			<path class="st5" d="M225.4,178.8l-8.5-4.5c-0.9-0.5-1.9-0.1-2.4,0.7c-0.5,0.9-0.1,1.9,0.7,2.4l8.5,4.5c0.3,0.1,0.5,0.2,0.8,0.2
				c0.6,0,1.2-0.3,1.5-0.9C226.6,180.3,226.3,179.3,225.4,178.8z"/>
			<path class="st5" d="M24.6,71.2l8.5,4.5c0.3,0.1,0.5,0.2,0.8,0.2c0.6,0,1.2-0.3,1.5-0.9c0.5-0.8,0.1-1.9-0.7-2.4l-8.5-4.5
				c-0.8-0.5-1.9-0.1-2.4,0.7C23.4,69.7,23.8,70.7,24.6,71.2z"/>
			<path class="st5" d="M223.7,97c0.2,0.8,0.9,1.2,1.7,1.2c0.2,0,0.3,0,0.5-0.1l9.2-2.8c0.9-0.3,1.4-1.3,1.2-2.2
				c-0.3-0.9-1.3-1.4-2.2-1.2l-9.2,2.8C224,95.1,223.4,96.1,223.7,97z"/>
			<path class="st5" d="M26.3,153c-0.3-0.9-1.3-1.4-2.2-1.2l-9.2,2.8c-0.9,0.3-1.4,1.3-1.2,2.2c0.2,0.8,0.9,1.2,1.7,1.2
				c0.2,0,0.3,0,0.5-0.1l9.2-2.8C26,154.9,26.6,153.9,26.3,153z"/>
			<path class="st5" d="M155.2,224.9c-0.3-0.9-1.3-1.5-2.2-1.2c-0.9,0.3-1.4,1.3-1.2,2.2l2.8,9.2c0.2,0.8,0.9,1.2,1.7,1.2
				c0.2,0,0.3,0,0.5-0.1c0.9-0.3,1.4-1.3,1.2-2.2L155.2,224.9z"/>
			<path class="st5" d="M95.4,14.9c-0.3-0.9-1.3-1.4-2.2-1.2c-0.9,0.3-1.4,1.3-1.2,2.2l2.8,9.2c0.2,0.8,0.9,1.2,1.7,1.2
				c0.2,0,0.3,0,0.5-0.1c0.9-0.3,1.4-1.3,1.2-2.2L95.4,14.9z"/>
			<path class="st6" d="M161.7,15.3c-0.9-0.3-1.9,0.2-2.2,1.1l-2.9,9.1c-0.3,0.9,0.2,1.9,1.2,2.2c0.2,0.1,0.3,0.1,0.5,0.1
				c0.7,0,1.4-0.5,1.7-1.2l2.9-9.1C163.1,16.6,162.6,15.6,161.7,15.3z"/>
			<path class="st6" d="M92.2,222.2c-0.9-0.3-1.9,0.2-2.2,1.1l-2.9,9.1c-0.3,0.9,0.2,1.9,1.1,2.2c0.2,0.1,0.3,0.1,0.5,0.1
				c0.7,0,1.4-0.5,1.7-1.2l2.9-9.1C93.7,223.5,93.2,222.5,92.2,222.2z"/>
			<path class="st6" d="M233.6,159.5l-9.1-2.9c-0.9-0.3-1.9,0.2-2.2,1.1c-0.3,0.9,0.2,1.9,1.1,2.2l9.1,2.9c0.2,0.1,0.4,0.1,0.5,0.1
				c0.8,0,1.4-0.5,1.7-1.2C235,160.8,234.5,159.8,233.6,159.5z"/>
			<path class="st6" d="M16.4,90.5l9.1,2.9c0.2,0.1,0.4,0.1,0.5,0.1c0.8,0,1.4-0.5,1.7-1.2c0.3-0.9-0.2-1.9-1.1-2.2l-9.1-2.9
				c-0.9-0.3-1.9,0.2-2.2,1.1C15,89.2,15.5,90.2,16.4,90.5z"/>
			<path class="st6" d="M216.9,79.4c0.3,0.6,0.9,1,1.5,1c0.3,0,0.6-0.1,0.8-0.2l8.5-4.4c0.9-0.4,1.2-1.5,0.7-2.4s-1.5-1.2-2.4-0.7
				l-8.5,4.4C216.8,77.5,216.5,78.6,216.9,79.4z"/>
			<path class="st6" d="M33.1,170.6c-0.4-0.9-1.5-1.2-2.4-0.8l-8.5,4.4c-0.9,0.4-1.2,1.5-0.7,2.4c0.3,0.6,0.9,0.9,1.5,0.9
				c0.3,0,0.6-0.1,0.8-0.2l8.5-4.4C33.2,172.5,33.5,171.4,33.1,170.6z"/>
			<path class="st6" d="M173,217.7c-0.5-0.9-1.5-1.2-2.4-0.7c-0.9,0.4-1.2,1.5-0.8,2.4l4.4,8.5c0.3,0.6,0.9,0.9,1.5,0.9
				c0.3,0,0.5-0.1,0.8-0.2c0.9-0.5,1.2-1.5,0.7-2.4L173,217.7z"/>
			<path class="st6" d="M79.4,33.1c0.9-0.4,1.2-1.5,0.8-2.4l-4.4-8.5c-0.4-0.8-1.5-1.2-2.4-0.7s-1.2,1.5-0.7,2.4l4.4,8.5
				c0.3,0.6,0.9,0.9,1.6,0.9C78.9,33.3,79.2,33.2,79.4,33.1z"/>
			<path class="st6" d="M192.3,47.6c0.3,0.3,0.7,0.4,1.1,0.4c0.5,0,1-0.2,1.3-0.6l6.1-7.3c0.6-0.7,0.5-1.8-0.2-2.5
				c-0.7-0.6-1.8-0.5-2.5,0.2l-6.1,7.4C191.5,45.9,191.6,47,192.3,47.6z"/>
			<path class="st6" d="M57.7,202.4c-0.7-0.6-1.8-0.5-2.5,0.2l-6.1,7.3c-0.6,0.7-0.5,1.8,0.2,2.5c0.3,0.3,0.7,0.4,1.1,0.4
				c0.5,0,1-0.2,1.3-0.6l6.1-7.3C58.5,204.1,58.4,203,57.7,202.4z"/>
			<path class="st6" d="M204.9,192.1c-0.7-0.6-1.8-0.5-2.5,0.2c-0.6,0.7-0.5,1.8,0.2,2.5l7.3,6.1c0.3,0.3,0.7,0.4,1.1,0.4
				c0.5,0,1-0.2,1.3-0.6c0.6-0.7,0.5-1.8-0.2-2.5L204.9,192.1z"/>
			<path class="st6" d="M45.1,57.9c0.3,0.3,0.7,0.4,1.1,0.4c0.5,0,1-0.2,1.3-0.6c0.6-0.7,0.5-1.8-0.2-2.5L40,49.1
				c-0.7-0.6-1.8-0.5-2.5,0.2s-0.5,1.9,0.2,2.5L45.1,57.9z"/>
			<path class="st6" d="M227.3,117.9c0.1,0.9,0.9,1.6,1.7,1.6c0.1,0,0.1,0,0.2,0l9.5-0.9c1-0.1,1.7-0.9,1.6-1.9
				c-0.1-1-0.9-1.7-1.9-1.6l-9.5,0.9C228,116,227.3,116.9,227.3,117.9z"/>
			<path class="st6" d="M22.7,132.1c-0.1-1-0.9-1.7-1.9-1.6l-9.5,0.8c-1,0.1-1.7,0.9-1.6,1.9c0.1,0.9,0.8,1.6,1.7,1.6
				c0,0,0.1,0,0.2,0l9.5-0.9C22,134,22.7,133.1,22.7,132.1z"/>
			<path class="st6" d="M132.1,227.3c-1,0.1-1.7,0.9-1.6,1.9l0.9,9.5c0.1,0.9,0.8,1.6,1.7,1.6c0.1,0,0.1,0,0.2,0
				c1-0.1,1.7-0.9,1.6-1.9l-0.9-9.5C134,228,133.1,227.3,132.1,227.3z"/>
			<path class="st6" d="M116.7,9.6c-1,0.1-1.7,0.9-1.6,1.9l0.9,9.5c0.1,0.9,0.8,1.6,1.7,1.6c0,0,0.1,0,0.2,0c1-0.1,1.7-0.9,1.6-1.9
				l-0.9-9.5C118.5,10.3,117.7,9.5,116.7,9.6z"/>
		</g>
	</g>
</g>
</svg>
