<?xml version="1.0" encoding="utf-8"?>
<!-- Generator: Adobe Illustrator 21.0.0, SVG Export Plug-In . SVG Version: 6.00 Build 0)  -->
<svg version="1.1" id="Capa_1" xmlns="http://www.w3.org/2000/svg" xmlns:xlink="http://www.w3.org/1999/xlink" x="0px" y="0px"
	 width="275px" height="275px" viewBox="0 0 275 275" style="enable-background:new 0 0 275 275;" xml:space="preserve">
<style type="text/css">
	.st0{fill:#2AA686;}
</style>
<g>
	<g>
		<path class="st0" d="M138.5,216.9v-32.6l39.5-22.8v-45.6l28.3-16.3v78.3L138.5,216.9z M140.5,185.4v28l63.8-36.8V103L180,117v45.6
			L140.5,185.4z"/>
		<path class="st0" d="M136.7,177l-1.4-0.8l-31.9-18.4v-38.4l33.3,19.2V177z M104.4,157.2l31.3,18.1v-36.1l-31.3-18.1V157.2z"/>
		<path class="st0" d="M177,114.2l-39.5-22.8L98,114.2L69.7,97.8l67.8-39.1l67.8,39.1L177,114.2z M73.7,97.8l24.3,14L137.5,89
			l39.5,22.8l24.3-14L137.5,61L73.7,97.8z"/>
		<path class="st0" d="M138.3,177v-38.4l33.3-19.2v38.4l-0.3,0.1L138.3,177z M139.3,139.1v36.1l31.3-18.1v-36.1L139.3,139.1z"/>
		<path class="st0" d="M137.5,137.1l-33.3-19.2l1.3-0.8l31.9-18.4l33.3,19.2L137.5,137.1z M106.2,117.9l31.3,18.1l31.3-18.1
			l-31.3-18.1L106.2,117.9z"/>
		<path class="st0" d="M136.5,216.9l-67.8-39.1V99.5L97,115.8v45.6l39.5,22.8V216.9z M70.8,176.6l63.8,36.8v-28L95,162.6V117
			l-24.3-14V176.6z"/>
	</g>
	<g>
		<path class="st0" d="M137.5,237.6c-55.2,0-100.1-44.9-100.1-100.1S82.3,37.4,137.5,37.4s100.1,44.9,100.1,100.1
			S192.7,237.6,137.5,237.6z M137.5,38.9c-54.4,0-98.6,44.2-98.6,98.6s44.2,98.6,98.6,98.6s98.6-44.2,98.6-98.6
			S191.9,38.9,137.5,38.9z"/>
		<path class="st0" d="M137.5,234C84.3,234,41,190.7,41,137.5C41,84.3,84.3,41,137.5,41c53.2,0,96.5,43.3,96.5,96.5
			C234,190.7,190.7,234,137.5,234z M137.5,42.5c-52.4,0-95,42.6-95,95c0,52.4,42.6,95,95,95c52.4,0,95-42.6,95-95
			C232.5,85.1,189.9,42.5,137.5,42.5z"/>
	</g>
	<g>
		<path class="st0" d="M137.5,263.3c-69.3,0-125.8-56.4-125.8-125.8S68.2,11.8,137.5,11.8s125.8,56.4,125.8,125.8
			S206.8,263.3,137.5,263.3z M137.5,13.3C69,13.3,13.3,69,13.3,137.5S69,261.8,137.5,261.8S261.8,206,261.8,137.5
			S206,13.3,137.5,13.3z"/>
		<path class="st0" d="M137.5,257.3c-66,0-119.8-53.7-119.8-119.8S71.5,17.8,137.5,17.8s119.8,53.7,119.8,119.8
			S203.5,257.3,137.5,257.3z M137.5,19.3c-65.2,0-118.3,53-118.3,118.3s53,118.3,118.3,118.3s118.3-53,118.3-118.3
			S202.7,19.3,137.5,19.3z"/>
	</g>
	<g>
		<path class="st0" d="M139.5,34.6c-0.8,0-1.4-0.6-1.4-1.4v-9.6c0-0.8,0.6-1.4,1.4-1.4c0.8,0,1.4,0.6,1.4,1.4v9.6
			C141,34,140.3,34.6,139.5,34.6z M139.5,22.7c-0.5,0-0.9,0.4-0.9,0.9v9.6c0,0.5,0.4,0.9,0.9,0.9c0.5,0,0.9-0.4,0.9-0.9v-9.6
			C140.5,23.1,140.1,22.7,139.5,22.7z"/>
		<path class="st0" d="M135.5,252.8c-0.8,0-1.4-0.6-1.4-1.4v-9.6c0-0.8,0.6-1.4,1.4-1.4c0.8,0,1.4,0.6,1.4,1.4v9.6
			C136.9,252.2,136.2,252.8,135.5,252.8z M135.5,240.9c-0.5,0-0.9,0.4-0.9,0.9v9.6c0,0.5,0.4,0.9,0.9,0.9c0.5,0,0.9-0.4,0.9-0.9
			v-9.6C136.4,241.3,136,240.9,135.5,240.9z"/>
		<path class="st0" d="M251.4,141h-9.6c-0.8,0-1.4-0.6-1.4-1.4s0.6-1.4,1.4-1.4h9.6c0.8,0,1.4,0.6,1.4,1.4S252.2,141,251.4,141z
			 M241.8,138.6c-0.5,0-0.9,0.4-0.9,0.9c0,0.5,0.4,0.9,0.9,0.9h9.6c0.5,0,0.9-0.4,0.9-0.9c0-0.5-0.4-0.9-0.9-0.9H241.8z"/>
		<path class="st0" d="M33.2,136.9h-9.6c-0.8,0-1.4-0.6-1.4-1.4c0-0.8,0.6-1.4,1.4-1.4h9.6c0.8,0,1.4,0.6,1.4,1.4
			C34.6,136.2,34,136.9,33.2,136.9z M23.6,134.5c-0.5,0-0.9,0.4-0.9,0.9c0,0.5,0.4,0.9,0.9,0.9h9.6c0.5,0,0.9-0.4,0.9-0.9
			c0-0.5-0.4-0.9-0.9-0.9H23.6z"/>
		<path class="st0" d="M212.7,66.6c-0.4,0-0.7-0.1-1-0.4c-0.3-0.3-0.4-0.6-0.4-1c0-0.4,0.1-0.7,0.4-1l6.8-6.8c0.5-0.5,1.4-0.5,2,0
			c0.5,0.6,0.5,1.5,0,2l-6.8,6.8C213.5,66.4,213.1,66.6,212.7,66.6z M219.5,57.5c-0.2,0-0.5,0.1-0.6,0.3l-6.8,6.8
			c-0.2,0.2-0.3,0.4-0.3,0.7c0,0.2,0.1,0.5,0.3,0.6l0,0c0.4,0.4,0.9,0.4,1.3,0l6.8-6.8c0.4-0.4,0.4-0.9,0-1.3
			C220,57.6,219.7,57.5,219.5,57.5z"/>
		<path class="st0" d="M55.5,218c-0.4,0-0.7-0.1-1-0.4c-0.6-0.6-0.6-1.5,0-2l6.8-6.8c0.3-0.3,0.6-0.4,1-0.4c0,0,0,0,0,0
			c0.4,0,0.7,0.2,1,0.4c0.3,0.3,0.4,0.6,0.4,1c0,0.4-0.1,0.7-0.4,1l-6.8,6.8C56.2,217.9,55.9,218,55.5,218z M62.3,208.9
			c-0.2,0-0.5,0.1-0.7,0.3l-6.8,6.8c-0.4,0.4-0.4,0.9,0,1.3c0.3,0.3,0.9,0.3,1.3,0l6.8-6.8c0.2-0.2,0.3-0.4,0.3-0.7
			c0-0.2-0.1-0.5-0.3-0.6l0,0C62.8,209,62.5,208.9,62.3,208.9z"/>
		<path class="st0" d="M216.6,220.9c-0.4,0-0.7-0.1-1-0.4l-6.8-6.8c-0.3-0.3-0.4-0.6-0.4-1c0-0.4,0.2-0.7,0.4-1
			c0.3-0.3,0.6-0.4,1-0.4c0,0,0,0,0,0c0.4,0,0.7,0.1,1,0.4l6.8,6.8c0.5,0.5,0.5,1.4,0,2C217.3,220.8,217,220.9,216.6,220.9z
			 M209.8,211.8C209.8,211.8,209.8,211.8,209.8,211.8c-0.2,0-0.5,0.1-0.6,0.3c-0.2,0.2-0.3,0.4-0.3,0.6c0,0.2,0.1,0.5,0.3,0.7
			l6.8,6.8c0.3,0.3,1,0.3,1.3,0c0.4-0.4,0.4-0.9,0-1.3l-6.8-6.8C210.3,211.9,210.1,211.8,209.8,211.8z"/>
		<path class="st0" d="M65.2,63.7c-0.4,0-0.7-0.1-1-0.4l-6.8-6.8c-0.5-0.5-0.5-1.4,0-2c0.6-0.5,1.5-0.5,2,0l6.8,6.8
			c0.3,0.3,0.4,0.6,0.4,1c0,0.4-0.2,0.7-0.4,1C65.9,63.5,65.6,63.7,65.2,63.7z M58.4,54.6c-0.2,0-0.5,0.1-0.7,0.3
			c-0.4,0.4-0.4,0.9,0,1.3l6.8,6.8c0.3,0.3,1,0.3,1.3,0c0.2-0.2,0.3-0.4,0.3-0.6c0-0.2-0.1-0.5-0.3-0.7l-6.8-6.8
			C58.9,54.7,58.6,54.6,58.4,54.6z"/>
		<path class="st0" d="M179.1,43.2c-0.2,0-0.4,0-0.5-0.1c-0.7-0.3-1.1-1.1-0.8-1.9l3.7-8.9c0.3-0.7,1.1-1.1,1.8-0.8
			c0.3,0.1,0.6,0.4,0.8,0.8c0.1,0.4,0.2,0.7,0,1.1l-3.7,8.9C180.2,42.9,179.7,43.2,179.1,43.2z M182.8,32.1c-0.4,0-0.7,0.2-0.9,0.6
			l-3.7,8.9c-0.2,0.5,0,1,0.5,1.2l0,0c0.4,0.2,1,0,1.2-0.5l3.6-8.8c0.1-0.2,0.1-0.5,0-0.7c-0.1-0.2-0.3-0.4-0.5-0.5
			C183,32.1,182.9,32.1,182.8,32.1z"/>
		<path class="st0" d="M92.2,243.5c-0.2,0-0.4,0-0.5-0.1c-0.7-0.3-1.1-1.1-0.8-1.8l3.7-8.9c0.3-0.7,1.1-1.1,1.8-0.8l0,0
			c0.7,0.3,1.1,1.1,0.8,1.9l-3.7,8.9C93.3,243.1,92.8,243.5,92.2,243.5z M95.9,232.3c-0.4,0-0.7,0.2-0.9,0.6l-3.7,8.8
			c-0.2,0.5,0,1,0.5,1.2c0.5,0.2,1,0,1.2-0.5l3.7-8.9c0.2-0.5,0-1-0.5-1.2C96.1,232.3,96,232.3,95.9,232.3z"/>
		<path class="st0" d="M242,184.2c-0.2,0-0.4,0-0.5-0.1l-8.8-3.6c-0.7-0.3-1.1-1.1-0.8-1.8c0.3-0.7,1.1-1.1,1.8-0.8l8.9,3.7
			c0.7,0.3,1.1,1.1,0.8,1.8C243.1,183.9,242.6,184.2,242,184.2z M233.2,178.2c-0.4,0-0.7,0.2-0.9,0.6c-0.2,0.5,0,1,0.5,1.2l8.8,3.6
			c0.5,0.2,1,0,1.2-0.5c0.2-0.5,0-1-0.5-1.2l-8.9-3.6C233.4,178.2,233.3,178.2,233.2,178.2z"/>
		<path class="st0" d="M41.8,97.3c-0.2,0-0.4,0-0.5-0.1l-8.9-3.6c-0.3-0.1-0.6-0.4-0.8-0.8c-0.1-0.4-0.1-0.7,0-1.1
			c0.1-0.3,0.4-0.6,0.8-0.8c0.4-0.1,0.7-0.2,1.1,0l8.9,3.7c0.7,0.3,1.1,1.1,0.8,1.8C42.9,96.9,42.4,97.3,41.8,97.3z M32.6,93.1
			l8.9,3.6c0.5,0.2,1,0,1.2-0.5c0.2-0.5,0-1-0.5-1.2l-8.8-3.6c-0.2-0.1-0.5-0.1-0.7,0c-0.2,0.1-0.4,0.3-0.5,0.5
			C31.9,92.3,32.1,92.9,32.6,93.1z"/>
		<path class="st0" d="M234.6,100.7c-0.6,0-1.1-0.3-1.3-0.9l0,0c-0.3-0.7,0.1-1.6,0.8-1.9l8.8-3.7c0.4-0.1,0.7-0.1,1.1,0
			c0.3,0.1,0.6,0.4,0.8,0.8c0.1,0.3,0.1,0.7,0,1.1c-0.1,0.4-0.4,0.6-0.8,0.8l-8.8,3.7C235,100.7,234.8,100.7,234.6,100.7z
			 M233.8,99.6c0.1,0.3,0.5,0.6,0.8,0.6c0.1,0,0.2,0,0.3-0.1l8.9-3.7c0.2-0.1,0.4-0.3,0.5-0.5c0.1-0.2,0.1-0.5,0-0.7
			c-0.1-0.2-0.3-0.4-0.5-0.5c-0.2-0.1-0.5-0.1-0.7,0l-8.8,3.7C233.8,98.6,233.6,99.2,233.8,99.6z"/>
		<path class="st0" d="M31.6,180.8c-0.6,0-1.1-0.3-1.3-0.9c-0.1-0.4-0.1-0.7,0-1.1c0.1-0.4,0.4-0.6,0.8-0.8l8.8-3.7
			c0.7-0.3,1.6,0,1.9,0.8l0,0c0.3,0.7-0.1,1.6-0.8,1.9l-8.8,3.7C31.9,180.8,31.7,180.8,31.6,180.8z M40.4,174.8
			c-0.1,0-0.2,0-0.3,0.1l-8.8,3.7c-0.2,0.1-0.4,0.3-0.5,0.5s-0.1,0.5,0,0.7c0.2,0.5,0.7,0.7,1.2,0.5l8.8-3.7
			c0.5-0.2,0.7-0.7,0.5-1.2C41.1,175,40.8,174.8,40.4,174.8z"/>
		<path class="st0" d="M179.4,244.9c-0.6,0-1.1-0.3-1.3-0.9l-3.7-8.8c-0.3-0.7,0.1-1.6,0.8-1.9c0.7-0.3,1.6,0.1,1.9,0.8v0l3.7,8.8
			c0.1,0.4,0.1,0.7,0,1.1s-0.4,0.6-0.8,0.8C179.8,244.8,179.6,244.9,179.4,244.9z M175.7,233.7c-0.1,0-0.2,0-0.4,0.1
			c-0.5,0.2-0.7,0.7-0.5,1.2l3.7,8.8c0.2,0.4,0.7,0.7,1.2,0.5c0.2-0.1,0.4-0.3,0.5-0.5c0.1-0.2,0.1-0.5,0-0.7l-3.7-8.8
			C176.4,233.9,176.1,233.7,175.7,233.7z"/>
		<path class="st0" d="M99.3,41.8c-0.6,0-1.1-0.3-1.3-0.9l0,0l-3.7-8.8c-0.1-0.4-0.1-0.7,0-1.1c0.1-0.3,0.4-0.6,0.8-0.8
			c0.3-0.1,0.7-0.1,1.1,0c0.4,0.1,0.6,0.4,0.8,0.8l3.7,8.8c0.3,0.7,0,1.6-0.8,1.9C99.7,41.8,99.5,41.8,99.3,41.8z M98.4,40.8
			c0.2,0.5,0.7,0.7,1.2,0.5c0.5-0.2,0.7-0.7,0.5-1.2l-3.7-8.8c-0.1-0.2-0.3-0.4-0.5-0.5c-0.2-0.1-0.5-0.1-0.7,0
			c-0.2,0.1-0.4,0.3-0.5,0.5c-0.1,0.2-0.1,0.5,0,0.7L98.4,40.8z"/>
		<path class="st0" d="M160.9,37.2c-0.1,0-0.2,0-0.3,0c-0.4-0.1-0.7-0.3-0.9-0.6c-0.2-0.3-0.3-0.7-0.2-1.1l2-9.4
			c0.1-0.4,0.3-0.7,0.6-0.9c0.3-0.2,0.7-0.3,1.1-0.2c0.8,0.2,1.3,0.9,1.1,1.7l-2,9.4C162.1,36.8,161.6,37.2,160.9,37.2z M162.9,25.5
			c-0.2,0-0.3,0.1-0.5,0.2c-0.2,0.1-0.3,0.3-0.4,0.6l-2,9.4c0,0.2,0,0.5,0.1,0.7c0.1,0.2,0.3,0.3,0.6,0.4l0,0c0.1,0,0.1,0,0.2,0
			c0.4,0,0.8-0.3,0.9-0.7l2-9.4c0.1-0.5-0.2-1-0.7-1.1C163,25.5,162.9,25.5,162.9,25.5z"/>
		<path class="st0" d="M112.1,250c-0.1,0-0.2,0-0.3,0c-0.8-0.2-1.3-0.9-1.1-1.7l2-9.4c0.1-0.4,0.3-0.7,0.6-0.9
			c0.3-0.2,0.7-0.3,1.1-0.2l0,0c0.8,0.2,1.3,0.9,1.1,1.7l-2,9.4C113.4,249.5,112.8,250,112.1,250z M114.1,238.3
			c-0.2,0-0.4,0.1-0.5,0.2c-0.2,0.1-0.3,0.3-0.4,0.6l-2,9.4c-0.1,0.5,0.2,1,0.7,1.1c0.1,0,0.1,0,0.2,0c0.4,0,0.8-0.3,0.9-0.7l2-9.4
			c0.1-0.5-0.2-1-0.7-1.1h0C114.2,238.3,114.2,238.3,114.1,238.3z"/>
		<path class="st0" d="M248.6,164.3c-0.1,0-0.2,0-0.3,0l-9.4-2c-0.8-0.2-1.3-0.9-1.1-1.7c0.1-0.4,0.3-0.7,0.6-0.9
			c0.3-0.2,0.7-0.3,1.1-0.2l9.4,2c0.4,0.1,0.7,0.3,0.9,0.6c0.2,0.3,0.3,0.7,0.2,1.1C249.8,163.8,249.2,164.3,248.6,164.3z
			 M239.2,160c-0.2,0-0.4,0.1-0.5,0.2c-0.2,0.1-0.3,0.3-0.4,0.6c-0.1,0.5,0.2,1,0.7,1.1l9.4,2c0.1,0,0.1,0,0.2,0
			c0.4,0,0.8-0.3,0.9-0.7c0-0.2,0-0.5-0.1-0.7s-0.3-0.3-0.6-0.4h0l-9.4-2C239.3,160,239.3,160,239.2,160z"/>
		<path class="st0" d="M35.8,115.5c-0.1,0-0.2,0-0.3,0l-9.4-2c-0.4-0.1-0.7-0.3-0.9-0.6c-0.2-0.3-0.3-0.7-0.2-1.1
			c0.1-0.4,0.3-0.7,0.6-0.9c0.3-0.2,0.7-0.3,1.1-0.2l9.4,2c0.8,0.2,1.3,0.9,1.1,1.7C37.1,115,36.5,115.5,35.8,115.5z M26.4,111.2
			c-0.2,0-0.3,0.1-0.5,0.1c-0.2,0.1-0.4,0.3-0.4,0.6c0,0.2,0,0.5,0.1,0.7c0.1,0.2,0.3,0.3,0.6,0.4h0l9.4,2c0.1,0,0.1,0,0.2,0
			c0.4,0,0.8-0.3,0.9-0.7c0.1-0.5-0.2-1-0.7-1.1l-9.4-2C26.6,111.2,26.5,111.2,26.4,111.2z"/>
		<path class="st0" d="M226,83.5c-0.5,0-0.9-0.2-1.2-0.6l0,0c-0.4-0.7-0.2-1.5,0.4-2l8-5.2c0.6-0.4,1.5-0.2,2,0.4
			c0.4,0.7,0.2,1.5-0.4,2l-8,5.2C226.5,83.5,226.2,83.5,226,83.5z M225.2,82.6c0.3,0.4,0.9,0.5,1.3,0.3l8-5.2
			c0.4-0.3,0.5-0.8,0.3-1.3c-0.3-0.4-0.8-0.5-1.3-0.3l-8,5.2c-0.2,0.1-0.3,0.3-0.4,0.6C225,82.2,225,82.4,225.2,82.6z"/>
		<path class="st0" d="M41,199.5c-0.5,0-0.9-0.2-1.2-0.6c-0.4-0.7-0.2-1.5,0.4-2l8-5.2c0.3-0.2,0.7-0.3,1.1-0.2
			c0.4,0.1,0.7,0.3,0.9,0.6l0,0c0.2,0.3,0.3,0.7,0.2,1.1c-0.1,0.4-0.3,0.7-0.6,0.9l-8,5.2C41.6,199.4,41.3,199.5,41,199.5z
			 M49,191.9c-0.2,0-0.3,0.1-0.5,0.2l-8,5.2c-0.4,0.3-0.5,0.8-0.3,1.3c0.3,0.4,0.9,0.5,1.3,0.3l8-5.2c0.2-0.1,0.3-0.3,0.4-0.6
			s0-0.5-0.1-0.7c-0.1-0.2-0.3-0.3-0.6-0.4C49.2,192,49.1,191.9,49,191.9z"/>
		<path class="st0" d="M198.1,235.4c-0.5,0-0.9-0.2-1.2-0.6l-5.2-8c-0.4-0.7-0.2-1.5,0.4-2c0.6-0.4,1.5-0.2,2,0.4l0,0l5.2,8
			c0.4,0.7,0.2,1.5-0.4,2C198.7,235.3,198.4,235.4,198.1,235.4z M192.9,225c-0.2,0-0.3,0-0.5,0.1c-0.4,0.3-0.5,0.8-0.3,1.3l5.2,8
			c0.3,0.4,0.9,0.5,1.3,0.3c0.4-0.3,0.5-0.8,0.3-1.3l-5.2-8C193.5,225.2,193.2,225,192.9,225z"/>
		<path class="st0" d="M82.1,50.5c-0.5,0-0.9-0.2-1.2-0.6l-5.2-8c-0.4-0.7-0.2-1.5,0.4-2c0.3-0.2,0.7-0.3,1.1-0.2
			c0.4,0.1,0.7,0.3,0.9,0.6l5.2,8c0.4,0.7,0.2,1.5-0.4,2C82.7,50.4,82.4,50.5,82.1,50.5z M76.9,40.1c-0.2,0-0.3,0.1-0.5,0.1
			c-0.2,0.1-0.3,0.3-0.4,0.6c0,0.2,0,0.5,0.1,0.7l5.2,8c0.3,0.4,0.8,0.5,1.3,0.3c0.4-0.3,0.5-0.8,0.3-1.3l-5.2-8
			c-0.1-0.2-0.3-0.3-0.6-0.4C77,40.1,77,40.1,76.9,40.1z"/>
		<path class="st0" d="M197.9,53.8c-0.3,0-0.6-0.1-0.8-0.2c-0.3-0.2-0.5-0.5-0.6-0.9c-0.1-0.4,0-0.8,0.2-1.1l5.4-7.9
			c0.4-0.6,1.3-0.8,2-0.4c0.7,0.4,0.8,1.3,0.4,2l-5.4,7.9C198.8,53.6,198.3,53.8,197.9,53.8z M203.3,43.6c-0.3,0-0.6,0.1-0.8,0.4
			l-5.4,7.9c-0.1,0.2-0.2,0.5-0.1,0.7c0,0.2,0.2,0.4,0.4,0.6c0.4,0.3,1,0.2,1.3-0.2L204,45c0.3-0.4,0.2-1-0.2-1.3
			C203.6,43.6,203.4,43.6,203.3,43.6z"/>
		<path class="st0" d="M71.7,232c-0.3,0-0.6-0.1-0.8-0.3c-0.6-0.4-0.8-1.3-0.4-2l5.4-7.9c0.2-0.3,0.5-0.5,0.9-0.6
			c0.4-0.1,0.8,0,1.1,0.2c0.3,0.2,0.5,0.5,0.6,0.9c0.1,0.4,0,0.7-0.2,1.1l-5.4,7.9C72.6,231.7,72.2,232,71.7,232z M77.1,221.7
			c-0.1,0-0.1,0-0.2,0c-0.2,0-0.4,0.2-0.6,0.4l0,0L71,230c-0.3,0.4-0.2,1,0.2,1.3c0.4,0.3,1,0.2,1.3-0.2l5.4-7.9
			c0.1-0.2,0.2-0.4,0.1-0.7s-0.2-0.5-0.4-0.6C77.5,221.8,77.3,221.7,77.1,221.7z"/>
		<path class="st0" d="M230.5,204.7c-0.3,0-0.6-0.1-0.8-0.2l-7.9-5.4c-0.7-0.4-0.8-1.3-0.4-2c0.2-0.3,0.5-0.5,0.9-0.6
			c0.4-0.1,0.8,0,1.1,0.2l7.9,5.4c0.3,0.2,0.5,0.5,0.6,0.9c0.1,0.4,0,0.7-0.2,1.1C231.4,204.4,231,204.7,230.5,204.7z M222.6,197
			c-0.1,0-0.1,0-0.2,0c-0.2,0-0.4,0.2-0.6,0.4c-0.3,0.4-0.2,1,0.2,1.3l7.9,5.4c0.4,0.3,1,0.2,1.3-0.2c0.1-0.2,0.2-0.4,0.2-0.7
			c0-0.2-0.2-0.5-0.4-0.6l-7.9-5.4C223,197,222.8,197,222.6,197z"/>
		<path class="st0" d="M52.4,78.5c-0.3,0-0.6-0.1-0.8-0.3l-7.9-5.4c-0.3-0.2-0.5-0.5-0.6-0.9c-0.1-0.4,0-0.7,0.2-1.1
			c0.2-0.3,0.5-0.5,0.9-0.6c0.4-0.1,0.8,0,1.1,0.2l7.9,5.4c0.7,0.5,0.8,1.3,0.4,2C53.3,78.3,52.9,78.5,52.4,78.5z M44.5,70.8
			c-0.1,0-0.1,0-0.2,0c-0.2,0-0.4,0.2-0.6,0.4c-0.1,0.2-0.2,0.4-0.1,0.7c0,0.2,0.2,0.5,0.4,0.6l7.9,5.4c0.4,0.3,1,0.2,1.3-0.2
			c0.3-0.4,0.2-1-0.2-1.3L45,71C44.8,70.9,44.7,70.8,44.5,70.8z"/>
		<path class="st0" d="M240.4,121.4c-0.7,0-1.3-0.5-1.4-1.2c-0.1-0.4,0-0.7,0.2-1.1c0.2-0.3,0.5-0.5,0.9-0.6l9.4-1.8
			c0.8-0.1,1.5,0.3,1.7,1.1c0.1,0.4,0,0.7-0.2,1.1c-0.2,0.3-0.5,0.5-0.9,0.6l-9.4,1.8C240.6,121.4,240.5,121.4,240.4,121.4z
			 M249.8,117.3c-0.1,0-0.1,0-0.2,0l-9.4,1.8c-0.2,0-0.4,0.2-0.6,0.4c-0.1,0.2-0.2,0.4-0.1,0.7l0,0c0.1,0.4,0.5,0.7,0.9,0.7
			c0.1,0,0.1,0,0.2,0l9.4-1.8c0.2,0,0.4-0.2,0.6-0.4c0.1-0.2,0.2-0.4,0.1-0.7C250.6,117.6,250.2,117.3,249.8,117.3z"/>
		<path class="st0" d="M25.2,158.2c-0.7,0-1.3-0.5-1.4-1.2c-0.1-0.4,0-0.7,0.2-1c0.2-0.3,0.5-0.5,0.9-0.6l9.4-1.8
			c0.8-0.2,1.5,0.3,1.7,1.1l0,0c0.1,0.8-0.4,1.5-1.1,1.7l-9.4,1.8C25.4,158.2,25.3,158.2,25.2,158.2z M34.6,154.1
			c-0.1,0-0.1,0-0.2,0l-9.4,1.8c-0.2,0-0.5,0.2-0.6,0.4c-0.1,0.2-0.2,0.4-0.1,0.7c0.1,0.4,0.5,0.8,0.9,0.8c0.1,0,0.1,0,0.1,0
			l9.4-1.8c0.5-0.1,0.8-0.6,0.7-1.1C35.4,154.4,35.1,154.1,34.6,154.1z"/>
		<path class="st0" d="M156.8,251.2c-0.7,0-1.3-0.5-1.4-1.1l-1.8-9.4c-0.1-0.4,0-0.8,0.2-1.1s0.5-0.5,0.9-0.6l0,0
			c0.8-0.1,1.5,0.3,1.7,1.1l1.8,9.4c0.1,0.4,0,0.7-0.2,1.1c-0.2,0.3-0.5,0.5-0.9,0.6C157,251.2,156.9,251.2,156.8,251.2z M155,239.5
			c-0.1,0-0.1,0-0.2,0l0,0c-0.2,0-0.5,0.2-0.6,0.4c-0.1,0.2-0.2,0.4-0.1,0.7l1.8,9.4c0.1,0.4,0.5,0.7,0.9,0.7c0.1,0,0.1,0,0.1,0
			c0.3-0.1,0.5-0.2,0.6-0.4c0.1-0.2,0.2-0.4,0.1-0.7l-1.8-9.4C155.8,239.8,155.4,239.5,155,239.5z"/>
		<path class="st0" d="M120,36c-0.7,0-1.3-0.5-1.4-1.1l-1.8-9.4c-0.1-0.8,0.4-1.5,1.1-1.7c0.8-0.1,1.5,0.3,1.7,1.1l1.8,9.4
			c0.1,0.4,0,0.7-0.2,1.1c-0.2,0.3-0.5,0.5-0.9,0.6C120.2,36,120.1,36,120,36z M118.2,24.3c-0.1,0-0.1,0-0.2,0
			c-0.5,0.1-0.8,0.6-0.7,1.1l1.8,9.4c0.1,0.4,0.5,0.7,0.9,0.7c0.1,0,0.1,0,0.2,0c0.3-0.1,0.5-0.2,0.6-0.4c0.1-0.2,0.2-0.4,0.1-0.7
			l-1.8-9.4C119,24.6,118.7,24.3,118.2,24.3z"/>
		<path class="st0" d="M149.8,35.9c-0.1,0-0.1,0-0.2,0c-1.1-0.1-1.9-1.1-1.8-2.2l1-9.5c0.1-1.1,1-1.9,2.2-1.8c0.5,0.1,1,0.3,1.4,0.7
			c0.3,0.4,0.5,0.9,0.4,1.5l-0.9,9.5C151.7,35.1,150.8,35.9,149.8,35.9z M150.8,22.9c-0.8,0-1.4,0.6-1.5,1.4l-1,9.5
			c-0.1,0.8,0.5,1.6,1.3,1.6l0,0c0,0,0.1,0,0.1,0c0.8,0,1.4-0.6,1.5-1.4l0.9-9.5c0-0.4-0.1-0.8-0.3-1.1c-0.3-0.3-0.6-0.5-1-0.5
			C150.9,22.9,150.8,22.9,150.8,22.9z"/>
		<path class="st0" d="M124.3,252.7c-0.1,0-0.1,0-0.2,0c-0.5,0-1-0.3-1.3-0.7c-0.3-0.4-0.5-0.9-0.4-1.5l0.9-9.5
			c0.1-1.1,1.1-1.9,2.2-1.8h0c0.5,0,1,0.3,1.3,0.7c0.3,0.4,0.5,0.9,0.4,1.5l-0.9,9.5C126.1,251.9,125.3,252.7,124.3,252.7z
			 M125.2,239.6c-0.8,0-1.4,0.6-1.5,1.4l-0.9,9.5c0,0.4,0.1,0.8,0.3,1.1s0.6,0.5,1,0.5c0.1,0,0.1,0,0.2,0c0.8,0,1.4-0.6,1.5-1.4
			l0.9-9.5c0-0.4-0.1-0.8-0.3-1.1s-0.6-0.5-1-0.5C125.3,239.6,125.2,239.6,125.2,239.6z"/>
		<path class="st0" d="M250.7,152.8c0,0-0.1,0-0.1,0l-0.1,0l-9.5-0.9c-1.1-0.1-1.9-1.1-1.8-2.2c0.1-1.1,1.1-1.9,2.2-1.8l9.5,0.9
			c0.5,0.1,1,0.3,1.4,0.7c0.3,0.4,0.5,0.9,0.4,1.5C252.5,152,251.7,152.8,250.7,152.8z M250.5,152.2
			C250.5,152.2,250.5,152.2,250.5,152.2l0.1,0c0.8,0,1.4-0.6,1.5-1.4c0-0.4-0.1-0.8-0.3-1.1c-0.3-0.3-0.6-0.5-1-0.6l-9.5-0.9
			c-0.8-0.1-1.6,0.5-1.6,1.3c-0.1,0.8,0.5,1.6,1.3,1.6L250.5,152.2C250.5,152.2,250.5,152.2,250.5,152.2z"/>
		<path class="st0" d="M33.9,127.2c0,0-0.1,0-0.1,0l-0.1,0l-9.5-0.9c-0.5-0.1-1-0.3-1.4-0.7c-0.3-0.4-0.5-0.9-0.4-1.5
			c0.1-1.1,1.1-1.9,2.2-1.8l9.5,0.9c1.1,0.1,1.9,1.1,1.8,2.2C35.8,126.4,34.9,127.2,33.9,127.2z M33.7,126.7
			C33.8,126.7,33.8,126.7,33.7,126.7c0.1,0,0.1,0,0.1,0c0.8,0,1.4-0.6,1.5-1.4c0.1-0.8-0.5-1.6-1.3-1.6l-9.5-0.9
			c-0.8-0.1-1.6,0.5-1.6,1.3c0,0.4,0.1,0.8,0.3,1.1c0.3,0.3,0.6,0.5,1,0.5L33.7,126.7C33.7,126.7,33.7,126.7,33.7,126.7z"/>
		<path class="st0" d="M219.5,74.9c-0.6,0-1.2-0.3-1.5-0.7l0,0c-0.3-0.4-0.5-0.9-0.4-1.5c0.1-0.5,0.3-1,0.7-1.3l7.4-6.1
			c0.4-0.3,0.9-0.5,1.5-0.4c0.5,0.1,1,0.3,1.4,0.7c0.7,0.9,0.6,2.1-0.3,2.8l-7.4,6.1C220.4,74.8,219.9,74.9,219.5,74.9z M218.3,73.9
			c0.5,0.6,1.5,0.7,2.1,0.2l7.4-6.1c0.6-0.5,0.7-1.5,0.2-2.1c-0.3-0.3-0.6-0.5-1-0.5c-0.4,0-0.8,0.1-1.1,0.3l-7.4,6.1
			c-0.3,0.3-0.5,0.6-0.5,1C217.9,73.2,218.1,73.6,218.3,73.9z"/>
		<path class="st0" d="M48.1,210.1c-0.6,0-1.2-0.3-1.5-0.7c-0.7-0.9-0.6-2.1,0.3-2.8l7.4-6.1c0.4-0.3,0.9-0.5,1.5-0.4
			c0.5,0.1,1,0.3,1.4,0.7l0,0c0.7,0.9,0.6,2.1-0.3,2.8l-7.4,6.1C49,210,48.6,210.1,48.1,210.1z M55.5,200.6c-0.3,0-0.7,0.1-0.9,0.3
			l-7.4,6.1c-0.6,0.5-0.7,1.5-0.2,2.1c0.5,0.6,1.5,0.7,2.1,0.2l7.4-6.1c0.6-0.5,0.7-1.5,0.2-2.1l0,0c-0.3-0.3-0.6-0.5-1-0.5
			C55.6,200.6,55.6,200.6,55.5,200.6z"/>
		<path class="st0" d="M208.1,228.9c-0.6,0-1.2-0.3-1.5-0.7l-6.1-7.4c-0.3-0.4-0.5-0.9-0.4-1.5c0.1-0.5,0.3-1,0.7-1.3
			c0.4-0.3,0.9-0.5,1.5-0.4c0.5,0.1,1,0.3,1.3,0.7l6.1,7.4c0.3,0.4,0.5,0.9,0.4,1.5c-0.1,0.5-0.3,1-0.7,1.4
			C209.1,228.7,208.6,228.9,208.1,228.9z M202.1,218c-0.3,0-0.7,0.1-1,0.3c-0.3,0.3-0.5,0.6-0.5,1c0,0.4,0.1,0.8,0.3,1.1l6.1,7.4
			c0.5,0.6,1.5,0.7,2.1,0.2c0.3-0.3,0.5-0.6,0.5-1c0-0.4-0.1-0.8-0.3-1.1l-6.1-7.4c-0.3-0.3-0.6-0.5-1-0.5
			C202.2,218,202.1,218,202.1,218z"/>
		<path class="st0" d="M72.9,57.5c-0.6,0-1.2-0.3-1.5-0.7l-6.1-7.4c-0.3-0.4-0.5-0.9-0.4-1.5c0.1-0.5,0.3-1,0.7-1.4
			c0.8-0.7,2.1-0.6,2.8,0.3l6.1,7.4c0.3,0.4,0.5,0.9,0.4,1.5c-0.1,0.5-0.3,1-0.7,1.3C73.8,57.4,73.4,57.5,72.9,57.5z M66.9,46.6
			c-0.3,0-0.7,0.1-0.9,0.3c-0.3,0.3-0.5,0.6-0.5,1c0,0.4,0.1,0.8,0.3,1.1l6.1,7.4c0.5,0.6,1.5,0.7,2.1,0.2c0.3-0.3,0.5-0.6,0.5-1
			c0-0.4-0.1-0.8-0.3-1.1L68,47.2C67.7,46.8,67.3,46.6,66.9,46.6z"/>
		<path class="st0" d="M188.3,48.4c-0.3,0-0.6-0.1-0.9-0.2l0,0c-1-0.5-1.3-1.7-0.8-2.7l4.5-8.4c0.5-1,1.7-1.3,2.7-0.8
			c1,0.5,1.3,1.7,0.8,2.7l-4.5,8.5C189.8,48,189.1,48.4,188.3,48.4z M187.6,47.7c0.8,0.4,1.7,0.1,2-0.6l4.5-8.4
			c0.4-0.7,0.1-1.6-0.6-2c-0.7-0.4-1.6-0.1-2,0.6l-4.5,8.5C186.6,46.4,186.9,47.3,187.6,47.7z"/>
		<path class="st0" d="M82.1,239.1c-0.3,0-0.6-0.1-0.9-0.2c-1-0.5-1.3-1.7-0.8-2.7l4.5-8.5c0.5-1,1.7-1.3,2.7-0.8l0,0
			c1,0.5,1.3,1.7,0.8,2.7l-4.5,8.4C83.6,238.7,82.9,239.1,82.1,239.1z M86.6,227.1c-0.5,0-1.1,0.3-1.3,0.8l-4.5,8.4
			c-0.4,0.7-0.1,1.6,0.6,2c0.2,0.1,0.5,0.2,0.7,0.2c0.6,0,1.1-0.3,1.3-0.8l4.5-8.5c0.4-0.7,0.1-1.6-0.6-2
			C87.1,227.2,86.9,227.1,86.6,227.1z"/>
		<path class="st0" d="M237.1,194.8c-0.3,0-0.7-0.1-0.9-0.2l-8.4-4.5c-1-0.5-1.3-1.7-0.8-2.7c0.5-1,1.7-1.3,2.7-0.8l8.4,4.5
			c0.5,0.2,0.8,0.7,1,1.2c0.2,0.5,0.1,1.1-0.1,1.5C238.5,194.4,237.8,194.8,237.1,194.8z M228.6,186.8c-0.5,0-1,0.3-1.3,0.8
			c-0.4,0.7-0.1,1.6,0.6,2l8.4,4.5c0.2,0.1,0.4,0.2,0.7,0.2c0.6,0,1.1-0.3,1.3-0.8c0.2-0.4,0.2-0.8,0.1-1.1
			c-0.1-0.4-0.4-0.7-0.7-0.9l0,0l-8.4-4.5C229.1,186.9,228.8,186.8,228.6,186.8z"/>
		<path class="st0" d="M46.4,88.6c-0.3,0-0.6-0.1-0.9-0.2L37,83.9c-1-0.5-1.3-1.7-0.8-2.7c0.5-1,1.7-1.3,2.7-0.8l8.5,4.5
			c1,0.5,1.3,1.7,0.8,2.7C47.8,88.2,47.1,88.6,46.4,88.6z M37.9,80.6c-0.5,0-1.1,0.3-1.3,0.8c-0.4,0.7-0.1,1.6,0.6,2l0,0l8.5,4.5
			c0.7,0.4,1.6,0.1,2-0.6c0.4-0.7,0.1-1.6-0.6-2l-8.4-4.5C38.4,80.7,38.2,80.6,37.9,80.6z"/>
		<path class="st0" d="M237.9,111c-0.9,0-1.7-0.6-1.9-1.4v0c-0.2-0.5-0.1-1.1,0.1-1.5c0.3-0.5,0.7-0.8,1.2-1l9.2-2.8
			c1.1-0.3,2.2,0.3,2.5,1.3c0.3,1.1-0.3,2.2-1.3,2.5l-9.2,2.8C238.3,111,238.1,111,237.9,111z M236.4,109.5c0.2,0.6,0.8,1.1,1.4,1.1
			c0.1,0,0.3,0,0.4-0.1l9.2-2.8c0.8-0.2,1.2-1.1,1-1.9c-0.2-0.8-1.1-1.2-1.9-1l-9.2,2.8c-0.4,0.1-0.7,0.4-0.9,0.7
			C236.4,108.7,236.3,109.1,236.4,109.5z"/>
		<path class="st0" d="M28,170.8c-0.9,0-1.7-0.6-1.9-1.4c-0.3-1.1,0.3-2.2,1.3-2.5l9.2-2.8c1-0.3,2.2,0.3,2.5,1.3l0,0
			c0.3,1.1-0.3,2.2-1.3,2.5l-9.2,2.8C28.3,170.7,28.1,170.8,28,170.8z M37.1,164.5c-0.1,0-0.3,0-0.4,0.1l-9.2,2.8
			c-0.8,0.2-1.2,1.1-1,1.9c0.2,0.6,0.8,1.1,1.4,1.1c0.1,0,0.3,0,0.4-0.1l9.2-2.8c0.8-0.2,1.2-1.1,1-1.9
			C38.3,164.9,37.8,164.5,37.1,164.5z"/>
		<path class="st0" d="M168.8,249c-0.9,0-1.7-0.6-1.9-1.4l-2.8-9.2c-0.3-1.1,0.3-2.2,1.3-2.5c1.1-0.3,2.2,0.3,2.5,1.3l2.8,9.2
			c0.2,0.5,0.1,1-0.1,1.5c-0.3,0.5-0.7,0.8-1.2,1C169.1,249,169,249,168.8,249z M166,236.4c-0.1,0-0.3,0-0.4,0.1
			c-0.8,0.3-1.2,1.1-1,1.9l2.8,9.2c0.2,0.6,0.8,1.1,1.4,1.1c0.1,0,0.3,0,0.4-0.1c0.8-0.2,1.2-1.1,1-1.9l-2.8-9.2
			C167.2,236.8,166.6,236.4,166,236.4z"/>
		<path class="st0" d="M109,39.1c-0.9,0-1.7-0.6-1.9-1.4l-2.8-9.2c-0.3-1.1,0.3-2.2,1.3-2.5c1.1-0.3,2.2,0.3,2.5,1.3l2.8,9.2
			c0.2,0.5,0.1,1-0.1,1.5c-0.3,0.5-0.7,0.8-1.2,1C109.4,39.1,109.2,39.1,109,39.1z M106.2,26.5c-0.1,0-0.3,0-0.4,0.1
			c-0.8,0.2-1.2,1.1-1,1.9l2.8,9.2c0.2,0.6,0.8,1.1,1.4,1.1c0.2,0,0.3,0,0.4-0.1c0.4-0.1,0.7-0.4,0.9-0.7c0.2-0.4,0.2-0.8,0.1-1.1
			l-2.8-9.2C107.5,26.9,106.9,26.5,106.2,26.5z"/>
		<path class="st0" d="M170.8,40.6c-0.2,0-0.4,0-0.6-0.1c-1.1-0.3-1.6-1.5-1.3-2.5l2.9-9.1c0.3-1.1,1.4-1.6,2.5-1.3
			c1.1,0.3,1.6,1.5,1.3,2.5l-2.9,9.1C172.4,40,171.7,40.6,170.8,40.6z M173.7,28c-0.6,0-1.2,0.4-1.4,1l-2.9,9.1
			c-0.2,0.8,0.2,1.6,1,1.9l0,0c0.1,0,0.3,0.1,0.4,0.1c0.7,0,1.2-0.4,1.4-1l2.9-9.1c0.2-0.8-0.2-1.6-1-1.9C174,28,173.8,28,173.7,28z
			"/>
		<path class="st0" d="M101.3,247.5c-0.2,0-0.4,0-0.6-0.1c-1-0.3-1.6-1.5-1.3-2.5l2.9-9.1c0.3-1.1,1.5-1.6,2.5-1.3
			c1,0.3,1.6,1.5,1.3,2.5l-2.9,9.1C103,247,102.2,247.5,101.3,247.5z M104.2,234.9c-0.6,0-1.2,0.4-1.4,1.1l-2.9,9.1
			c-0.1,0.4-0.1,0.8,0.1,1.1c0.2,0.4,0.5,0.6,0.9,0.7c0.1,0,0.3,0.1,0.5,0.1c0.6,0,1.2-0.4,1.4-1l2.9-9.1c0.2-0.8-0.2-1.6-1-1.9h0
			C104.5,234.9,104.4,234.9,104.2,234.9z"/>
		<path class="st0" d="M245.5,175.7c-0.2,0-0.4,0-0.6-0.1l-9.1-2.9c-1-0.3-1.6-1.5-1.3-2.5c0.2-0.5,0.5-0.9,1-1.2
			c0.5-0.2,1-0.3,1.5-0.1l9.1,2.9c1,0.3,1.6,1.5,1.3,2.5C247.2,175.1,246.4,175.7,245.5,175.7z M236.4,169.3c-0.2,0-0.5,0.1-0.7,0.2
			c-0.4,0.2-0.6,0.5-0.7,0.9c-0.2,0.8,0.2,1.6,1,1.9l9.1,2.9c0.1,0,0.3,0.1,0.5,0.1c0.7,0,1.2-0.4,1.4-1c0.2-0.8-0.2-1.6-1-1.9
			l-9.1-2.9C236.7,169.3,236.5,169.3,236.4,169.3z"/>
		<path class="st0" d="M38.6,106.2c-0.2,0-0.4,0-0.6-0.1l-9.1-2.9c-1-0.3-1.6-1.5-1.3-2.5c0.3-1,1.5-1.6,2.5-1.3l9.1,2.9
			c1,0.3,1.6,1.5,1.3,2.5C40.2,105.6,39.5,106.2,38.6,106.2z M29,102.8l9.1,2.9c0.1,0,0.3,0.1,0.5,0.1c0.7,0,1.2-0.4,1.4-1
			c0.2-0.8-0.2-1.6-1-1.9l-9.1-2.9c-0.8-0.3-1.6,0.2-1.9,1C27.8,101.7,28.2,102.5,29,102.8L29,102.8z"/>
		<path class="st0" d="M231,93.1c-0.7,0-1.4-0.4-1.8-1.1c-0.2-0.5-0.3-1-0.1-1.5c0.2-0.5,0.5-0.9,1-1.2l8.5-4.4
			c0.5-0.2,1-0.3,1.5-0.1c0.5,0.2,0.9,0.5,1.2,1c0.3,0.5,0.3,1,0.1,1.5c-0.2,0.5-0.5,0.9-1,1.2l-8.5,4.4
			C231.6,93,231.3,93.1,231,93.1z M239.5,85.2c-0.2,0-0.5,0.1-0.7,0.2l-8.5,4.4c-0.4,0.2-0.6,0.5-0.7,0.9c-0.1,0.4-0.1,0.8,0.1,1.1
			l0,0c0.4,0.7,1.2,1,2,0.6l8.5-4.4c0.4-0.2,0.6-0.5,0.7-0.9c0.1-0.4,0.1-0.8-0.1-1.2c-0.2-0.4-0.5-0.6-0.9-0.7
			C239.8,85.2,239.6,85.2,239.5,85.2z"/>
		<path class="st0" d="M35.5,190.3c-0.8,0-1.4-0.4-1.8-1.1c-0.2-0.5-0.3-1-0.1-1.5c0.2-0.5,0.5-0.9,1-1.2l8.5-4.4
			c0.5-0.2,1-0.3,1.5-0.1c0.5,0.2,0.9,0.5,1.2,1c0.2,0.5,0.3,1,0.1,1.5c-0.2,0.5-0.5,0.9-1,1.2l-8.5,4.4
			C36.2,190.2,35.9,190.3,35.5,190.3z M44,182.4c-0.2,0-0.5,0.1-0.7,0.2l-8.5,4.4c-0.4,0.2-0.6,0.5-0.7,0.9
			c-0.1,0.4-0.1,0.8,0.1,1.2c0.3,0.5,0.8,0.8,1.3,0.8c0.2,0,0.5-0.1,0.7-0.2l8.5-4.4c0.4-0.2,0.6-0.5,0.7-0.9
			c0.1-0.4,0.1-0.8-0.1-1.1l0,0c-0.2-0.4-0.5-0.6-0.9-0.7C44.3,182.4,44.2,182.4,44,182.4z"/>
		<path class="st0" d="M188.3,241.5c-0.8,0-1.4-0.4-1.8-1.1l-4.4-8.5c-0.5-1-0.1-2.2,0.9-2.7c0.5-0.2,1-0.3,1.5-0.1
			c0.5,0.2,0.9,0.5,1.2,1v0l4.4,8.5c0.2,0.5,0.3,1,0.1,1.5c-0.2,0.5-0.5,0.9-1,1.2C189,241.4,188.6,241.5,188.3,241.5z M183.9,229.5
			c-0.2,0-0.5,0.1-0.7,0.2c-0.7,0.4-1,1.3-0.6,2l4.4,8.5c0.3,0.5,0.8,0.8,1.3,0.8c0.2,0,0.5-0.1,0.7-0.2c0.4-0.2,0.6-0.5,0.7-0.9
			c0.1-0.4,0.1-0.8-0.1-1.1l-4.4-8.5c-0.2-0.4-0.5-0.6-0.9-0.7C184.2,229.5,184,229.5,183.9,229.5z"/>
		<path class="st0" d="M91.1,46c-0.8,0-1.4-0.4-1.8-1.1l-4.4-8.5c-0.2-0.5-0.3-1-0.1-1.5c0.2-0.5,0.5-0.9,1-1.2
			c0.5-0.2,1-0.3,1.5-0.1c0.5,0.2,0.9,0.5,1.2,1l4.4,8.5c0.5,1,0.1,2.2-0.9,2.7C91.8,45.9,91.4,46,91.1,46z M86.7,34
			c-0.2,0-0.5,0.1-0.7,0.2c-0.4,0.2-0.6,0.5-0.7,0.9c-0.1,0.4-0.1,0.8,0.1,1.1l4.4,8.5c0.3,0.5,0.8,0.8,1.3,0.8
			c0.2,0,0.5-0.1,0.7-0.2c0.7-0.4,1-1.3,0.6-2L88,34.8c-0.2-0.4-0.5-0.6-0.9-0.7C87,34.1,86.8,34,86.7,34z"/>
		<path class="st0" d="M206,60.7c-0.5,0-0.9-0.2-1.3-0.5l0,0c-0.4-0.3-0.7-0.8-0.7-1.4c0-0.5,0.1-1,0.5-1.5l6.1-7.3
			c0.3-0.4,0.8-0.7,1.4-0.7c0.5,0,1,0.1,1.5,0.5c0.4,0.3,0.7,0.8,0.7,1.4c0,0.5-0.1,1-0.5,1.5l-6.1,7.3
			C207.1,60.5,206.5,60.7,206,60.7z M212.1,49.9c0,0-0.1,0-0.1,0c-0.4,0-0.8,0.2-1,0.5l-6.1,7.3c-0.3,0.3-0.4,0.7-0.3,1.1
			c0,0.4,0.2,0.8,0.5,1l0,0c0.6,0.5,1.6,0.4,2.1-0.2l6.1-7.4c0.3-0.3,0.4-0.7,0.3-1.1c0-0.4-0.2-0.8-0.5-1
			C212.8,50,212.4,49.9,212.1,49.9z"/>
		<path class="st0" d="M62.9,225.6c-0.5,0-0.9-0.2-1.3-0.5c-0.8-0.7-1-2-0.3-2.8l6.1-7.4c0.3-0.4,0.8-0.7,1.4-0.7
			c0.5,0,1,0.1,1.4,0.5c0.8,0.7,1,2,0.3,2.8l-6.1,7.4C64.1,225.3,63.5,225.6,62.9,225.6z M69.1,214.8c0,0-0.1,0-0.1,0
			c-0.4,0-0.8,0.2-1,0.5l-6.1,7.3c-0.5,0.6-0.4,1.6,0.2,2.1c0.6,0.5,1.6,0.4,2.1-0.2l6.1-7.4c0.5-0.6,0.4-1.6-0.2-2.1l0,0
			C69.7,214.9,69.4,214.8,69.1,214.8z"/>
		<path class="st0" d="M223.6,214.1c-0.5,0-0.9-0.2-1.3-0.5l-7.3-6.1c-0.8-0.7-1-2-0.3-2.8c0.3-0.4,0.8-0.7,1.4-0.7
			c0.5,0,1,0.1,1.4,0.5l7.3,6.1c0.8,0.7,1,2,0.3,2.8C224.8,213.8,224.2,214.1,223.6,214.1z M216.3,204.5c0,0-0.1,0-0.1,0
			c-0.4,0-0.8,0.2-1,0.5c-0.5,0.6-0.4,1.6,0.2,2.1l7.3,6.1c0.6,0.5,1.6,0.4,2.1-0.2c0.5-0.6,0.4-1.6-0.2-2.1l-7.4-6.1
			C217,204.6,216.6,204.5,216.3,204.5z"/>
		<path class="st0" d="M58.7,71c-0.5,0-0.9-0.2-1.3-0.5l-7.3-6.1c-0.8-0.7-1-2-0.3-2.8c0.3-0.4,0.8-0.7,1.4-0.7c0.5,0,1,0.1,1.4,0.5
			l7.3,6.1c0.8,0.7,1,2,0.3,2.8C59.9,70.8,59.3,71,58.7,71z M51.4,61.4c0,0-0.1,0-0.1,0c-0.4,0-0.8,0.2-1,0.5
			c-0.3,0.3-0.4,0.7-0.3,1.1c0,0.4,0.2,0.8,0.5,1l7.4,6.1c0.6,0.5,1.6,0.4,2.1-0.2c0.5-0.6,0.4-1.6-0.2-2.1l-7.3-6.1
			C52.1,61.5,51.7,61.4,51.4,61.4z"/>
		<path class="st0" d="M241.6,132.2c-1,0-1.9-0.8-2-1.8c0-0.5,0.1-1.1,0.5-1.5s0.8-0.7,1.4-0.7l9.5-0.9c0.5-0.1,1.1,0.1,1.5,0.5
			c0.4,0.3,0.7,0.8,0.7,1.4c0.1,1.1-0.7,2.1-1.8,2.2l-9.5,0.9C241.7,132.2,241.7,132.2,241.6,132.2z M251.1,127.9c0,0-0.1,0-0.1,0
			l-9.5,0.9c-0.4,0-0.8,0.2-1,0.5c-0.3,0.3-0.4,0.7-0.3,1.1v0c0.1,0.8,0.7,1.4,1.5,1.4c0,0,0.1,0,0.1,0l9.6-0.9
			c0.8-0.1,1.4-0.8,1.4-1.6c0-0.4-0.2-0.8-0.5-1C251.8,128,251.5,127.9,251.1,127.9z"/>
		<path class="st0" d="M23.9,147.7c-1,0-1.9-0.8-2-1.8c-0.1-1.1,0.7-2.1,1.8-2.2l9.5-0.9c1.1-0.1,2.1,0.7,2.2,1.8v0
			c0.1,1.1-0.7,2.1-1.8,2.2l-9.5,0.9C24,147.6,24,147.6,23.9,147.7C23.9,147.6,23.9,147.7,23.9,147.7z M33.4,143.3c0,0-0.1,0-0.1,0
			l-9.5,0.9c-0.8,0.1-1.4,0.8-1.4,1.6c0.1,0.8,0.7,1.4,1.5,1.4c0.1,0,0.1,0,0.2,0l9.5-0.9c0.8-0.1,1.4-0.8,1.4-1.6
			C34.8,143.9,34.2,143.3,33.4,143.3z"/>
		<path class="st0" d="M145.6,253.1c-1,0-1.9-0.8-2-1.8l-0.9-9.5c-0.1-1.1,0.7-2.1,1.8-2.2c0.5-0.1,1.1,0.1,1.5,0.4
			c0.4,0.3,0.7,0.8,0.7,1.4l0.9,9.5c0,0.5-0.1,1.1-0.5,1.5c-0.3,0.4-0.8,0.7-1.4,0.7C145.8,253.1,145.7,253.1,145.6,253.1z
			 M144.8,240.1c-0.1,0-0.1,0-0.2,0h0c-0.8,0.1-1.4,0.8-1.4,1.6l0.9,9.5c0.1,0.8,0.7,1.4,1.5,1.4c0,0,0.1,0,0.1,0
			c0.4,0,0.8-0.2,1-0.5c0.3-0.3,0.4-0.7,0.3-1.1l-0.9-9.5c0-0.4-0.2-0.8-0.5-1C145.5,240.2,145.2,240.1,144.8,240.1z"/>
		<path class="st0" d="M130.2,35.4c-1,0-1.9-0.8-2-1.8l-0.9-9.5c0-0.5,0.1-1.1,0.5-1.5c0.3-0.4,0.8-0.7,1.4-0.7
			c1.1-0.1,2.1,0.7,2.2,1.8l0.9,9.5c0,0.5-0.1,1-0.5,1.5c-0.3,0.4-0.8,0.7-1.4,0.7L130.2,35.4C130.3,35.4,130.2,35.4,130.2,35.4z
			 M129.4,22.4c0,0-0.1,0-0.1,0c-0.4,0-0.8,0.2-1,0.5c-0.3,0.3-0.4,0.7-0.3,1.1l0.9,9.5c0.1,0.8,0.7,1.4,1.5,1.4l0,0
			c0,0,0.1,0,0.1,0c0.8-0.1,1.4-0.8,1.3-1.6l-0.9-9.5C130.8,23,130.1,22.4,129.4,22.4z"/>
	</g>
</g>
</svg>
